<?xml version="1.0" encoding="utf-8" standalone="no"?>
<!DOCTYPE svg PUBLIC "-//W3C//DTD SVG 1.1//EN"
  "http://www.w3.org/Graphics/SVG/1.1/DTD/svg11.dtd">
<svg xmlns:xlink="http://www.w3.org/1999/xlink" width="1072.841563pt" height="281.310938pt" viewBox="0 0 1072.841563 281.310938" xmlns="http://www.w3.org/2000/svg" version="1.1">
 <metadata>
  <rdf:RDF xmlns:dc="http://purl.org/dc/elements/1.1/" xmlns:cc="http://creativecommons.org/ns#" xmlns:rdf="http://www.w3.org/1999/02/22-rdf-syntax-ns#">
   <cc:Work>
    <dc:type rdf:resource="http://purl.org/dc/dcmitype/StillImage"/>
    <dc:date>2024-10-01T13:41:23.234078</dc:date>
    <dc:format>image/svg+xml</dc:format>
    <dc:creator>
     <cc:Agent>
      <dc:title>Matplotlib v3.8.4, https://matplotlib.org/</dc:title>
     </cc:Agent>
    </dc:creator>
   </cc:Work>
  </rdf:RDF>
 </metadata>
 <defs>
  <style type="text/css">*{stroke-linejoin: round; stroke-linecap: butt}</style>
 </defs>
 <g id="figure_1">
  <g id="patch_1">
   <path d="M 0 281.310938 
L 1072.841563 281.310938 
L 1072.841563 0 
L 0 0 
z
" style="fill: #ffffff"/>
  </g>
  <g id="axes_1">
   <g id="patch_2">
    <path d="M 80.851562 229.90375 
L 391.171562 229.90375 
L 391.171562 26.46375 
L 80.851562 26.46375 
z
" style="fill: #ffffff"/>
   </g>
   <g id="matplotlib.axis_1">
    <g id="xtick_1">
     <g id="line2d_1">
      <defs>
       <path id="m5e13770c3d" d="M 0 0 
L 0 5 
" style="stroke: #000000; stroke-width: 1.5"/>
      </defs>
      <g>
       <use xlink:href="#m5e13770c3d" x="109.062472" y="229.90375" style="stroke: #000000; stroke-width: 1.5"/>
      </g>
     </g>
     <g id="text_1">
      <!-- −0.4 -->
      <g transform="translate(93.269972 249.88125) scale(0.16 -0.16)">
       <defs>
        <path id="Helvetica-2212" d="M 3547 1894 
L 3547 1369 
L 288 1369 
L 288 1894 
L 3547 1894 
z
" transform="scale(0.015625)"/>
        <path id="Helvetica-30" d="M 1731 4475 
Q 2600 4475 2988 3759 
Q 3288 3206 3288 2244 
Q 3288 1331 3016 734 
Q 2622 -122 1728 -122 
Q 922 -122 528 578 
Q 200 1163 200 2147 
Q 200 2909 397 3456 
Q 766 4475 1731 4475 
z
M 1725 391 
Q 2163 391 2422 778 
Q 2681 1166 2681 2222 
Q 2681 2984 2493 3476 
Q 2306 3969 1766 3969 
Q 1269 3969 1039 3501 
Q 809 3034 809 2125 
Q 809 1441 956 1025 
Q 1181 391 1725 391 
z
" transform="scale(0.015625)"/>
        <path id="Helvetica-2e" d="M 547 681 
L 1200 681 
L 1200 0 
L 547 0 
L 547 681 
z
" transform="scale(0.015625)"/>
        <path id="Helvetica-34" d="M 2116 1584 
L 2116 3613 
L 681 1584 
L 2116 1584 
z
M 2125 0 
L 2125 1094 
L 163 1094 
L 163 1644 
L 2213 4488 
L 2688 4488 
L 2688 1584 
L 3347 1584 
L 3347 1094 
L 2688 1094 
L 2688 0 
L 2125 0 
z
" transform="scale(0.015625)"/>
       </defs>
       <use xlink:href="#Helvetica-2212"/>
       <use xlink:href="#Helvetica-30" x="58.398438"/>
       <use xlink:href="#Helvetica-2e" x="114.013672"/>
       <use xlink:href="#Helvetica-34" x="141.796875"/>
      </g>
     </g>
    </g>
    <g id="xtick_2">
     <g id="line2d_2">
      <g>
       <use xlink:href="#m5e13770c3d" x="179.589744" y="229.90375" style="stroke: #000000; stroke-width: 1.5"/>
      </g>
     </g>
     <g id="text_2">
      <!-- −0.2 -->
      <g transform="translate(163.797244 249.88125) scale(0.16 -0.16)">
       <defs>
        <path id="Helvetica-32" d="M 200 0 
Q 231 578 439 1006 
Q 647 1434 1250 1784 
L 1850 2131 
Q 2253 2366 2416 2531 
Q 2672 2791 2672 3125 
Q 2672 3516 2437 3745 
Q 2203 3975 1813 3975 
Q 1234 3975 1013 3538 
Q 894 3303 881 2888 
L 309 2888 
Q 319 3472 525 3841 
Q 891 4491 1816 4491 
Q 2584 4491 2939 4075 
Q 3294 3659 3294 3150 
Q 3294 2613 2916 2231 
Q 2697 2009 2131 1694 
L 1703 1456 
Q 1397 1288 1222 1134 
Q 909 863 828 531 
L 3272 531 
L 3272 0 
L 200 0 
z
" transform="scale(0.015625)"/>
       </defs>
       <use xlink:href="#Helvetica-2212"/>
       <use xlink:href="#Helvetica-30" x="58.398438"/>
       <use xlink:href="#Helvetica-2e" x="114.013672"/>
       <use xlink:href="#Helvetica-32" x="141.796875"/>
      </g>
     </g>
    </g>
    <g id="xtick_3">
     <g id="line2d_3">
      <g>
       <use xlink:href="#m5e13770c3d" x="250.117017" y="229.90375" style="stroke: #000000; stroke-width: 1.5"/>
      </g>
     </g>
     <g id="text_3">
      <!-- 0.0 -->
      <g transform="translate(238.997017 249.88125) scale(0.16 -0.16)">
       <use xlink:href="#Helvetica-30"/>
       <use xlink:href="#Helvetica-2e" x="55.615234"/>
       <use xlink:href="#Helvetica-30" x="83.398438"/>
      </g>
     </g>
    </g>
    <g id="xtick_4">
     <g id="line2d_4">
      <g>
       <use xlink:href="#m5e13770c3d" x="320.64429" y="229.90375" style="stroke: #000000; stroke-width: 1.5"/>
      </g>
     </g>
     <g id="text_4">
      <!-- 0.2 -->
      <g transform="translate(309.52429 249.88125) scale(0.16 -0.16)">
       <use xlink:href="#Helvetica-30"/>
       <use xlink:href="#Helvetica-2e" x="55.615234"/>
       <use xlink:href="#Helvetica-32" x="83.398438"/>
      </g>
     </g>
    </g>
    <g id="xtick_5">
     <g id="line2d_5">
      <g>
       <use xlink:href="#m5e13770c3d" x="391.171562" y="229.90375" style="stroke: #000000; stroke-width: 1.5"/>
      </g>
     </g>
     <g id="text_5">
      <!-- 0.4 -->
      <g transform="translate(380.051562 249.88125) scale(0.16 -0.16)">
       <use xlink:href="#Helvetica-30"/>
       <use xlink:href="#Helvetica-2e" x="55.615234"/>
       <use xlink:href="#Helvetica-34" x="83.398438"/>
      </g>
     </g>
    </g>
    <g id="text_6">
     <!-- Magnetization -->
     <g transform="translate(179.980937 270.128438) scale(0.18 -0.18)">
      <defs>
       <path id="Helvetica-4d" d="M 472 4591 
L 1363 4591 
L 2681 709 
L 3991 4591 
L 4872 4591 
L 4872 0 
L 4281 0 
L 4281 2709 
Q 4281 2850 4287 3175 
Q 4294 3500 4294 3872 
L 2984 0 
L 2369 0 
L 1050 3872 
L 1050 3731 
Q 1050 3563 1058 3217 
Q 1066 2872 1066 2709 
L 1066 0 
L 472 0 
L 472 4591 
z
" transform="scale(0.015625)"/>
       <path id="Helvetica-61" d="M 844 891 
Q 844 647 1022 506 
Q 1200 366 1444 366 
Q 1741 366 2019 503 
Q 2488 731 2488 1250 
L 2488 1703 
Q 2384 1638 2221 1594 
Q 2059 1550 1903 1531 
L 1563 1488 
Q 1256 1447 1103 1359 
Q 844 1213 844 891 
z
M 2206 2028 
Q 2400 2053 2466 2191 
Q 2503 2266 2503 2406 
Q 2503 2694 2298 2823 
Q 2094 2953 1713 2953 
Q 1272 2953 1088 2716 
Q 984 2584 953 2325 
L 428 2325 
Q 444 2944 830 3186 
Q 1216 3428 1725 3428 
Q 2316 3428 2684 3203 
Q 3050 2978 3050 2503 
L 3050 575 
Q 3050 488 3086 434 
Q 3122 381 3238 381 
Q 3275 381 3322 386 
Q 3369 391 3422 400 
L 3422 -16 
Q 3291 -53 3222 -62 
Q 3153 -72 3034 -72 
Q 2744 -72 2613 134 
Q 2544 244 2516 444 
Q 2344 219 2022 53 
Q 1700 -113 1313 -113 
Q 847 -113 551 170 
Q 256 453 256 878 
Q 256 1344 547 1600 
Q 838 1856 1309 1916 
L 2206 2028 
z
M 1741 3428 
L 1741 3428 
z
" transform="scale(0.015625)"/>
       <path id="Helvetica-67" d="M 1594 3406 
Q 1988 3406 2281 3213 
Q 2441 3103 2606 2894 
L 2606 3316 
L 3125 3316 
L 3125 272 
Q 3125 -366 2938 -734 
Q 2588 -1416 1616 -1416 
Q 1075 -1416 706 -1173 
Q 338 -931 294 -416 
L 866 -416 
Q 906 -641 1028 -763 
Q 1219 -950 1628 -950 
Q 2275 -950 2475 -494 
Q 2594 -225 2584 466 
Q 2416 209 2178 84 
Q 1941 -41 1550 -41 
Q 1006 -41 598 345 
Q 191 731 191 1622 
Q 191 2463 602 2934 
Q 1013 3406 1594 3406 
z
M 2606 1688 
Q 2606 2309 2350 2609 
Q 2094 2909 1697 2909 
Q 1103 2909 884 2353 
Q 769 2056 769 1575 
Q 769 1009 998 714 
Q 1228 419 1616 419 
Q 2222 419 2469 966 
Q 2606 1275 2606 1688 
z
M 1659 3428 
L 1659 3428 
z
" transform="scale(0.015625)"/>
       <path id="Helvetica-6e" d="M 413 3347 
L 947 3347 
L 947 2872 
Q 1184 3166 1450 3294 
Q 1716 3422 2041 3422 
Q 2753 3422 3003 2925 
Q 3141 2653 3141 2147 
L 3141 0 
L 2569 0 
L 2569 2109 
Q 2569 2416 2478 2603 
Q 2328 2916 1934 2916 
Q 1734 2916 1606 2875 
Q 1375 2806 1200 2600 
Q 1059 2434 1017 2257 
Q 975 2081 975 1753 
L 975 0 
L 413 0 
L 413 3347 
z
M 1734 3428 
L 1734 3428 
z
" transform="scale(0.015625)"/>
       <path id="Helvetica-65" d="M 1806 3422 
Q 2163 3422 2497 3255 
Q 2831 3088 3006 2822 
Q 3175 2569 3231 2231 
Q 3281 2000 3281 1494 
L 828 1494 
Q 844 984 1069 676 
Q 1294 369 1766 369 
Q 2206 369 2469 659 
Q 2619 828 2681 1050 
L 3234 1050 
Q 3213 866 3089 639 
Q 2966 413 2813 269 
Q 2556 19 2178 -69 
Q 1975 -119 1719 -119 
Q 1094 -119 659 336 
Q 225 791 225 1609 
Q 225 2416 662 2919 
Q 1100 3422 1806 3422 
z
M 2703 1941 
Q 2669 2306 2544 2525 
Q 2313 2931 1772 2931 
Q 1384 2931 1121 2651 
Q 859 2372 844 1941 
L 2703 1941 
z
M 1753 3428 
L 1753 3428 
z
" transform="scale(0.015625)"/>
       <path id="Helvetica-74" d="M 525 4281 
L 1094 4281 
L 1094 3347 
L 1628 3347 
L 1628 2888 
L 1094 2888 
L 1094 703 
Q 1094 528 1213 469 
Q 1278 434 1431 434 
Q 1472 434 1519 436 
Q 1566 438 1628 444 
L 1628 0 
Q 1531 -28 1426 -40 
Q 1322 -53 1200 -53 
Q 806 -53 665 148 
Q 525 350 525 672 
L 525 2888 
L 72 2888 
L 72 3347 
L 525 3347 
L 525 4281 
z
" transform="scale(0.015625)"/>
       <path id="Helvetica-69" d="M 413 3331 
L 984 3331 
L 984 0 
L 413 0 
L 413 3331 
z
M 413 4591 
L 984 4591 
L 984 3953 
L 413 3953 
L 413 4591 
z
" transform="scale(0.015625)"/>
       <path id="Helvetica-7a" d="M 163 444 
L 2147 2844 
L 309 2844 
L 309 3347 
L 2903 3347 
L 2903 2888 
L 931 503 
L 2963 503 
L 2963 0 
L 163 0 
L 163 444 
z
M 1609 3428 
L 1609 3428 
z
" transform="scale(0.015625)"/>
       <path id="Helvetica-6f" d="M 1741 363 
Q 2300 363 2508 786 
Q 2716 1209 2716 1728 
Q 2716 2197 2566 2491 
Q 2328 2953 1747 2953 
Q 1231 2953 997 2559 
Q 763 2166 763 1609 
Q 763 1075 997 719 
Q 1231 363 1741 363 
z
M 1763 3444 
Q 2409 3444 2856 3012 
Q 3303 2581 3303 1744 
Q 3303 934 2909 406 
Q 2516 -122 1688 -122 
Q 997 -122 590 345 
Q 184 813 184 1600 
Q 184 2444 612 2944 
Q 1041 3444 1763 3444 
z
M 1744 3428 
L 1744 3428 
z
" transform="scale(0.015625)"/>
      </defs>
      <use xlink:href="#Helvetica-4d"/>
      <use xlink:href="#Helvetica-61" x="83.300781"/>
      <use xlink:href="#Helvetica-67" x="138.916016"/>
      <use xlink:href="#Helvetica-6e" x="194.53125"/>
      <use xlink:href="#Helvetica-65" x="250.146484"/>
      <use xlink:href="#Helvetica-74" x="305.761719"/>
      <use xlink:href="#Helvetica-69" x="333.544922"/>
      <use xlink:href="#Helvetica-7a" x="355.761719"/>
      <use xlink:href="#Helvetica-61" x="405.761719"/>
      <use xlink:href="#Helvetica-74" x="461.376953"/>
      <use xlink:href="#Helvetica-69" x="489.160156"/>
      <use xlink:href="#Helvetica-6f" x="511.376953"/>
      <use xlink:href="#Helvetica-6e" x="566.992188"/>
     </g>
    </g>
   </g>
   <g id="matplotlib.axis_2">
    <g id="ytick_1">
     <g id="line2d_6">
      <path d="M 80.851562 229.90375 
L 391.171562 229.90375 
" clip-path="url(#pb37013a229)" style="fill: none; stroke: #bfbfbf; stroke-width: 1.5; stroke-linecap: square"/>
     </g>
     <g id="line2d_7">
      <defs>
       <path id="m99aba46a55" d="M 0 0 
L -5 0 
" style="stroke: #000000; stroke-width: 1.5"/>
      </defs>
      <g>
       <use xlink:href="#m99aba46a55" x="80.851562" y="229.90375" style="stroke: #000000; stroke-width: 1.5"/>
      </g>
     </g>
     <g id="text_7">
      <!-- 0 -->
      <g transform="translate(63.454062 235.6425) scale(0.16 -0.16)">
       <use xlink:href="#Helvetica-30"/>
      </g>
     </g>
    </g>
    <g id="ytick_2">
     <g id="line2d_8">
      <path d="M 80.851562 180.584962 
L 391.171562 180.584962 
" clip-path="url(#pb37013a229)" style="fill: none; stroke: #bfbfbf; stroke-width: 1.5; stroke-linecap: square"/>
     </g>
     <g id="line2d_9">
      <g>
       <use xlink:href="#m99aba46a55" x="80.851562" y="180.584962" style="stroke: #000000; stroke-width: 1.5"/>
      </g>
     </g>
     <g id="text_8">
      <!-- 20000 -->
      <g transform="translate(27.864062 186.323712) scale(0.16 -0.16)">
       <use xlink:href="#Helvetica-32"/>
       <use xlink:href="#Helvetica-30" x="55.615234"/>
       <use xlink:href="#Helvetica-30" x="111.230469"/>
       <use xlink:href="#Helvetica-30" x="166.845703"/>
       <use xlink:href="#Helvetica-30" x="222.460938"/>
      </g>
     </g>
    </g>
    <g id="ytick_3">
     <g id="line2d_10">
      <path d="M 80.851562 131.266174 
L 391.171562 131.266174 
" clip-path="url(#pb37013a229)" style="fill: none; stroke: #bfbfbf; stroke-width: 1.5; stroke-linecap: square"/>
     </g>
     <g id="line2d_11">
      <g>
       <use xlink:href="#m99aba46a55" x="80.851562" y="131.266174" style="stroke: #000000; stroke-width: 1.5"/>
      </g>
     </g>
     <g id="text_9">
      <!-- 40000 -->
      <g transform="translate(27.864062 137.004924) scale(0.16 -0.16)">
       <use xlink:href="#Helvetica-34"/>
       <use xlink:href="#Helvetica-30" x="55.615234"/>
       <use xlink:href="#Helvetica-30" x="111.230469"/>
       <use xlink:href="#Helvetica-30" x="166.845703"/>
       <use xlink:href="#Helvetica-30" x="222.460938"/>
      </g>
     </g>
    </g>
    <g id="ytick_4">
     <g id="line2d_12">
      <path d="M 80.851562 81.947386 
L 391.171562 81.947386 
" clip-path="url(#pb37013a229)" style="fill: none; stroke: #bfbfbf; stroke-width: 1.5; stroke-linecap: square"/>
     </g>
     <g id="line2d_13">
      <g>
       <use xlink:href="#m99aba46a55" x="80.851562" y="81.947386" style="stroke: #000000; stroke-width: 1.5"/>
      </g>
     </g>
     <g id="text_10">
      <!-- 60000 -->
      <g transform="translate(27.864062 87.686136) scale(0.16 -0.16)">
       <defs>
        <path id="Helvetica-36" d="M 1872 4494 
Q 2622 4494 2917 4105 
Q 3213 3716 3213 3303 
L 2656 3303 
Q 2606 3569 2497 3719 
Q 2294 4000 1881 4000 
Q 1409 4000 1131 3564 
Q 853 3128 822 2316 
Q 1016 2600 1309 2741 
Q 1578 2866 1909 2866 
Q 2472 2866 2890 2506 
Q 3309 2147 3309 1434 
Q 3309 825 2912 354 
Q 2516 -116 1781 -116 
Q 1153 -116 697 361 
Q 241 838 241 1966 
Q 241 2800 444 3381 
Q 834 4494 1872 4494 
z
M 1831 384 
Q 2275 384 2495 682 
Q 2716 981 2716 1388 
Q 2716 1731 2519 2042 
Q 2322 2353 1803 2353 
Q 1441 2353 1167 2112 
Q 894 1872 894 1388 
Q 894 963 1142 673 
Q 1391 384 1831 384 
z
" transform="scale(0.015625)"/>
       </defs>
       <use xlink:href="#Helvetica-36"/>
       <use xlink:href="#Helvetica-30" x="55.615234"/>
       <use xlink:href="#Helvetica-30" x="111.230469"/>
       <use xlink:href="#Helvetica-30" x="166.845703"/>
       <use xlink:href="#Helvetica-30" x="222.460938"/>
      </g>
     </g>
    </g>
    <g id="ytick_5">
     <g id="line2d_14">
      <path d="M 80.851562 32.628598 
L 391.171562 32.628598 
" clip-path="url(#pb37013a229)" style="fill: none; stroke: #bfbfbf; stroke-width: 1.5; stroke-linecap: square"/>
     </g>
     <g id="line2d_15">
      <g>
       <use xlink:href="#m99aba46a55" x="80.851562" y="32.628598" style="stroke: #000000; stroke-width: 1.5"/>
      </g>
     </g>
     <g id="text_11">
      <!-- 80000 -->
      <g transform="translate(27.864062 38.367348) scale(0.16 -0.16)">
       <defs>
        <path id="Helvetica-38" d="M 1741 2600 
Q 2113 2600 2322 2808 
Q 2531 3016 2531 3303 
Q 2531 3553 2331 3762 
Q 2131 3972 1722 3972 
Q 1316 3972 1134 3762 
Q 953 3553 953 3272 
Q 953 2956 1187 2778 
Q 1422 2600 1741 2600 
z
M 1775 384 
Q 2166 384 2423 595 
Q 2681 806 2681 1225 
Q 2681 1659 2415 1884 
Q 2150 2109 1734 2109 
Q 1331 2109 1076 1879 
Q 822 1650 822 1244 
Q 822 894 1055 639 
Q 1288 384 1775 384 
z
M 975 2384 
Q 741 2484 609 2619 
Q 363 2869 363 3269 
Q 363 3769 725 4128 
Q 1088 4488 1753 4488 
Q 2397 4488 2762 4148 
Q 3128 3809 3128 3356 
Q 3128 2938 2916 2678 
Q 2797 2531 2547 2391 
Q 2825 2263 2984 2097 
Q 3281 1784 3281 1284 
Q 3281 694 2884 283 
Q 2488 -128 1763 -128 
Q 1109 -128 657 226 
Q 206 581 206 1256 
Q 206 1653 400 1942 
Q 594 2231 975 2384 
z
" transform="scale(0.015625)"/>
       </defs>
       <use xlink:href="#Helvetica-38"/>
       <use xlink:href="#Helvetica-30" x="55.615234"/>
       <use xlink:href="#Helvetica-30" x="111.230469"/>
       <use xlink:href="#Helvetica-30" x="166.845703"/>
       <use xlink:href="#Helvetica-30" x="222.460938"/>
      </g>
     </g>
    </g>
    <g id="text_12">
     <!-- Counts -->
     <g transform="translate(20.112187 156.698281) rotate(-90) scale(0.18 -0.18)">
      <defs>
       <path id="Helvetica-43" d="M 2422 4716 
Q 3294 4716 3775 4256 
Q 4256 3797 4309 3213 
L 3703 3213 
Q 3600 3656 3292 3915 
Q 2984 4175 2428 4175 
Q 1750 4175 1333 3698 
Q 916 3222 916 2238 
Q 916 1431 1292 929 
Q 1669 428 2416 428 
Q 3103 428 3463 956 
Q 3653 1234 3747 1688 
L 4353 1688 
Q 4272 963 3816 472 
Q 3269 -119 2341 -119 
Q 1541 -119 997 366 
Q 281 1006 281 2344 
Q 281 3359 819 4009 
Q 1400 4716 2422 4716 
z
M 2297 4716 
L 2297 4716 
z
" transform="scale(0.015625)"/>
       <path id="Helvetica-75" d="M 975 3347 
L 975 1125 
Q 975 869 1056 706 
Q 1206 406 1616 406 
Q 2203 406 2416 931 
Q 2531 1213 2531 1703 
L 2531 3347 
L 3094 3347 
L 3094 0 
L 2563 0 
L 2569 494 
Q 2459 303 2297 172 
Q 1975 -91 1516 -91 
Q 800 -91 541 388 
Q 400 644 400 1072 
L 400 3347 
L 975 3347 
z
M 1747 3428 
L 1747 3428 
z
" transform="scale(0.015625)"/>
       <path id="Helvetica-73" d="M 747 1050 
Q 772 769 888 619 
Q 1100 347 1625 347 
Q 1938 347 2175 483 
Q 2413 619 2413 903 
Q 2413 1119 2222 1231 
Q 2100 1300 1741 1391 
L 1294 1503 
Q 866 1609 663 1741 
Q 300 1969 300 2372 
Q 300 2847 642 3140 
Q 984 3434 1563 3434 
Q 2319 3434 2653 2991 
Q 2863 2709 2856 2384 
L 2325 2384 
Q 2309 2575 2191 2731 
Q 1997 2953 1519 2953 
Q 1200 2953 1036 2831 
Q 872 2709 872 2509 
Q 872 2291 1088 2159 
Q 1213 2081 1456 2022 
L 1828 1931 
Q 2434 1784 2641 1647 
Q 2969 1431 2969 969 
Q 2969 522 2630 197 
Q 2291 -128 1597 -128 
Q 850 -128 539 211 
Q 228 550 206 1050 
L 747 1050 
z
M 1578 3428 
L 1578 3428 
z
" transform="scale(0.015625)"/>
      </defs>
      <use xlink:href="#Helvetica-43"/>
      <use xlink:href="#Helvetica-6f" x="72.216797"/>
      <use xlink:href="#Helvetica-75" x="127.832031"/>
      <use xlink:href="#Helvetica-6e" x="183.447266"/>
      <use xlink:href="#Helvetica-74" x="239.0625"/>
      <use xlink:href="#Helvetica-73" x="266.845703"/>
     </g>
    </g>
   </g>
   <g id="patch_3">
    <path d="M 94.957017 229.90375 
L 100.488568 229.90375 
L 100.488568 229.901284 
L 94.957017 229.901284 
z
" clip-path="url(#pb37013a229)" style="fill: #ff0000"/>
   </g>
   <g id="patch_4">
    <path d="M 100.488568 229.90375 
L 106.020119 229.90375 
L 106.020119 229.90375 
L 100.488568 229.90375 
z
" clip-path="url(#pb37013a229)" style="fill: #ff0000"/>
   </g>
   <g id="patch_5">
    <path d="M 106.020119 229.90375 
L 111.551669 229.90375 
L 111.551669 229.90375 
L 106.020119 229.90375 
z
" clip-path="url(#pb37013a229)" style="fill: #ff0000"/>
   </g>
   <g id="patch_6">
    <path d="M 111.551669 229.90375 
L 117.08322 229.90375 
L 117.08322 229.90375 
L 111.551669 229.90375 
z
" clip-path="url(#pb37013a229)" style="fill: #ff0000"/>
   </g>
   <g id="patch_7">
    <path d="M 117.08322 229.90375 
L 122.614771 229.90375 
L 122.614771 229.90375 
L 117.08322 229.90375 
z
" clip-path="url(#pb37013a229)" style="fill: #ff0000"/>
   </g>
   <g id="patch_8">
    <path d="M 122.614771 229.90375 
L 128.146322 229.90375 
L 128.146322 229.422892 
L 122.614771 229.422892 
z
" clip-path="url(#pb37013a229)" style="fill: #ff0000"/>
   </g>
   <g id="patch_9">
    <path d="M 128.146322 229.90375 
L 133.677873 229.90375 
L 133.677873 229.90375 
L 128.146322 229.90375 
z
" clip-path="url(#pb37013a229)" style="fill: #ff0000"/>
   </g>
   <g id="patch_10">
    <path d="M 133.677873 229.90375 
L 139.209423 229.90375 
L 139.209423 229.90375 
L 133.677873 229.90375 
z
" clip-path="url(#pb37013a229)" style="fill: #ff0000"/>
   </g>
   <g id="patch_11">
    <path d="M 139.209423 229.90375 
L 144.740974 229.90375 
L 144.740974 229.90375 
L 139.209423 229.90375 
z
" clip-path="url(#pb37013a229)" style="fill: #ff0000"/>
   </g>
   <g id="patch_12">
    <path d="M 144.740974 229.90375 
L 150.272525 229.90375 
L 150.272525 229.90375 
L 144.740974 229.90375 
z
" clip-path="url(#pb37013a229)" style="fill: #ff0000"/>
   </g>
   <g id="patch_13">
    <path d="M 150.272525 229.90375 
L 155.804076 229.90375 
L 155.804076 137.391568 
L 150.272525 137.391568 
z
" clip-path="url(#pb37013a229)" style="fill: #ff0000"/>
   </g>
   <g id="patch_14">
    <path d="M 155.804076 229.90375 
L 161.335627 229.90375 
L 161.335627 229.90375 
L 155.804076 229.90375 
z
" clip-path="url(#pb37013a229)" style="fill: #ff0000"/>
   </g>
   <g id="patch_15">
    <path d="M 161.335627 229.90375 
L 166.867177 229.90375 
L 166.867177 229.90375 
L 161.335627 229.90375 
z
" clip-path="url(#pb37013a229)" style="fill: #ff0000"/>
   </g>
   <g id="patch_16">
    <path d="M 166.867177 229.90375 
L 172.398728 229.90375 
L 172.398728 229.90375 
L 166.867177 229.90375 
z
" clip-path="url(#pb37013a229)" style="fill: #ff0000"/>
   </g>
   <g id="patch_17">
    <path d="M 172.398728 229.90375 
L 177.930279 229.90375 
L 177.930279 229.90375 
L 172.398728 229.90375 
z
" clip-path="url(#pb37013a229)" style="fill: #ff0000"/>
   </g>
   <g id="patch_18">
    <path d="M 177.930279 229.90375 
L 183.46183 229.90375 
L 183.46183 207.480963 
L 177.930279 207.480963 
z
" clip-path="url(#pb37013a229)" style="fill: #ff0000"/>
   </g>
   <g id="patch_19">
    <path d="M 183.46183 229.90375 
L 188.993381 229.90375 
L 188.993381 229.90375 
L 183.46183 229.90375 
z
" clip-path="url(#pb37013a229)" style="fill: #ff0000"/>
   </g>
   <g id="patch_20">
    <path d="M 188.993381 229.90375 
L 194.524931 229.90375 
L 194.524931 229.90375 
L 188.993381 229.90375 
z
" clip-path="url(#pb37013a229)" style="fill: #ff0000"/>
   </g>
   <g id="patch_21">
    <path d="M 194.524931 229.90375 
L 200.056482 229.90375 
L 200.056482 229.90375 
L 194.524931 229.90375 
z
" clip-path="url(#pb37013a229)" style="fill: #ff0000"/>
   </g>
   <g id="patch_22">
    <path d="M 200.056482 229.90375 
L 205.588033 229.90375 
L 205.588033 229.90375 
L 200.056482 229.90375 
z
" clip-path="url(#pb37013a229)" style="fill: #ff0000"/>
   </g>
   <g id="patch_23">
    <path d="M 205.588033 229.90375 
L 211.119584 229.90375 
L 211.119584 223.477512 
L 205.588033 223.477512 
z
" clip-path="url(#pb37013a229)" style="fill: #ff0000"/>
   </g>
   <g id="patch_24">
    <path d="M 211.119584 229.90375 
L 216.651135 229.90375 
L 216.651135 229.90375 
L 211.119584 229.90375 
z
" clip-path="url(#pb37013a229)" style="fill: #ff0000"/>
   </g>
   <g id="patch_25">
    <path d="M 216.651135 229.90375 
L 222.182685 229.90375 
L 222.182685 229.90375 
L 216.651135 229.90375 
z
" clip-path="url(#pb37013a229)" style="fill: #ff0000"/>
   </g>
   <g id="patch_26">
    <path d="M 222.182685 229.90375 
L 227.714236 229.90375 
L 227.714236 229.90375 
L 222.182685 229.90375 
z
" clip-path="url(#pb37013a229)" style="fill: #ff0000"/>
   </g>
   <g id="patch_27">
    <path d="M 227.714236 229.90375 
L 233.245787 229.90375 
L 233.245787 229.90375 
L 227.714236 229.90375 
z
" clip-path="url(#pb37013a229)" style="fill: #ff0000"/>
   </g>
   <g id="patch_28">
    <path d="M 233.245787 229.90375 
L 238.777338 229.90375 
L 238.777338 229.864295 
L 233.245787 229.864295 
z
" clip-path="url(#pb37013a229)" style="fill: #ff0000"/>
   </g>
   <g id="patch_29">
    <path d="M 238.777338 229.90375 
L 244.308889 229.90375 
L 244.308889 229.90375 
L 238.777338 229.90375 
z
" clip-path="url(#pb37013a229)" style="fill: #ff0000"/>
   </g>
   <g id="patch_30">
    <path d="M 244.308889 229.90375 
L 249.84044 229.90375 
L 249.84044 229.90375 
L 244.308889 229.90375 
z
" clip-path="url(#pb37013a229)" style="fill: #ff0000"/>
   </g>
   <g id="patch_31">
    <path d="M 249.84044 229.90375 
L 255.37199 229.90375 
L 255.37199 229.90375 
L 249.84044 229.90375 
z
" clip-path="url(#pb37013a229)" style="fill: #ff0000"/>
   </g>
   <g id="patch_32">
    <path d="M 255.37199 229.90375 
L 260.903541 229.90375 
L 260.903541 229.90375 
L 255.37199 229.90375 
z
" clip-path="url(#pb37013a229)" style="fill: #ff0000"/>
   </g>
   <g id="patch_33">
    <path d="M 260.903541 229.90375 
L 266.435092 229.90375 
L 266.435092 229.795249 
L 260.903541 229.795249 
z
" clip-path="url(#pb37013a229)" style="fill: #ff0000"/>
   </g>
   <g id="patch_34">
    <path d="M 266.435092 229.90375 
L 271.966643 229.90375 
L 271.966643 229.90375 
L 266.435092 229.90375 
z
" clip-path="url(#pb37013a229)" style="fill: #ff0000"/>
   </g>
   <g id="patch_35">
    <path d="M 271.966643 229.90375 
L 277.498194 229.90375 
L 277.498194 229.90375 
L 271.966643 229.90375 
z
" clip-path="url(#pb37013a229)" style="fill: #ff0000"/>
   </g>
   <g id="patch_36">
    <path d="M 277.498194 229.90375 
L 283.029744 229.90375 
L 283.029744 229.90375 
L 277.498194 229.90375 
z
" clip-path="url(#pb37013a229)" style="fill: #ff0000"/>
   </g>
   <g id="patch_37">
    <path d="M 283.029744 229.90375 
L 288.561295 229.90375 
L 288.561295 229.90375 
L 283.029744 229.90375 
z
" clip-path="url(#pb37013a229)" style="fill: #ff0000"/>
   </g>
   <g id="patch_38">
    <path d="M 288.561295 229.90375 
L 294.092846 229.90375 
L 294.092846 223.351749 
L 288.561295 223.351749 
z
" clip-path="url(#pb37013a229)" style="fill: #ff0000"/>
   </g>
   <g id="patch_39">
    <path d="M 294.092846 229.90375 
L 299.624397 229.90375 
L 299.624397 229.90375 
L 294.092846 229.90375 
z
" clip-path="url(#pb37013a229)" style="fill: #ff0000"/>
   </g>
   <g id="patch_40">
    <path d="M 299.624397 229.90375 
L 305.155948 229.90375 
L 305.155948 229.90375 
L 299.624397 229.90375 
z
" clip-path="url(#pb37013a229)" style="fill: #ff0000"/>
   </g>
   <g id="patch_41">
    <path d="M 305.155948 229.90375 
L 310.687498 229.90375 
L 310.687498 229.90375 
L 305.155948 229.90375 
z
" clip-path="url(#pb37013a229)" style="fill: #ff0000"/>
   </g>
   <g id="patch_42">
    <path d="M 310.687498 229.90375 
L 316.219049 229.90375 
L 316.219049 229.90375 
L 310.687498 229.90375 
z
" clip-path="url(#pb37013a229)" style="fill: #ff0000"/>
   </g>
   <g id="patch_43">
    <path d="M 316.219049 229.90375 
L 321.7506 229.90375 
L 321.7506 208.307053 
L 316.219049 208.307053 
z
" clip-path="url(#pb37013a229)" style="fill: #ff0000"/>
   </g>
   <g id="patch_44">
    <path d="M 321.7506 229.90375 
L 327.282151 229.90375 
L 327.282151 229.90375 
L 321.7506 229.90375 
z
" clip-path="url(#pb37013a229)" style="fill: #ff0000"/>
   </g>
   <g id="patch_45">
    <path d="M 327.282151 229.90375 
L 332.813702 229.90375 
L 332.813702 229.90375 
L 327.282151 229.90375 
z
" clip-path="url(#pb37013a229)" style="fill: #ff0000"/>
   </g>
   <g id="patch_46">
    <path d="M 332.813702 229.90375 
L 338.345252 229.90375 
L 338.345252 229.90375 
L 332.813702 229.90375 
z
" clip-path="url(#pb37013a229)" style="fill: #ff0000"/>
   </g>
   <g id="patch_47">
    <path d="M 338.345252 229.90375 
L 343.876803 229.90375 
L 343.876803 229.90375 
L 338.345252 229.90375 
z
" clip-path="url(#pb37013a229)" style="fill: #ff0000"/>
   </g>
   <g id="patch_48">
    <path d="M 343.876803 229.90375 
L 349.408354 229.90375 
L 349.408354 133.939253 
L 343.876803 133.939253 
z
" clip-path="url(#pb37013a229)" style="fill: #ff0000"/>
   </g>
   <g id="patch_49">
    <path d="M 349.408354 229.90375 
L 354.939905 229.90375 
L 354.939905 229.90375 
L 349.408354 229.90375 
z
" clip-path="url(#pb37013a229)" style="fill: #ff0000"/>
   </g>
   <g id="patch_50">
    <path d="M 354.939905 229.90375 
L 360.471456 229.90375 
L 360.471456 229.90375 
L 354.939905 229.90375 
z
" clip-path="url(#pb37013a229)" style="fill: #ff0000"/>
   </g>
   <g id="patch_51">
    <path d="M 360.471456 229.90375 
L 366.003006 229.90375 
L 366.003006 229.90375 
L 360.471456 229.90375 
z
" clip-path="url(#pb37013a229)" style="fill: #ff0000"/>
   </g>
   <g id="patch_52">
    <path d="M 366.003006 229.90375 
L 371.534557 229.90375 
L 371.534557 229.90375 
L 366.003006 229.90375 
z
" clip-path="url(#pb37013a229)" style="fill: #ff0000"/>
   </g>
   <g id="patch_53">
    <path d="M 371.534557 229.90375 
L 377.066108 229.90375 
L 377.066108 229.413028 
L 371.534557 229.413028 
z
" clip-path="url(#pb37013a229)" style="fill: #ff0000"/>
   </g>
   <g id="patch_54">
    <path d="M 80.851562 229.90375 
L 80.851562 26.46375 
" style="fill: none; stroke: #000000; stroke-width: 1.5; stroke-linejoin: miter; stroke-linecap: square"/>
   </g>
   <g id="patch_55">
    <path d="M 391.171562 229.90375 
L 391.171562 26.46375 
" style="fill: none; stroke: #000000; stroke-width: 1.5; stroke-linejoin: miter; stroke-linecap: square"/>
   </g>
   <g id="patch_56">
    <path d="M 80.851562 229.90375 
L 391.171563 229.90375 
" style="fill: none; stroke: #000000; stroke-width: 1.5; stroke-linejoin: miter; stroke-linecap: square"/>
   </g>
   <g id="patch_57">
    <path d="M 80.851562 26.46375 
L 391.171563 26.46375 
" style="fill: none; stroke: #000000; stroke-width: 1.5; stroke-linejoin: miter; stroke-linecap: square"/>
   </g>
   <g id="text_13">
    <!-- (i) QAOA+MADE (optimized) -->
    <g transform="translate(121.241875 20.46375) scale(0.18 -0.18)">
     <defs>
      <path id="Helvetica-28" d="M 1894 4666 
Q 1403 3713 1256 3263 
Q 1034 2578 1034 1681 
Q 1034 775 1288 25 
Q 1444 -438 1903 -1306 
L 1525 -1306 
Q 1069 -594 959 -397 
Q 850 -200 722 138 
Q 547 600 478 1125 
Q 444 1397 444 1644 
Q 444 2569 734 3291 
Q 919 3750 1503 4666 
L 1894 4666 
z
" transform="scale(0.015625)"/>
      <path id="Helvetica-29" d="M 222 -1306 
Q 719 -338 863 106 
Q 1081 778 1081 1681 
Q 1081 2584 828 3334 
Q 672 3797 213 4666 
L 591 4666 
Q 1072 3897 1173 3717 
Q 1275 3538 1394 3222 
Q 1544 2831 1608 2450 
Q 1672 2069 1672 1716 
Q 1672 791 1378 66 
Q 1194 -400 613 -1306 
L 222 -1306 
z
" transform="scale(0.015625)"/>
      <path id="Helvetica-20" transform="scale(0.015625)"/>
      <path id="Helvetica-51" d="M 4688 13 
L 4375 -366 
L 3666 175 
Q 3409 34 3111 -50 
Q 2813 -134 2459 -134 
Q 1391 -134 784 566 
Q 250 1247 250 2272 
Q 250 3203 713 3866 
Q 1306 4716 2469 4716 
Q 3684 4716 4269 3934 
Q 4725 3325 4725 2375 
Q 4725 1931 4616 1522 
Q 4450 897 4056 503 
L 4688 13 
z
M 2534 422 
Q 2728 422 2897 448 
Q 3066 475 3191 553 
L 2688 947 
L 3000 1331 
L 3600 866 
Q 3884 1191 3986 1594 
Q 4088 1997 4088 2366 
Q 4088 3175 3664 3669 
Q 3241 4163 2506 4163 
Q 1763 4163 1328 3689 
Q 894 3216 894 2231 
Q 894 1403 1311 912 
Q 1728 422 2534 422 
z
" transform="scale(0.015625)"/>
      <path id="Helvetica-41" d="M 2844 1881 
L 2147 3909 
L 1406 1881 
L 2844 1881 
z
M 1822 4591 
L 2525 4591 
L 4191 0 
L 3509 0 
L 3044 1375 
L 1228 1375 
L 731 0 
L 94 0 
L 1822 4591 
z
" transform="scale(0.015625)"/>
      <path id="Helvetica-4f" d="M 2469 4716 
Q 3684 4716 4269 3934 
Q 4725 3325 4725 2375 
Q 4725 1347 4203 666 
Q 3591 -134 2456 -134 
Q 1397 -134 791 566 
Q 250 1241 250 2272 
Q 250 3203 713 3866 
Q 1306 4716 2469 4716 
z
M 2531 422 
Q 3353 422 3720 1011 
Q 4088 1600 4088 2366 
Q 4088 3175 3664 3669 
Q 3241 4163 2506 4163 
Q 1794 4163 1344 3673 
Q 894 3184 894 2231 
Q 894 1469 1280 945 
Q 1666 422 2531 422 
z
M 2488 4716 
L 2488 4716 
z
" transform="scale(0.015625)"/>
      <path id="Helvetica-2b" d="M 288 1369 
L 288 1894 
L 1650 1894 
L 1650 3266 
L 2184 3266 
L 2184 1894 
L 3547 1894 
L 3547 1369 
L 2184 1369 
L 2184 0 
L 1650 0 
L 1650 1369 
L 288 1369 
z
" transform="scale(0.015625)"/>
      <path id="Helvetica-44" d="M 2250 531 
Q 2566 531 2769 597 
Q 3131 719 3363 1066 
Q 3547 1344 3628 1778 
Q 3675 2038 3675 2259 
Q 3675 3113 3336 3584 
Q 2997 4056 2244 4056 
L 1141 4056 
L 1141 531 
L 2250 531 
z
M 516 4591 
L 2375 4591 
Q 3322 4591 3844 3919 
Q 4309 3313 4309 2366 
Q 4309 1634 4034 1044 
Q 3550 0 2369 0 
L 516 0 
L 516 4591 
z
" transform="scale(0.015625)"/>
      <path id="Helvetica-45" d="M 547 4591 
L 3894 4591 
L 3894 4028 
L 1153 4028 
L 1153 2634 
L 3688 2634 
L 3688 2103 
L 1153 2103 
L 1153 547 
L 3941 547 
L 3941 0 
L 547 0 
L 547 4591 
z
M 2244 4591 
L 2244 4591 
z
" transform="scale(0.015625)"/>
      <path id="Helvetica-70" d="M 1825 378 
Q 2219 378 2480 708 
Q 2741 1038 2741 1694 
Q 2741 2094 2625 2381 
Q 2406 2934 1825 2934 
Q 1241 2934 1025 2350 
Q 909 2038 909 1556 
Q 909 1169 1025 897 
Q 1244 378 1825 378 
z
M 369 3331 
L 916 3331 
L 916 2888 
Q 1084 3116 1284 3241 
Q 1569 3428 1953 3428 
Q 2522 3428 2919 2992 
Q 3316 2556 3316 1747 
Q 3316 653 2744 184 
Q 2381 -113 1900 -113 
Q 1522 -113 1266 53 
Q 1116 147 931 375 
L 931 -1334 
L 369 -1334 
L 369 3331 
z
" transform="scale(0.015625)"/>
      <path id="Helvetica-6d" d="M 413 3347 
L 969 3347 
L 969 2872 
Q 1169 3119 1331 3231 
Q 1609 3422 1963 3422 
Q 2363 3422 2606 3225 
Q 2744 3113 2856 2894 
Q 3044 3163 3297 3292 
Q 3550 3422 3866 3422 
Q 4541 3422 4784 2934 
Q 4916 2672 4916 2228 
L 4916 0 
L 4331 0 
L 4331 2325 
Q 4331 2659 4164 2784 
Q 3997 2909 3756 2909 
Q 3425 2909 3186 2687 
Q 2947 2466 2947 1947 
L 2947 0 
L 2375 0 
L 2375 2184 
Q 2375 2525 2294 2681 
Q 2166 2916 1816 2916 
Q 1497 2916 1236 2669 
Q 975 2422 975 1775 
L 975 0 
L 413 0 
L 413 3347 
z
" transform="scale(0.015625)"/>
      <path id="Helvetica-64" d="M 769 1634 
Q 769 1097 997 734 
Q 1225 372 1728 372 
Q 2119 372 2370 708 
Q 2622 1044 2622 1672 
Q 2622 2306 2362 2611 
Q 2103 2916 1722 2916 
Q 1297 2916 1033 2591 
Q 769 2266 769 1634 
z
M 1616 3406 
Q 2000 3406 2259 3244 
Q 2409 3150 2600 2916 
L 2600 4606 
L 3141 4606 
L 3141 0 
L 2634 0 
L 2634 466 
Q 2438 156 2169 18 
Q 1900 -119 1553 -119 
Q 994 -119 584 351 
Q 175 822 175 1603 
Q 175 2334 548 2870 
Q 922 3406 1616 3406 
z
" transform="scale(0.015625)"/>
     </defs>
     <use xlink:href="#Helvetica-28"/>
     <use xlink:href="#Helvetica-69" x="33.300781"/>
     <use xlink:href="#Helvetica-29" x="55.517578"/>
     <use xlink:href="#Helvetica-20" x="88.818359"/>
     <use xlink:href="#Helvetica-51" x="116.601562"/>
     <use xlink:href="#Helvetica-41" x="194.384766"/>
     <use xlink:href="#Helvetica-4f" x="261.083984"/>
     <use xlink:href="#Helvetica-41" x="338.867188"/>
     <use xlink:href="#Helvetica-2b" x="405.566406"/>
     <use xlink:href="#Helvetica-4d" x="463.964844"/>
     <use xlink:href="#Helvetica-41" x="547.265625"/>
     <use xlink:href="#Helvetica-44" x="613.964844"/>
     <use xlink:href="#Helvetica-45" x="686.181641"/>
     <use xlink:href="#Helvetica-20" x="752.880859"/>
     <use xlink:href="#Helvetica-28" x="780.664062"/>
     <use xlink:href="#Helvetica-6f" x="813.964844"/>
     <use xlink:href="#Helvetica-70" x="869.580078"/>
     <use xlink:href="#Helvetica-74" x="925.195312"/>
     <use xlink:href="#Helvetica-69" x="952.978516"/>
     <use xlink:href="#Helvetica-6d" x="975.195312"/>
     <use xlink:href="#Helvetica-69" x="1058.496094"/>
     <use xlink:href="#Helvetica-7a" x="1080.712891"/>
     <use xlink:href="#Helvetica-65" x="1130.712891"/>
     <use xlink:href="#Helvetica-64" x="1186.328125"/>
     <use xlink:href="#Helvetica-29" x="1241.943359"/>
    </g>
   </g>
  </g>
  <g id="axes_2">
   <g id="patch_58">
    <path d="M 418.086563 229.90375 
L 728.406563 229.90375 
L 728.406563 26.46375 
L 418.086563 26.46375 
z
" style="fill: #ffffff"/>
   </g>
   <g id="matplotlib.axis_3">
    <g id="xtick_6">
     <g id="line2d_16">
      <g>
       <use xlink:href="#m5e13770c3d" x="494.882926" y="229.90375" style="stroke: #000000; stroke-width: 1.5"/>
      </g>
     </g>
     <g id="text_14">
      <!-- −0.2 -->
      <g transform="translate(479.090426 249.88125) scale(0.16 -0.16)">
       <use xlink:href="#Helvetica-2212"/>
       <use xlink:href="#Helvetica-30" x="58.398438"/>
       <use xlink:href="#Helvetica-2e" x="114.013672"/>
       <use xlink:href="#Helvetica-32" x="141.796875"/>
      </g>
     </g>
    </g>
    <g id="xtick_7">
     <g id="line2d_17">
      <g>
       <use xlink:href="#m5e13770c3d" x="573.246562" y="229.90375" style="stroke: #000000; stroke-width: 1.5"/>
      </g>
     </g>
     <g id="text_15">
      <!-- 0.0 -->
      <g transform="translate(562.126562 249.88125) scale(0.16 -0.16)">
       <use xlink:href="#Helvetica-30"/>
       <use xlink:href="#Helvetica-2e" x="55.615234"/>
       <use xlink:href="#Helvetica-30" x="83.398438"/>
      </g>
     </g>
    </g>
    <g id="xtick_8">
     <g id="line2d_18">
      <g>
       <use xlink:href="#m5e13770c3d" x="651.610199" y="229.90375" style="stroke: #000000; stroke-width: 1.5"/>
      </g>
     </g>
     <g id="text_16">
      <!-- 0.2 -->
      <g transform="translate(640.490199 249.88125) scale(0.16 -0.16)">
       <use xlink:href="#Helvetica-30"/>
       <use xlink:href="#Helvetica-2e" x="55.615234"/>
       <use xlink:href="#Helvetica-32" x="83.398438"/>
      </g>
     </g>
    </g>
    <g id="text_17">
     <!-- Magnetization -->
     <g transform="translate(517.215937 270.128438) scale(0.18 -0.18)">
      <use xlink:href="#Helvetica-4d"/>
      <use xlink:href="#Helvetica-61" x="83.300781"/>
      <use xlink:href="#Helvetica-67" x="138.916016"/>
      <use xlink:href="#Helvetica-6e" x="194.53125"/>
      <use xlink:href="#Helvetica-65" x="250.146484"/>
      <use xlink:href="#Helvetica-74" x="305.761719"/>
      <use xlink:href="#Helvetica-69" x="333.544922"/>
      <use xlink:href="#Helvetica-7a" x="355.761719"/>
      <use xlink:href="#Helvetica-61" x="405.761719"/>
      <use xlink:href="#Helvetica-74" x="461.376953"/>
      <use xlink:href="#Helvetica-69" x="489.160156"/>
      <use xlink:href="#Helvetica-6f" x="511.376953"/>
      <use xlink:href="#Helvetica-6e" x="566.992188"/>
     </g>
    </g>
   </g>
   <g id="matplotlib.axis_4">
    <g id="ytick_6">
     <g id="line2d_19">
      <path d="M 418.086563 229.90375 
L 728.406563 229.90375 
" clip-path="url(#peec2c27a78)" style="fill: none; stroke: #bfbfbf; stroke-width: 1.5; stroke-linecap: square"/>
     </g>
     <g id="line2d_20">
      <defs>
       <path id="m64b5955266" d="M 0 0 
L -5 0 
"/>
      </defs>
      <g>
       <use xlink:href="#m64b5955266" x="418.086563" y="229.90375"/>
      </g>
     </g>
    </g>
    <g id="ytick_7">
     <g id="line2d_21">
      <path d="M 418.086563 180.584962 
L 728.406563 180.584962 
" clip-path="url(#peec2c27a78)" style="fill: none; stroke: #bfbfbf; stroke-width: 1.5; stroke-linecap: square"/>
     </g>
     <g id="line2d_22">
      <g>
       <use xlink:href="#m64b5955266" x="418.086563" y="180.584962"/>
      </g>
     </g>
    </g>
    <g id="ytick_8">
     <g id="line2d_23">
      <path d="M 418.086563 131.266174 
L 728.406563 131.266174 
" clip-path="url(#peec2c27a78)" style="fill: none; stroke: #bfbfbf; stroke-width: 1.5; stroke-linecap: square"/>
     </g>
     <g id="line2d_24">
      <g>
       <use xlink:href="#m64b5955266" x="418.086563" y="131.266174"/>
      </g>
     </g>
    </g>
    <g id="ytick_9">
     <g id="line2d_25">
      <path d="M 418.086563 81.947386 
L 728.406563 81.947386 
" clip-path="url(#peec2c27a78)" style="fill: none; stroke: #bfbfbf; stroke-width: 1.5; stroke-linecap: square"/>
     </g>
     <g id="line2d_26">
      <g>
       <use xlink:href="#m64b5955266" x="418.086563" y="81.947386"/>
      </g>
     </g>
    </g>
    <g id="ytick_10">
     <g id="line2d_27">
      <path d="M 418.086563 32.628598 
L 728.406563 32.628598 
" clip-path="url(#peec2c27a78)" style="fill: none; stroke: #bfbfbf; stroke-width: 1.5; stroke-linecap: square"/>
     </g>
     <g id="line2d_28">
      <g>
       <use xlink:href="#m64b5955266" x="418.086563" y="32.628598"/>
      </g>
     </g>
    </g>
   </g>
   <g id="patch_59">
    <path d="M 432.192017 229.90375 
L 437.723568 229.90375 
L 437.723568 229.777987 
L 432.192017 229.777987 
z
" clip-path="url(#peec2c27a78)" style="fill: #ffa500"/>
   </g>
   <g id="patch_60">
    <path d="M 437.723568 229.90375 
L 443.255119 229.90375 
L 443.255119 229.90375 
L 437.723568 229.90375 
z
" clip-path="url(#peec2c27a78)" style="fill: #ffa500"/>
   </g>
   <g id="patch_61">
    <path d="M 443.255119 229.90375 
L 448.786669 229.90375 
L 448.786669 229.90375 
L 443.255119 229.90375 
z
" clip-path="url(#peec2c27a78)" style="fill: #ffa500"/>
   </g>
   <g id="patch_62">
    <path d="M 448.786669 229.90375 
L 454.31822 229.90375 
L 454.31822 229.90375 
L 448.786669 229.90375 
z
" clip-path="url(#peec2c27a78)" style="fill: #ffa500"/>
   </g>
   <g id="patch_63">
    <path d="M 454.31822 229.90375 
L 459.849771 229.90375 
L 459.849771 229.90375 
L 454.31822 229.90375 
z
" clip-path="url(#peec2c27a78)" style="fill: #ffa500"/>
   </g>
   <g id="patch_64">
    <path d="M 459.849771 229.90375 
L 465.381322 229.90375 
L 465.381322 131.239049 
L 459.849771 131.239049 
z
" clip-path="url(#peec2c27a78)" style="fill: #ffa500"/>
   </g>
   <g id="patch_65">
    <path d="M 465.381322 229.90375 
L 470.912873 229.90375 
L 470.912873 229.90375 
L 465.381322 229.90375 
z
" clip-path="url(#peec2c27a78)" style="fill: #ffa500"/>
   </g>
   <g id="patch_66">
    <path d="M 470.912873 229.90375 
L 476.444423 229.90375 
L 476.444423 229.90375 
L 470.912873 229.90375 
z
" clip-path="url(#peec2c27a78)" style="fill: #ffa500"/>
   </g>
   <g id="patch_67">
    <path d="M 476.444423 229.90375 
L 481.975974 229.90375 
L 481.975974 229.90375 
L 476.444423 229.90375 
z
" clip-path="url(#peec2c27a78)" style="fill: #ffa500"/>
   </g>
   <g id="patch_68">
    <path d="M 481.975974 229.90375 
L 487.507525 229.90375 
L 487.507525 229.90375 
L 481.975974 229.90375 
z
" clip-path="url(#peec2c27a78)" style="fill: #ffa500"/>
   </g>
   <g id="patch_69">
    <path d="M 487.507525 229.90375 
L 493.039076 229.90375 
L 493.039076 229.90375 
L 487.507525 229.90375 
z
" clip-path="url(#peec2c27a78)" style="fill: #ffa500"/>
   </g>
   <g id="patch_70">
    <path d="M 493.039076 229.90375 
L 498.570627 229.90375 
L 498.570627 200.85745 
L 493.039076 200.85745 
z
" clip-path="url(#peec2c27a78)" style="fill: #ffa500"/>
   </g>
   <g id="patch_71">
    <path d="M 498.570627 229.90375 
L 504.102177 229.90375 
L 504.102177 229.90375 
L 498.570627 229.90375 
z
" clip-path="url(#peec2c27a78)" style="fill: #ffa500"/>
   </g>
   <g id="patch_72">
    <path d="M 504.102177 229.90375 
L 509.633728 229.90375 
L 509.633728 229.90375 
L 504.102177 229.90375 
z
" clip-path="url(#peec2c27a78)" style="fill: #ffa500"/>
   </g>
   <g id="patch_73">
    <path d="M 509.633728 229.90375 
L 515.165279 229.90375 
L 515.165279 229.90375 
L 509.633728 229.90375 
z
" clip-path="url(#peec2c27a78)" style="fill: #ffa500"/>
   </g>
   <g id="patch_74">
    <path d="M 515.165279 229.90375 
L 520.69683 229.90375 
L 520.69683 229.90375 
L 515.165279 229.90375 
z
" clip-path="url(#peec2c27a78)" style="fill: #ffa500"/>
   </g>
   <g id="patch_75">
    <path d="M 520.69683 229.90375 
L 526.228381 229.90375 
L 526.228381 229.90375 
L 520.69683 229.90375 
z
" clip-path="url(#peec2c27a78)" style="fill: #ffa500"/>
   </g>
   <g id="patch_76">
    <path d="M 526.228381 229.90375 
L 531.759931 229.90375 
L 531.759931 222.75006 
L 526.228381 222.75006 
z
" clip-path="url(#peec2c27a78)" style="fill: #ffa500"/>
   </g>
   <g id="patch_77">
    <path d="M 531.759931 229.90375 
L 537.291482 229.90375 
L 537.291482 229.90375 
L 531.759931 229.90375 
z
" clip-path="url(#peec2c27a78)" style="fill: #ffa500"/>
   </g>
   <g id="patch_78">
    <path d="M 537.291482 229.90375 
L 542.823033 229.90375 
L 542.823033 229.90375 
L 537.291482 229.90375 
z
" clip-path="url(#peec2c27a78)" style="fill: #ffa500"/>
   </g>
   <g id="patch_79">
    <path d="M 542.823033 229.90375 
L 548.354584 229.90375 
L 548.354584 229.90375 
L 542.823033 229.90375 
z
" clip-path="url(#peec2c27a78)" style="fill: #ffa500"/>
   </g>
   <g id="patch_80">
    <path d="M 548.354584 229.90375 
L 553.886135 229.90375 
L 553.886135 229.90375 
L 548.354584 229.90375 
z
" clip-path="url(#peec2c27a78)" style="fill: #ffa500"/>
   </g>
   <g id="patch_81">
    <path d="M 553.886135 229.90375 
L 559.417685 229.90375 
L 559.417685 229.819908 
L 553.886135 229.819908 
z
" clip-path="url(#peec2c27a78)" style="fill: #ffa500"/>
   </g>
   <g id="patch_82">
    <path d="M 559.417685 229.90375 
L 564.949236 229.90375 
L 564.949236 229.90375 
L 559.417685 229.90375 
z
" clip-path="url(#peec2c27a78)" style="fill: #ffa500"/>
   </g>
   <g id="patch_83">
    <path d="M 564.949236 229.90375 
L 570.480787 229.90375 
L 570.480787 229.90375 
L 564.949236 229.90375 
z
" clip-path="url(#peec2c27a78)" style="fill: #ffa500"/>
   </g>
   <g id="patch_84">
    <path d="M 570.480787 229.90375 
L 576.012338 229.90375 
L 576.012338 229.90375 
L 570.480787 229.90375 
z
" clip-path="url(#peec2c27a78)" style="fill: #ffa500"/>
   </g>
   <g id="patch_85">
    <path d="M 576.012338 229.90375 
L 581.543889 229.90375 
L 581.543889 229.90375 
L 576.012338 229.90375 
z
" clip-path="url(#peec2c27a78)" style="fill: #ffa500"/>
   </g>
   <g id="patch_86">
    <path d="M 581.543889 229.90375 
L 587.07544 229.90375 
L 587.07544 229.90375 
L 581.543889 229.90375 
z
" clip-path="url(#peec2c27a78)" style="fill: #ffa500"/>
   </g>
   <g id="patch_87">
    <path d="M 587.07544 229.90375 
L 592.60699 229.90375 
L 592.60699 229.864295 
L 587.07544 229.864295 
z
" clip-path="url(#peec2c27a78)" style="fill: #ffa500"/>
   </g>
   <g id="patch_88">
    <path d="M 592.60699 229.90375 
L 598.138541 229.90375 
L 598.138541 229.90375 
L 592.60699 229.90375 
z
" clip-path="url(#peec2c27a78)" style="fill: #ffa500"/>
   </g>
   <g id="patch_89">
    <path d="M 598.138541 229.90375 
L 603.670092 229.90375 
L 603.670092 229.90375 
L 598.138541 229.90375 
z
" clip-path="url(#peec2c27a78)" style="fill: #ffa500"/>
   </g>
   <g id="patch_90">
    <path d="M 603.670092 229.90375 
L 609.201643 229.90375 
L 609.201643 229.90375 
L 603.670092 229.90375 
z
" clip-path="url(#peec2c27a78)" style="fill: #ffa500"/>
   </g>
   <g id="patch_91">
    <path d="M 609.201643 229.90375 
L 614.733194 229.90375 
L 614.733194 229.90375 
L 609.201643 229.90375 
z
" clip-path="url(#peec2c27a78)" style="fill: #ffa500"/>
   </g>
   <g id="patch_92">
    <path d="M 614.733194 229.90375 
L 620.264744 229.90375 
L 620.264744 229.90375 
L 614.733194 229.90375 
z
" clip-path="url(#peec2c27a78)" style="fill: #ffa500"/>
   </g>
   <g id="patch_93">
    <path d="M 620.264744 229.90375 
L 625.796295 229.90375 
L 625.796295 221.899311 
L 620.264744 221.899311 
z
" clip-path="url(#peec2c27a78)" style="fill: #ffa500"/>
   </g>
   <g id="patch_94">
    <path d="M 625.796295 229.90375 
L 631.327846 229.90375 
L 631.327846 229.90375 
L 625.796295 229.90375 
z
" clip-path="url(#peec2c27a78)" style="fill: #ffa500"/>
   </g>
   <g id="patch_95">
    <path d="M 631.327846 229.90375 
L 636.859397 229.90375 
L 636.859397 229.90375 
L 631.327846 229.90375 
z
" clip-path="url(#peec2c27a78)" style="fill: #ffa500"/>
   </g>
   <g id="patch_96">
    <path d="M 636.859397 229.90375 
L 642.390948 229.90375 
L 642.390948 229.90375 
L 636.859397 229.90375 
z
" clip-path="url(#peec2c27a78)" style="fill: #ffa500"/>
   </g>
   <g id="patch_97">
    <path d="M 642.390948 229.90375 
L 647.922498 229.90375 
L 647.922498 229.90375 
L 642.390948 229.90375 
z
" clip-path="url(#peec2c27a78)" style="fill: #ffa500"/>
   </g>
   <g id="patch_98">
    <path d="M 647.922498 229.90375 
L 653.454049 229.90375 
L 653.454049 207.466167 
L 647.922498 207.466167 
z
" clip-path="url(#peec2c27a78)" style="fill: #ffa500"/>
   </g>
   <g id="patch_99">
    <path d="M 653.454049 229.90375 
L 658.9856 229.90375 
L 658.9856 229.90375 
L 653.454049 229.90375 
z
" clip-path="url(#peec2c27a78)" style="fill: #ffa500"/>
   </g>
   <g id="patch_100">
    <path d="M 658.9856 229.90375 
L 664.517151 229.90375 
L 664.517151 229.90375 
L 658.9856 229.90375 
z
" clip-path="url(#peec2c27a78)" style="fill: #ffa500"/>
   </g>
   <g id="patch_101">
    <path d="M 664.517151 229.90375 
L 670.048702 229.90375 
L 670.048702 229.90375 
L 664.517151 229.90375 
z
" clip-path="url(#peec2c27a78)" style="fill: #ffa500"/>
   </g>
   <g id="patch_102">
    <path d="M 670.048702 229.90375 
L 675.580252 229.90375 
L 675.580252 229.90375 
L 670.048702 229.90375 
z
" clip-path="url(#peec2c27a78)" style="fill: #ffa500"/>
   </g>
   <g id="patch_103">
    <path d="M 675.580252 229.90375 
L 681.111803 229.90375 
L 681.111803 229.90375 
L 675.580252 229.90375 
z
" clip-path="url(#peec2c27a78)" style="fill: #ffa500"/>
   </g>
   <g id="patch_104">
    <path d="M 681.111803 229.90375 
L 686.643354 229.90375 
L 686.643354 149.213281 
L 681.111803 149.213281 
z
" clip-path="url(#peec2c27a78)" style="fill: #ffa500"/>
   </g>
   <g id="patch_105">
    <path d="M 686.643354 229.90375 
L 692.174905 229.90375 
L 692.174905 229.90375 
L 686.643354 229.90375 
z
" clip-path="url(#peec2c27a78)" style="fill: #ffa500"/>
   </g>
   <g id="patch_106">
    <path d="M 692.174905 229.90375 
L 697.706456 229.90375 
L 697.706456 229.90375 
L 692.174905 229.90375 
z
" clip-path="url(#peec2c27a78)" style="fill: #ffa500"/>
   </g>
   <g id="patch_107">
    <path d="M 697.706456 229.90375 
L 703.238006 229.90375 
L 703.238006 229.90375 
L 697.706456 229.90375 
z
" clip-path="url(#peec2c27a78)" style="fill: #ffa500"/>
   </g>
   <g id="patch_108">
    <path d="M 703.238006 229.90375 
L 708.769557 229.90375 
L 708.769557 229.90375 
L 703.238006 229.90375 
z
" clip-path="url(#peec2c27a78)" style="fill: #ffa500"/>
   </g>
   <g id="patch_109">
    <path d="M 708.769557 229.90375 
L 714.301108 229.90375 
L 714.301108 229.553587 
L 708.769557 229.553587 
z
" clip-path="url(#peec2c27a78)" style="fill: #ffa500"/>
   </g>
   <g id="patch_110">
    <path d="M 418.086563 229.90375 
L 418.086563 26.46375 
" style="fill: none; stroke: #000000; stroke-width: 1.5; stroke-linejoin: miter; stroke-linecap: square"/>
   </g>
   <g id="patch_111">
    <path d="M 728.406563 229.90375 
L 728.406563 26.46375 
" style="fill: none; stroke: #000000; stroke-width: 1.5; stroke-linejoin: miter; stroke-linecap: square"/>
   </g>
   <g id="patch_112">
    <path d="M 418.086562 229.90375 
L 728.406563 229.90375 
" style="fill: none; stroke: #000000; stroke-width: 1.5; stroke-linejoin: miter; stroke-linecap: square"/>
   </g>
   <g id="patch_113">
    <path d="M 418.086562 26.46375 
L 728.406563 26.46375 
" style="fill: none; stroke: #000000; stroke-width: 1.5; stroke-linejoin: miter; stroke-linecap: square"/>
   </g>
   <g id="text_18">
    <!-- (ii) QAOA+MADE (fixed angle) -->
    <g transform="translate(451.463906 20.46375) scale(0.18 -0.18)">
     <defs>
      <path id="Helvetica-66" d="M 553 3856 
Q 566 4206 675 4369 
Q 872 4656 1434 4656 
Q 1488 4656 1544 4653 
Q 1600 4650 1672 4644 
L 1672 4131 
Q 1584 4138 1545 4139 
Q 1506 4141 1472 4141 
Q 1216 4141 1166 4008 
Q 1116 3875 1116 3331 
L 1672 3331 
L 1672 2888 
L 1109 2888 
L 1109 0 
L 553 0 
L 553 2888 
L 88 2888 
L 88 3331 
L 553 3331 
L 553 3856 
z
" transform="scale(0.015625)"/>
      <path id="Helvetica-78" d="M 94 3347 
L 822 3347 
L 1591 2169 
L 2369 3347 
L 3053 3331 
L 1925 1716 
L 3103 0 
L 2384 0 
L 1553 1256 
L 747 0 
L 34 0 
L 1213 1716 
L 94 3347 
z
" transform="scale(0.015625)"/>
      <path id="Helvetica-6c" d="M 428 4591 
L 991 4591 
L 991 0 
L 428 0 
L 428 4591 
z
" transform="scale(0.015625)"/>
     </defs>
     <use xlink:href="#Helvetica-28"/>
     <use xlink:href="#Helvetica-69" x="33.300781"/>
     <use xlink:href="#Helvetica-69" x="55.517578"/>
     <use xlink:href="#Helvetica-29" x="77.734375"/>
     <use xlink:href="#Helvetica-20" x="111.035156"/>
     <use xlink:href="#Helvetica-51" x="138.818359"/>
     <use xlink:href="#Helvetica-41" x="216.601562"/>
     <use xlink:href="#Helvetica-4f" x="283.300781"/>
     <use xlink:href="#Helvetica-41" x="361.083984"/>
     <use xlink:href="#Helvetica-2b" x="427.783203"/>
     <use xlink:href="#Helvetica-4d" x="486.181641"/>
     <use xlink:href="#Helvetica-41" x="569.482422"/>
     <use xlink:href="#Helvetica-44" x="636.181641"/>
     <use xlink:href="#Helvetica-45" x="708.398438"/>
     <use xlink:href="#Helvetica-20" x="775.097656"/>
     <use xlink:href="#Helvetica-28" x="802.880859"/>
     <use xlink:href="#Helvetica-66" x="836.181641"/>
     <use xlink:href="#Helvetica-69" x="863.964844"/>
     <use xlink:href="#Helvetica-78" x="886.181641"/>
     <use xlink:href="#Helvetica-65" x="936.181641"/>
     <use xlink:href="#Helvetica-64" x="991.796875"/>
     <use xlink:href="#Helvetica-20" x="1047.412109"/>
     <use xlink:href="#Helvetica-61" x="1075.195312"/>
     <use xlink:href="#Helvetica-6e" x="1130.810547"/>
     <use xlink:href="#Helvetica-67" x="1186.425781"/>
     <use xlink:href="#Helvetica-6c" x="1242.041016"/>
     <use xlink:href="#Helvetica-65" x="1264.257812"/>
     <use xlink:href="#Helvetica-29" x="1319.873047"/>
    </g>
   </g>
  </g>
  <g id="axes_3">
   <g id="patch_114">
    <path d="M 755.321563 229.90375 
L 1065.641562 229.90375 
L 1065.641562 26.46375 
L 755.321563 26.46375 
z
" style="fill: #ffffff"/>
   </g>
   <g id="matplotlib.axis_5">
    <g id="xtick_9">
     <g id="line2d_29">
      <g>
       <use xlink:href="#m5e13770c3d" x="804.690653" y="229.90375" style="stroke: #000000; stroke-width: 1.5"/>
      </g>
     </g>
     <g id="text_19">
      <!-- −0.2 -->
      <g transform="translate(788.898153 249.88125) scale(0.16 -0.16)">
       <use xlink:href="#Helvetica-2212"/>
       <use xlink:href="#Helvetica-30" x="58.398438"/>
       <use xlink:href="#Helvetica-2e" x="114.013672"/>
       <use xlink:href="#Helvetica-32" x="141.796875"/>
      </g>
     </g>
    </g>
    <g id="xtick_10">
     <g id="line2d_30">
      <g>
       <use xlink:href="#m5e13770c3d" x="892.849744" y="229.90375" style="stroke: #000000; stroke-width: 1.5"/>
      </g>
     </g>
     <g id="text_20">
      <!-- 0.0 -->
      <g transform="translate(881.729744 249.88125) scale(0.16 -0.16)">
       <use xlink:href="#Helvetica-30"/>
       <use xlink:href="#Helvetica-2e" x="55.615234"/>
       <use xlink:href="#Helvetica-30" x="83.398438"/>
      </g>
     </g>
    </g>
    <g id="xtick_11">
     <g id="line2d_31">
      <g>
       <use xlink:href="#m5e13770c3d" x="981.008835" y="229.90375" style="stroke: #000000; stroke-width: 1.5"/>
      </g>
     </g>
     <g id="text_21">
      <!-- 0.2 -->
      <g transform="translate(969.888835 249.88125) scale(0.16 -0.16)">
       <use xlink:href="#Helvetica-30"/>
       <use xlink:href="#Helvetica-2e" x="55.615234"/>
       <use xlink:href="#Helvetica-32" x="83.398438"/>
      </g>
     </g>
    </g>
    <g id="text_22">
     <!-- Magnetization -->
     <g transform="translate(854.450938 270.128438) scale(0.18 -0.18)">
      <use xlink:href="#Helvetica-4d"/>
      <use xlink:href="#Helvetica-61" x="83.300781"/>
      <use xlink:href="#Helvetica-67" x="138.916016"/>
      <use xlink:href="#Helvetica-6e" x="194.53125"/>
      <use xlink:href="#Helvetica-65" x="250.146484"/>
      <use xlink:href="#Helvetica-74" x="305.761719"/>
      <use xlink:href="#Helvetica-69" x="333.544922"/>
      <use xlink:href="#Helvetica-7a" x="355.761719"/>
      <use xlink:href="#Helvetica-61" x="405.761719"/>
      <use xlink:href="#Helvetica-74" x="461.376953"/>
      <use xlink:href="#Helvetica-69" x="489.160156"/>
      <use xlink:href="#Helvetica-6f" x="511.376953"/>
      <use xlink:href="#Helvetica-6e" x="566.992188"/>
     </g>
    </g>
   </g>
   <g id="matplotlib.axis_6">
    <g id="ytick_11">
     <g id="line2d_32">
      <path d="M 755.321563 229.90375 
L 1065.641562 229.90375 
" clip-path="url(#p62bf9e1e4d)" style="fill: none; stroke: #bfbfbf; stroke-width: 1.5; stroke-linecap: square"/>
     </g>
     <g id="line2d_33">
      <g>
       <use xlink:href="#m64b5955266" x="755.321563" y="229.90375"/>
      </g>
     </g>
    </g>
    <g id="ytick_12">
     <g id="line2d_34">
      <path d="M 755.321563 180.584962 
L 1065.641562 180.584962 
" clip-path="url(#p62bf9e1e4d)" style="fill: none; stroke: #bfbfbf; stroke-width: 1.5; stroke-linecap: square"/>
     </g>
     <g id="line2d_35">
      <g>
       <use xlink:href="#m64b5955266" x="755.321563" y="180.584962"/>
      </g>
     </g>
    </g>
    <g id="ytick_13">
     <g id="line2d_36">
      <path d="M 755.321563 131.266174 
L 1065.641562 131.266174 
" clip-path="url(#p62bf9e1e4d)" style="fill: none; stroke: #bfbfbf; stroke-width: 1.5; stroke-linecap: square"/>
     </g>
     <g id="line2d_37">
      <g>
       <use xlink:href="#m64b5955266" x="755.321563" y="131.266174"/>
      </g>
     </g>
    </g>
    <g id="ytick_14">
     <g id="line2d_38">
      <path d="M 755.321563 81.947386 
L 1065.641562 81.947386 
" clip-path="url(#p62bf9e1e4d)" style="fill: none; stroke: #bfbfbf; stroke-width: 1.5; stroke-linecap: square"/>
     </g>
     <g id="line2d_39">
      <g>
       <use xlink:href="#m64b5955266" x="755.321563" y="81.947386"/>
      </g>
     </g>
    </g>
    <g id="ytick_15">
     <g id="line2d_40">
      <path d="M 755.321563 32.628598 
L 1065.641562 32.628598 
" clip-path="url(#p62bf9e1e4d)" style="fill: none; stroke: #bfbfbf; stroke-width: 1.5; stroke-linecap: square"/>
     </g>
     <g id="line2d_41">
      <g>
       <use xlink:href="#m64b5955266" x="755.321563" y="32.628598"/>
      </g>
     </g>
    </g>
   </g>
   <g id="patch_115">
    <path d="M 769.427017 229.90375 
L 774.958568 229.90375 
L 774.958568 229.89142 
L 769.427017 229.89142 
z
" clip-path="url(#p62bf9e1e4d)" style="fill: #0000ff"/>
   </g>
   <g id="patch_116">
    <path d="M 774.958568 229.90375 
L 780.490119 229.90375 
L 780.490119 229.90375 
L 774.958568 229.90375 
z
" clip-path="url(#p62bf9e1e4d)" style="fill: #0000ff"/>
   </g>
   <g id="patch_117">
    <path d="M 780.490119 229.90375 
L 786.021669 229.90375 
L 786.021669 229.90375 
L 780.490119 229.90375 
z
" clip-path="url(#p62bf9e1e4d)" style="fill: #0000ff"/>
   </g>
   <g id="patch_118">
    <path d="M 786.021669 229.90375 
L 791.55322 229.90375 
L 791.55322 229.90375 
L 786.021669 229.90375 
z
" clip-path="url(#p62bf9e1e4d)" style="fill: #0000ff"/>
   </g>
   <g id="patch_119">
    <path d="M 791.55322 229.90375 
L 797.084771 229.90375 
L 797.084771 229.90375 
L 791.55322 229.90375 
z
" clip-path="url(#p62bf9e1e4d)" style="fill: #0000ff"/>
   </g>
   <g id="patch_120">
    <path d="M 797.084771 229.90375 
L 802.616322 229.90375 
L 802.616322 229.90375 
L 797.084771 229.90375 
z
" clip-path="url(#p62bf9e1e4d)" style="fill: #0000ff"/>
   </g>
   <g id="patch_121">
    <path d="M 802.616322 229.90375 
L 808.147873 229.90375 
L 808.147873 229.866761 
L 802.616322 229.866761 
z
" clip-path="url(#p62bf9e1e4d)" style="fill: #0000ff"/>
   </g>
   <g id="patch_122">
    <path d="M 808.147873 229.90375 
L 813.679423 229.90375 
L 813.679423 229.90375 
L 808.147873 229.90375 
z
" clip-path="url(#p62bf9e1e4d)" style="fill: #0000ff"/>
   </g>
   <g id="patch_123">
    <path d="M 813.679423 229.90375 
L 819.210974 229.90375 
L 819.210974 229.90375 
L 813.679423 229.90375 
z
" clip-path="url(#p62bf9e1e4d)" style="fill: #0000ff"/>
   </g>
   <g id="patch_124">
    <path d="M 819.210974 229.90375 
L 824.742525 229.90375 
L 824.742525 229.90375 
L 819.210974 229.90375 
z
" clip-path="url(#p62bf9e1e4d)" style="fill: #0000ff"/>
   </g>
   <g id="patch_125">
    <path d="M 824.742525 229.90375 
L 830.274076 229.90375 
L 830.274076 229.90375 
L 824.742525 229.90375 
z
" clip-path="url(#p62bf9e1e4d)" style="fill: #0000ff"/>
   </g>
   <g id="patch_126">
    <path d="M 830.274076 229.90375 
L 835.805627 229.90375 
L 835.805627 229.90375 
L 830.274076 229.90375 
z
" clip-path="url(#p62bf9e1e4d)" style="fill: #0000ff"/>
   </g>
   <g id="patch_127">
    <path d="M 835.805627 229.90375 
L 841.337177 229.90375 
L 841.337177 229.829772 
L 835.805627 229.829772 
z
" clip-path="url(#p62bf9e1e4d)" style="fill: #0000ff"/>
   </g>
   <g id="patch_128">
    <path d="M 841.337177 229.90375 
L 846.868728 229.90375 
L 846.868728 229.90375 
L 841.337177 229.90375 
z
" clip-path="url(#p62bf9e1e4d)" style="fill: #0000ff"/>
   </g>
   <g id="patch_129">
    <path d="M 846.868728 229.90375 
L 852.400279 229.90375 
L 852.400279 229.90375 
L 846.868728 229.90375 
z
" clip-path="url(#p62bf9e1e4d)" style="fill: #0000ff"/>
   </g>
   <g id="patch_130">
    <path d="M 852.400279 229.90375 
L 857.93183 229.90375 
L 857.93183 229.90375 
L 852.400279 229.90375 
z
" clip-path="url(#p62bf9e1e4d)" style="fill: #0000ff"/>
   </g>
   <g id="patch_131">
    <path d="M 857.93183 229.90375 
L 863.463381 229.90375 
L 863.463381 229.90375 
L 857.93183 229.90375 
z
" clip-path="url(#p62bf9e1e4d)" style="fill: #0000ff"/>
   </g>
   <g id="patch_132">
    <path d="M 863.463381 229.90375 
L 868.994931 229.90375 
L 868.994931 229.90375 
L 863.463381 229.90375 
z
" clip-path="url(#p62bf9e1e4d)" style="fill: #0000ff"/>
   </g>
   <g id="patch_133">
    <path d="M 868.994931 229.90375 
L 874.526482 229.90375 
L 874.526482 229.90375 
L 868.994931 229.90375 
z
" clip-path="url(#p62bf9e1e4d)" style="fill: #0000ff"/>
   </g>
   <g id="patch_134">
    <path d="M 874.526482 229.90375 
L 880.058033 229.90375 
L 880.058033 229.558518 
L 874.526482 229.558518 
z
" clip-path="url(#p62bf9e1e4d)" style="fill: #0000ff"/>
   </g>
   <g id="patch_135">
    <path d="M 880.058033 229.90375 
L 885.589584 229.90375 
L 885.589584 229.90375 
L 880.058033 229.90375 
z
" clip-path="url(#p62bf9e1e4d)" style="fill: #0000ff"/>
   </g>
   <g id="patch_136">
    <path d="M 885.589584 229.90375 
L 891.121135 229.90375 
L 891.121135 229.90375 
L 885.589584 229.90375 
z
" clip-path="url(#p62bf9e1e4d)" style="fill: #0000ff"/>
   </g>
   <g id="patch_137">
    <path d="M 891.121135 229.90375 
L 896.652685 229.90375 
L 896.652685 229.90375 
L 891.121135 229.90375 
z
" clip-path="url(#p62bf9e1e4d)" style="fill: #0000ff"/>
   </g>
   <g id="patch_138">
    <path d="M 896.652685 229.90375 
L 902.184236 229.90375 
L 902.184236 229.90375 
L 896.652685 229.90375 
z
" clip-path="url(#p62bf9e1e4d)" style="fill: #0000ff"/>
   </g>
   <g id="patch_139">
    <path d="M 902.184236 229.90375 
L 907.715787 229.90375 
L 907.715787 229.90375 
L 902.184236 229.90375 
z
" clip-path="url(#p62bf9e1e4d)" style="fill: #0000ff"/>
   </g>
   <g id="patch_140">
    <path d="M 907.715787 229.90375 
L 913.247338 229.90375 
L 913.247338 229.225617 
L 907.715787 229.225617 
z
" clip-path="url(#p62bf9e1e4d)" style="fill: #0000ff"/>
   </g>
   <g id="patch_141">
    <path d="M 913.247338 229.90375 
L 918.778889 229.90375 
L 918.778889 229.90375 
L 913.247338 229.90375 
z
" clip-path="url(#p62bf9e1e4d)" style="fill: #0000ff"/>
   </g>
   <g id="patch_142">
    <path d="M 918.778889 229.90375 
L 924.31044 229.90375 
L 924.31044 229.90375 
L 918.778889 229.90375 
z
" clip-path="url(#p62bf9e1e4d)" style="fill: #0000ff"/>
   </g>
   <g id="patch_143">
    <path d="M 924.31044 229.90375 
L 929.84199 229.90375 
L 929.84199 229.90375 
L 924.31044 229.90375 
z
" clip-path="url(#p62bf9e1e4d)" style="fill: #0000ff"/>
   </g>
   <g id="patch_144">
    <path d="M 929.84199 229.90375 
L 935.373541 229.90375 
L 935.373541 229.90375 
L 929.84199 229.90375 
z
" clip-path="url(#p62bf9e1e4d)" style="fill: #0000ff"/>
   </g>
   <g id="patch_145">
    <path d="M 935.373541 229.90375 
L 940.905092 229.90375 
L 940.905092 229.90375 
L 935.373541 229.90375 
z
" clip-path="url(#p62bf9e1e4d)" style="fill: #0000ff"/>
   </g>
   <g id="patch_146">
    <path d="M 940.905092 229.90375 
L 946.436643 229.90375 
L 946.436643 216.104353 
L 940.905092 216.104353 
z
" clip-path="url(#p62bf9e1e4d)" style="fill: #0000ff"/>
   </g>
   <g id="patch_147">
    <path d="M 946.436643 229.90375 
L 951.968194 229.90375 
L 951.968194 229.90375 
L 946.436643 229.90375 
z
" clip-path="url(#p62bf9e1e4d)" style="fill: #0000ff"/>
   </g>
   <g id="patch_148">
    <path d="M 951.968194 229.90375 
L 957.499744 229.90375 
L 957.499744 229.90375 
L 951.968194 229.90375 
z
" clip-path="url(#p62bf9e1e4d)" style="fill: #0000ff"/>
   </g>
   <g id="patch_149">
    <path d="M 957.499744 229.90375 
L 963.031295 229.90375 
L 963.031295 229.90375 
L 957.499744 229.90375 
z
" clip-path="url(#p62bf9e1e4d)" style="fill: #0000ff"/>
   </g>
   <g id="patch_150">
    <path d="M 963.031295 229.90375 
L 968.562846 229.90375 
L 968.562846 229.90375 
L 963.031295 229.90375 
z
" clip-path="url(#p62bf9e1e4d)" style="fill: #0000ff"/>
   </g>
   <g id="patch_151">
    <path d="M 968.562846 229.90375 
L 974.094397 229.90375 
L 974.094397 229.90375 
L 968.562846 229.90375 
z
" clip-path="url(#p62bf9e1e4d)" style="fill: #0000ff"/>
   </g>
   <g id="patch_152">
    <path d="M 974.094397 229.90375 
L 979.625948 229.90375 
L 979.625948 229.90375 
L 974.094397 229.90375 
z
" clip-path="url(#p62bf9e1e4d)" style="fill: #0000ff"/>
   </g>
   <g id="patch_153">
    <path d="M 979.625948 229.90375 
L 985.157498 229.90375 
L 985.157498 176.752892 
L 979.625948 176.752892 
z
" clip-path="url(#p62bf9e1e4d)" style="fill: #0000ff"/>
   </g>
   <g id="patch_154">
    <path d="M 985.157498 229.90375 
L 990.689049 229.90375 
L 990.689049 229.90375 
L 985.157498 229.90375 
z
" clip-path="url(#p62bf9e1e4d)" style="fill: #0000ff"/>
   </g>
   <g id="patch_155">
    <path d="M 990.689049 229.90375 
L 996.2206 229.90375 
L 996.2206 229.90375 
L 990.689049 229.90375 
z
" clip-path="url(#p62bf9e1e4d)" style="fill: #0000ff"/>
   </g>
   <g id="patch_156">
    <path d="M 996.2206 229.90375 
L 1001.752151 229.90375 
L 1001.752151 229.90375 
L 996.2206 229.90375 
z
" clip-path="url(#p62bf9e1e4d)" style="fill: #0000ff"/>
   </g>
   <g id="patch_157">
    <path d="M 1001.752151 229.90375 
L 1007.283702 229.90375 
L 1007.283702 229.90375 
L 1001.752151 229.90375 
z
" clip-path="url(#p62bf9e1e4d)" style="fill: #0000ff"/>
   </g>
   <g id="patch_158">
    <path d="M 1007.283702 229.90375 
L 1012.815252 229.90375 
L 1012.815252 229.90375 
L 1007.283702 229.90375 
z
" clip-path="url(#p62bf9e1e4d)" style="fill: #0000ff"/>
   </g>
   <g id="patch_159">
    <path d="M 1012.815252 229.90375 
L 1018.346803 229.90375 
L 1018.346803 52.795051 
L 1012.815252 52.795051 
z
" clip-path="url(#p62bf9e1e4d)" style="fill: #0000ff"/>
   </g>
   <g id="patch_160">
    <path d="M 1018.346803 229.90375 
L 1023.878354 229.90375 
L 1023.878354 229.90375 
L 1018.346803 229.90375 
z
" clip-path="url(#p62bf9e1e4d)" style="fill: #0000ff"/>
   </g>
   <g id="patch_161">
    <path d="M 1023.878354 229.90375 
L 1029.409905 229.90375 
L 1029.409905 229.90375 
L 1023.878354 229.90375 
z
" clip-path="url(#p62bf9e1e4d)" style="fill: #0000ff"/>
   </g>
   <g id="patch_162">
    <path d="M 1029.409905 229.90375 
L 1034.941456 229.90375 
L 1034.941456 229.90375 
L 1029.409905 229.90375 
z
" clip-path="url(#p62bf9e1e4d)" style="fill: #0000ff"/>
   </g>
   <g id="patch_163">
    <path d="M 1034.941456 229.90375 
L 1040.473006 229.90375 
L 1040.473006 229.90375 
L 1034.941456 229.90375 
z
" clip-path="url(#p62bf9e1e4d)" style="fill: #0000ff"/>
   </g>
   <g id="patch_164">
    <path d="M 1040.473006 229.90375 
L 1046.004557 229.90375 
L 1046.004557 229.90375 
L 1040.473006 229.90375 
z
" clip-path="url(#p62bf9e1e4d)" style="fill: #0000ff"/>
   </g>
   <g id="patch_165">
    <path d="M 1046.004557 229.90375 
L 1051.536108 229.90375 
L 1051.536108 228.51296 
L 1046.004557 228.51296 
z
" clip-path="url(#p62bf9e1e4d)" style="fill: #0000ff"/>
   </g>
   <g id="patch_166">
    <path d="M 755.321563 229.90375 
L 755.321563 26.46375 
" style="fill: none; stroke: #000000; stroke-width: 1.5; stroke-linejoin: miter; stroke-linecap: square"/>
   </g>
   <g id="patch_167">
    <path d="M 1065.641562 229.90375 
L 1065.641562 26.46375 
" style="fill: none; stroke: #000000; stroke-width: 1.5; stroke-linejoin: miter; stroke-linecap: square"/>
   </g>
   <g id="patch_168">
    <path d="M 755.321563 229.90375 
L 1065.641562 229.90375 
" style="fill: none; stroke: #000000; stroke-width: 1.5; stroke-linejoin: miter; stroke-linecap: square"/>
   </g>
   <g id="patch_169">
    <path d="M 755.321563 26.46375 
L 1065.641562 26.46375 
" style="fill: none; stroke: #000000; stroke-width: 1.5; stroke-linejoin: miter; stroke-linecap: square"/>
   </g>
   <g id="text_23">
    <!-- (iii) SSF -->
    <g transform="translate(878.485156 20.46375) scale(0.18 -0.18)">
     <defs>
      <path id="Helvetica-53" d="M 894 1481 
Q 916 1091 1078 847 
Q 1388 391 2169 391 
Q 2519 391 2806 491 
Q 3363 684 3363 1184 
Q 3363 1559 3128 1719 
Q 2891 1875 2384 1991 
L 1763 2131 
Q 1153 2269 900 2434 
Q 463 2722 463 3294 
Q 463 3913 891 4309 
Q 1319 4706 2103 4706 
Q 2825 4706 3329 4357 
Q 3834 4009 3834 3244 
L 3250 3244 
Q 3203 3613 3050 3809 
Q 2766 4169 2084 4169 
Q 1534 4169 1293 3937 
Q 1053 3706 1053 3400 
Q 1053 3063 1334 2906 
Q 1519 2806 2169 2656 
L 2813 2509 
Q 3278 2403 3531 2219 
Q 3969 1897 3969 1284 
Q 3969 522 3414 194 
Q 2859 -134 2125 -134 
Q 1269 -134 784 303 
Q 300 738 309 1481 
L 894 1481 
z
M 2150 4716 
L 2150 4716 
z
" transform="scale(0.015625)"/>
      <path id="Helvetica-46" d="M 547 4591 
L 3731 4591 
L 3731 4028 
L 1169 4028 
L 1169 2634 
L 3422 2634 
L 3422 2088 
L 1169 2088 
L 1169 0 
L 547 0 
L 547 4591 
z
" transform="scale(0.015625)"/>
     </defs>
     <use xlink:href="#Helvetica-28"/>
     <use xlink:href="#Helvetica-69" x="33.300781"/>
     <use xlink:href="#Helvetica-69" x="55.517578"/>
     <use xlink:href="#Helvetica-69" x="77.734375"/>
     <use xlink:href="#Helvetica-29" x="99.951172"/>
     <use xlink:href="#Helvetica-20" x="133.251953"/>
     <use xlink:href="#Helvetica-53" x="161.035156"/>
     <use xlink:href="#Helvetica-53" x="227.734375"/>
     <use xlink:href="#Helvetica-46" x="294.433594"/>
    </g>
   </g>
  </g>
 </g>
 <defs>
  <clipPath id="pb37013a229">
   <rect x="80.851562" y="26.46375" width="310.32" height="203.44"/>
  </clipPath>
  <clipPath id="peec2c27a78">
   <rect x="418.086563" y="26.46375" width="310.32" height="203.44"/>
  </clipPath>
  <clipPath id="p62bf9e1e4d">
   <rect x="755.321563" y="26.46375" width="310.32" height="203.44"/>
  </clipPath>
 </defs>
</svg>
