<?xml version="1.0" encoding="utf-8" standalone="no"?>
<!DOCTYPE svg PUBLIC "-//W3C//DTD SVG 1.1//EN"
  "http://www.w3.org/Graphics/SVG/1.1/DTD/svg11.dtd">
<svg xmlns:xlink="http://www.w3.org/1999/xlink" width="502.46625pt" height="172.779375pt" viewBox="0 0 502.46625 172.779375" xmlns="http://www.w3.org/2000/svg" version="1.1">
 <metadata>
  <rdf:RDF xmlns:dc="http://purl.org/dc/elements/1.1/" xmlns:cc="http://creativecommons.org/ns#" xmlns:rdf="http://www.w3.org/1999/02/22-rdf-syntax-ns#">
   <cc:Work>
    <dc:type rdf:resource="http://purl.org/dc/dcmitype/StillImage"/>
    <dc:date>2024-12-06T14:05:56.794020</dc:date>
    <dc:format>image/svg+xml</dc:format>
    <dc:creator>
     <cc:Agent>
      <dc:title>Matplotlib v3.8.4, https://matplotlib.org/</dc:title>
     </cc:Agent>
    </dc:creator>
   </cc:Work>
  </rdf:RDF>
 </metadata>
 <defs>
  <style type="text/css">*{stroke-linejoin: round; stroke-linecap: butt}</style>
 </defs>
 <g id="figure_1">
  <g id="patch_1">
   <path d="M 0 172.779375 
L 502.46625 172.779375 
L 502.46625 0 
L 0 0 
z
" style="fill: #ffffff"/>
  </g>
  <g id="axes_1">
   <g id="patch_2">
    <path d="M 50.55625 138.8 
L 189.528125 138.8 
L 189.528125 7.2 
L 50.55625 7.2 
z
" style="fill: #ffffff"/>
   </g>
   <g id="matplotlib.axis_1">
    <g id="xtick_1">
     <g id="line2d_1">
      <defs>
       <path id="md33fa27465" d="M 0 0 
L 0 2.5 
" style="stroke: #000000; stroke-width: 0.75"/>
      </defs>
      <g>
       <use xlink:href="#md33fa27465" x="84.408373" y="138.8" style="stroke: #000000; stroke-width: 0.75"/>
      </g>
     </g>
     <g id="text_1">
      <!-- −0.2 -->
      <g transform="translate(75.525092 151.256094) scale(0.09 -0.09)">
       <defs>
        <path id="Helvetica-2212" d="M 3547 1894 
L 3547 1369 
L 288 1369 
L 288 1894 
L 3547 1894 
z
" transform="scale(0.015625)"/>
        <path id="Helvetica-30" d="M 1731 4475 
Q 2600 4475 2988 3759 
Q 3288 3206 3288 2244 
Q 3288 1331 3016 734 
Q 2622 -122 1728 -122 
Q 922 -122 528 578 
Q 200 1163 200 2147 
Q 200 2909 397 3456 
Q 766 4475 1731 4475 
z
M 1725 391 
Q 2163 391 2422 778 
Q 2681 1166 2681 2222 
Q 2681 2984 2493 3476 
Q 2306 3969 1766 3969 
Q 1269 3969 1039 3501 
Q 809 3034 809 2125 
Q 809 1441 956 1025 
Q 1181 391 1725 391 
z
" transform="scale(0.015625)"/>
        <path id="Helvetica-2e" d="M 547 681 
L 1200 681 
L 1200 0 
L 547 0 
L 547 681 
z
" transform="scale(0.015625)"/>
        <path id="Helvetica-32" d="M 200 0 
Q 231 578 439 1006 
Q 647 1434 1250 1784 
L 1850 2131 
Q 2253 2366 2416 2531 
Q 2672 2791 2672 3125 
Q 2672 3516 2437 3745 
Q 2203 3975 1813 3975 
Q 1234 3975 1013 3538 
Q 894 3303 881 2888 
L 309 2888 
Q 319 3472 525 3841 
Q 891 4491 1816 4491 
Q 2584 4491 2939 4075 
Q 3294 3659 3294 3150 
Q 3294 2613 2916 2231 
Q 2697 2009 2131 1694 
L 1703 1456 
Q 1397 1288 1222 1134 
Q 909 863 828 531 
L 3272 531 
L 3272 0 
L 200 0 
z
" transform="scale(0.015625)"/>
       </defs>
       <use xlink:href="#Helvetica-2212"/>
       <use xlink:href="#Helvetica-30" x="58.398438"/>
       <use xlink:href="#Helvetica-2e" x="114.013672"/>
       <use xlink:href="#Helvetica-32" x="141.796875"/>
      </g>
     </g>
    </g>
    <g id="xtick_2">
     <g id="line2d_2">
      <g>
       <use xlink:href="#md33fa27465" x="120.042187" y="138.8" style="stroke: #000000; stroke-width: 0.75"/>
      </g>
     </g>
     <g id="text_2">
      <!-- 0.0 -->
      <g transform="translate(113.787187 151.256094) scale(0.09 -0.09)">
       <use xlink:href="#Helvetica-30"/>
       <use xlink:href="#Helvetica-2e" x="55.615234"/>
       <use xlink:href="#Helvetica-30" x="83.398438"/>
      </g>
     </g>
    </g>
    <g id="xtick_3">
     <g id="line2d_3">
      <g>
       <use xlink:href="#md33fa27465" x="155.676002" y="138.8" style="stroke: #000000; stroke-width: 0.75"/>
      </g>
     </g>
     <g id="text_3">
      <!-- 0.2 -->
      <g transform="translate(149.421002 151.256094) scale(0.09 -0.09)">
       <use xlink:href="#Helvetica-30"/>
       <use xlink:href="#Helvetica-2e" x="55.615234"/>
       <use xlink:href="#Helvetica-32" x="83.398438"/>
      </g>
     </g>
    </g>
    <g id="text_4">
     <!-- Magnetization -->
     <g transform="translate(92.026875 163.588125) scale(0.09 -0.09)">
      <defs>
       <path id="Helvetica-4d" d="M 472 4591 
L 1363 4591 
L 2681 709 
L 3991 4591 
L 4872 4591 
L 4872 0 
L 4281 0 
L 4281 2709 
Q 4281 2850 4287 3175 
Q 4294 3500 4294 3872 
L 2984 0 
L 2369 0 
L 1050 3872 
L 1050 3731 
Q 1050 3563 1058 3217 
Q 1066 2872 1066 2709 
L 1066 0 
L 472 0 
L 472 4591 
z
" transform="scale(0.015625)"/>
       <path id="Helvetica-61" d="M 844 891 
Q 844 647 1022 506 
Q 1200 366 1444 366 
Q 1741 366 2019 503 
Q 2488 731 2488 1250 
L 2488 1703 
Q 2384 1638 2221 1594 
Q 2059 1550 1903 1531 
L 1563 1488 
Q 1256 1447 1103 1359 
Q 844 1213 844 891 
z
M 2206 2028 
Q 2400 2053 2466 2191 
Q 2503 2266 2503 2406 
Q 2503 2694 2298 2823 
Q 2094 2953 1713 2953 
Q 1272 2953 1088 2716 
Q 984 2584 953 2325 
L 428 2325 
Q 444 2944 830 3186 
Q 1216 3428 1725 3428 
Q 2316 3428 2684 3203 
Q 3050 2978 3050 2503 
L 3050 575 
Q 3050 488 3086 434 
Q 3122 381 3238 381 
Q 3275 381 3322 386 
Q 3369 391 3422 400 
L 3422 -16 
Q 3291 -53 3222 -62 
Q 3153 -72 3034 -72 
Q 2744 -72 2613 134 
Q 2544 244 2516 444 
Q 2344 219 2022 53 
Q 1700 -113 1313 -113 
Q 847 -113 551 170 
Q 256 453 256 878 
Q 256 1344 547 1600 
Q 838 1856 1309 1916 
L 2206 2028 
z
M 1741 3428 
L 1741 3428 
z
" transform="scale(0.015625)"/>
       <path id="Helvetica-67" d="M 1594 3406 
Q 1988 3406 2281 3213 
Q 2441 3103 2606 2894 
L 2606 3316 
L 3125 3316 
L 3125 272 
Q 3125 -366 2938 -734 
Q 2588 -1416 1616 -1416 
Q 1075 -1416 706 -1173 
Q 338 -931 294 -416 
L 866 -416 
Q 906 -641 1028 -763 
Q 1219 -950 1628 -950 
Q 2275 -950 2475 -494 
Q 2594 -225 2584 466 
Q 2416 209 2178 84 
Q 1941 -41 1550 -41 
Q 1006 -41 598 345 
Q 191 731 191 1622 
Q 191 2463 602 2934 
Q 1013 3406 1594 3406 
z
M 2606 1688 
Q 2606 2309 2350 2609 
Q 2094 2909 1697 2909 
Q 1103 2909 884 2353 
Q 769 2056 769 1575 
Q 769 1009 998 714 
Q 1228 419 1616 419 
Q 2222 419 2469 966 
Q 2606 1275 2606 1688 
z
M 1659 3428 
L 1659 3428 
z
" transform="scale(0.015625)"/>
       <path id="Helvetica-6e" d="M 413 3347 
L 947 3347 
L 947 2872 
Q 1184 3166 1450 3294 
Q 1716 3422 2041 3422 
Q 2753 3422 3003 2925 
Q 3141 2653 3141 2147 
L 3141 0 
L 2569 0 
L 2569 2109 
Q 2569 2416 2478 2603 
Q 2328 2916 1934 2916 
Q 1734 2916 1606 2875 
Q 1375 2806 1200 2600 
Q 1059 2434 1017 2257 
Q 975 2081 975 1753 
L 975 0 
L 413 0 
L 413 3347 
z
M 1734 3428 
L 1734 3428 
z
" transform="scale(0.015625)"/>
       <path id="Helvetica-65" d="M 1806 3422 
Q 2163 3422 2497 3255 
Q 2831 3088 3006 2822 
Q 3175 2569 3231 2231 
Q 3281 2000 3281 1494 
L 828 1494 
Q 844 984 1069 676 
Q 1294 369 1766 369 
Q 2206 369 2469 659 
Q 2619 828 2681 1050 
L 3234 1050 
Q 3213 866 3089 639 
Q 2966 413 2813 269 
Q 2556 19 2178 -69 
Q 1975 -119 1719 -119 
Q 1094 -119 659 336 
Q 225 791 225 1609 
Q 225 2416 662 2919 
Q 1100 3422 1806 3422 
z
M 2703 1941 
Q 2669 2306 2544 2525 
Q 2313 2931 1772 2931 
Q 1384 2931 1121 2651 
Q 859 2372 844 1941 
L 2703 1941 
z
M 1753 3428 
L 1753 3428 
z
" transform="scale(0.015625)"/>
       <path id="Helvetica-74" d="M 525 4281 
L 1094 4281 
L 1094 3347 
L 1628 3347 
L 1628 2888 
L 1094 2888 
L 1094 703 
Q 1094 528 1213 469 
Q 1278 434 1431 434 
Q 1472 434 1519 436 
Q 1566 438 1628 444 
L 1628 0 
Q 1531 -28 1426 -40 
Q 1322 -53 1200 -53 
Q 806 -53 665 148 
Q 525 350 525 672 
L 525 2888 
L 72 2888 
L 72 3347 
L 525 3347 
L 525 4281 
z
" transform="scale(0.015625)"/>
       <path id="Helvetica-69" d="M 413 3331 
L 984 3331 
L 984 0 
L 413 0 
L 413 3331 
z
M 413 4591 
L 984 4591 
L 984 3953 
L 413 3953 
L 413 4591 
z
" transform="scale(0.015625)"/>
       <path id="Helvetica-7a" d="M 163 444 
L 2147 2844 
L 309 2844 
L 309 3347 
L 2903 3347 
L 2903 2888 
L 931 503 
L 2963 503 
L 2963 0 
L 163 0 
L 163 444 
z
M 1609 3428 
L 1609 3428 
z
" transform="scale(0.015625)"/>
       <path id="Helvetica-6f" d="M 1741 363 
Q 2300 363 2508 786 
Q 2716 1209 2716 1728 
Q 2716 2197 2566 2491 
Q 2328 2953 1747 2953 
Q 1231 2953 997 2559 
Q 763 2166 763 1609 
Q 763 1075 997 719 
Q 1231 363 1741 363 
z
M 1763 3444 
Q 2409 3444 2856 3012 
Q 3303 2581 3303 1744 
Q 3303 934 2909 406 
Q 2516 -122 1688 -122 
Q 997 -122 590 345 
Q 184 813 184 1600 
Q 184 2444 612 2944 
Q 1041 3444 1763 3444 
z
M 1744 3428 
L 1744 3428 
z
" transform="scale(0.015625)"/>
      </defs>
      <use xlink:href="#Helvetica-4d"/>
      <use xlink:href="#Helvetica-61" x="83.300781"/>
      <use xlink:href="#Helvetica-67" x="138.916016"/>
      <use xlink:href="#Helvetica-6e" x="194.53125"/>
      <use xlink:href="#Helvetica-65" x="250.146484"/>
      <use xlink:href="#Helvetica-74" x="305.761719"/>
      <use xlink:href="#Helvetica-69" x="333.544922"/>
      <use xlink:href="#Helvetica-7a" x="355.761719"/>
      <use xlink:href="#Helvetica-61" x="405.761719"/>
      <use xlink:href="#Helvetica-74" x="461.376953"/>
      <use xlink:href="#Helvetica-69" x="489.160156"/>
      <use xlink:href="#Helvetica-6f" x="511.376953"/>
      <use xlink:href="#Helvetica-6e" x="566.992188"/>
     </g>
    </g>
   </g>
   <g id="matplotlib.axis_2">
    <g id="ytick_1">
     <g id="line2d_4">
      <path d="M 50.55625 138.8 
L 189.528125 138.8 
" clip-path="url(#pf02c790d04)" style="fill: none; stroke: #bfbfbf; stroke-width: 0.75; stroke-linecap: square"/>
     </g>
     <g id="line2d_5">
      <defs>
       <path id="m6e3fce9d66" d="M 0 0 
L -2.5 0 
" style="stroke: #000000; stroke-width: 0.75"/>
      </defs>
      <g>
       <use xlink:href="#m6e3fce9d66" x="50.55625" y="138.8" style="stroke: #000000; stroke-width: 0.75"/>
      </g>
     </g>
     <g id="text_5">
      <!-- 0 -->
      <g transform="translate(39.551406 142.028047) scale(0.09 -0.09)">
       <use xlink:href="#Helvetica-30"/>
      </g>
     </g>
    </g>
    <g id="ytick_2">
     <g id="line2d_6">
      <path d="M 50.55625 106.89697 
L 189.528125 106.89697 
" clip-path="url(#pf02c790d04)" style="fill: none; stroke: #bfbfbf; stroke-width: 0.75; stroke-linecap: square"/>
     </g>
     <g id="line2d_7">
      <g>
       <use xlink:href="#m6e3fce9d66" x="50.55625" y="106.89697" style="stroke: #000000; stroke-width: 0.75"/>
      </g>
     </g>
     <g id="text_6">
      <!-- 20000 -->
      <g transform="translate(19.532031 110.125017) scale(0.09 -0.09)">
       <use xlink:href="#Helvetica-32"/>
       <use xlink:href="#Helvetica-30" x="55.615234"/>
       <use xlink:href="#Helvetica-30" x="111.230469"/>
       <use xlink:href="#Helvetica-30" x="166.845703"/>
       <use xlink:href="#Helvetica-30" x="222.460938"/>
      </g>
     </g>
    </g>
    <g id="ytick_3">
     <g id="line2d_8">
      <path d="M 50.55625 74.993939 
L 189.528125 74.993939 
" clip-path="url(#pf02c790d04)" style="fill: none; stroke: #bfbfbf; stroke-width: 0.75; stroke-linecap: square"/>
     </g>
     <g id="line2d_9">
      <g>
       <use xlink:href="#m6e3fce9d66" x="50.55625" y="74.993939" style="stroke: #000000; stroke-width: 0.75"/>
      </g>
     </g>
     <g id="text_7">
      <!-- 40000 -->
      <g transform="translate(19.532031 78.221986) scale(0.09 -0.09)">
       <defs>
        <path id="Helvetica-34" d="M 2116 1584 
L 2116 3613 
L 681 1584 
L 2116 1584 
z
M 2125 0 
L 2125 1094 
L 163 1094 
L 163 1644 
L 2213 4488 
L 2688 4488 
L 2688 1584 
L 3347 1584 
L 3347 1094 
L 2688 1094 
L 2688 0 
L 2125 0 
z
" transform="scale(0.015625)"/>
       </defs>
       <use xlink:href="#Helvetica-34"/>
       <use xlink:href="#Helvetica-30" x="55.615234"/>
       <use xlink:href="#Helvetica-30" x="111.230469"/>
       <use xlink:href="#Helvetica-30" x="166.845703"/>
       <use xlink:href="#Helvetica-30" x="222.460938"/>
      </g>
     </g>
    </g>
    <g id="ytick_4">
     <g id="line2d_10">
      <path d="M 50.55625 43.090909 
L 189.528125 43.090909 
" clip-path="url(#pf02c790d04)" style="fill: none; stroke: #bfbfbf; stroke-width: 0.75; stroke-linecap: square"/>
     </g>
     <g id="line2d_11">
      <g>
       <use xlink:href="#m6e3fce9d66" x="50.55625" y="43.090909" style="stroke: #000000; stroke-width: 0.75"/>
      </g>
     </g>
     <g id="text_8">
      <!-- 60000 -->
      <g transform="translate(19.532031 46.318956) scale(0.09 -0.09)">
       <defs>
        <path id="Helvetica-36" d="M 1872 4494 
Q 2622 4494 2917 4105 
Q 3213 3716 3213 3303 
L 2656 3303 
Q 2606 3569 2497 3719 
Q 2294 4000 1881 4000 
Q 1409 4000 1131 3564 
Q 853 3128 822 2316 
Q 1016 2600 1309 2741 
Q 1578 2866 1909 2866 
Q 2472 2866 2890 2506 
Q 3309 2147 3309 1434 
Q 3309 825 2912 354 
Q 2516 -116 1781 -116 
Q 1153 -116 697 361 
Q 241 838 241 1966 
Q 241 2800 444 3381 
Q 834 4494 1872 4494 
z
M 1831 384 
Q 2275 384 2495 682 
Q 2716 981 2716 1388 
Q 2716 1731 2519 2042 
Q 2322 2353 1803 2353 
Q 1441 2353 1167 2112 
Q 894 1872 894 1388 
Q 894 963 1142 673 
Q 1391 384 1831 384 
z
" transform="scale(0.015625)"/>
       </defs>
       <use xlink:href="#Helvetica-36"/>
       <use xlink:href="#Helvetica-30" x="55.615234"/>
       <use xlink:href="#Helvetica-30" x="111.230469"/>
       <use xlink:href="#Helvetica-30" x="166.845703"/>
       <use xlink:href="#Helvetica-30" x="222.460938"/>
      </g>
     </g>
    </g>
    <g id="ytick_5">
     <g id="line2d_12">
      <path d="M 50.55625 11.187879 
L 189.528125 11.187879 
" clip-path="url(#pf02c790d04)" style="fill: none; stroke: #bfbfbf; stroke-width: 0.75; stroke-linecap: square"/>
     </g>
     <g id="line2d_13">
      <g>
       <use xlink:href="#m6e3fce9d66" x="50.55625" y="11.187879" style="stroke: #000000; stroke-width: 0.75"/>
      </g>
     </g>
     <g id="text_9">
      <!-- 80000 -->
      <g transform="translate(19.532031 14.415926) scale(0.09 -0.09)">
       <defs>
        <path id="Helvetica-38" d="M 1741 2600 
Q 2113 2600 2322 2808 
Q 2531 3016 2531 3303 
Q 2531 3553 2331 3762 
Q 2131 3972 1722 3972 
Q 1316 3972 1134 3762 
Q 953 3553 953 3272 
Q 953 2956 1187 2778 
Q 1422 2600 1741 2600 
z
M 1775 384 
Q 2166 384 2423 595 
Q 2681 806 2681 1225 
Q 2681 1659 2415 1884 
Q 2150 2109 1734 2109 
Q 1331 2109 1076 1879 
Q 822 1650 822 1244 
Q 822 894 1055 639 
Q 1288 384 1775 384 
z
M 975 2384 
Q 741 2484 609 2619 
Q 363 2869 363 3269 
Q 363 3769 725 4128 
Q 1088 4488 1753 4488 
Q 2397 4488 2762 4148 
Q 3128 3809 3128 3356 
Q 3128 2938 2916 2678 
Q 2797 2531 2547 2391 
Q 2825 2263 2984 2097 
Q 3281 1784 3281 1284 
Q 3281 694 2884 283 
Q 2488 -128 1763 -128 
Q 1109 -128 657 226 
Q 206 581 206 1256 
Q 206 1653 400 1942 
Q 594 2231 975 2384 
z
" transform="scale(0.015625)"/>
       </defs>
       <use xlink:href="#Helvetica-38"/>
       <use xlink:href="#Helvetica-30" x="55.615234"/>
       <use xlink:href="#Helvetica-30" x="111.230469"/>
       <use xlink:href="#Helvetica-30" x="166.845703"/>
       <use xlink:href="#Helvetica-30" x="222.460938"/>
      </g>
     </g>
    </g>
    <g id="text_10">
     <!-- Counts -->
     <g transform="translate(13.656094 87.257266) rotate(-90) scale(0.09 -0.09)">
      <defs>
       <path id="Helvetica-43" d="M 2422 4716 
Q 3294 4716 3775 4256 
Q 4256 3797 4309 3213 
L 3703 3213 
Q 3600 3656 3292 3915 
Q 2984 4175 2428 4175 
Q 1750 4175 1333 3698 
Q 916 3222 916 2238 
Q 916 1431 1292 929 
Q 1669 428 2416 428 
Q 3103 428 3463 956 
Q 3653 1234 3747 1688 
L 4353 1688 
Q 4272 963 3816 472 
Q 3269 -119 2341 -119 
Q 1541 -119 997 366 
Q 281 1006 281 2344 
Q 281 3359 819 4009 
Q 1400 4716 2422 4716 
z
M 2297 4716 
L 2297 4716 
z
" transform="scale(0.015625)"/>
       <path id="Helvetica-75" d="M 975 3347 
L 975 1125 
Q 975 869 1056 706 
Q 1206 406 1616 406 
Q 2203 406 2416 931 
Q 2531 1213 2531 1703 
L 2531 3347 
L 3094 3347 
L 3094 0 
L 2563 0 
L 2569 494 
Q 2459 303 2297 172 
Q 1975 -91 1516 -91 
Q 800 -91 541 388 
Q 400 644 400 1072 
L 400 3347 
L 975 3347 
z
M 1747 3428 
L 1747 3428 
z
" transform="scale(0.015625)"/>
       <path id="Helvetica-73" d="M 747 1050 
Q 772 769 888 619 
Q 1100 347 1625 347 
Q 1938 347 2175 483 
Q 2413 619 2413 903 
Q 2413 1119 2222 1231 
Q 2100 1300 1741 1391 
L 1294 1503 
Q 866 1609 663 1741 
Q 300 1969 300 2372 
Q 300 2847 642 3140 
Q 984 3434 1563 3434 
Q 2319 3434 2653 2991 
Q 2863 2709 2856 2384 
L 2325 2384 
Q 2309 2575 2191 2731 
Q 1997 2953 1519 2953 
Q 1200 2953 1036 2831 
Q 872 2709 872 2509 
Q 872 2291 1088 2159 
Q 1213 2081 1456 2022 
L 1828 1931 
Q 2434 1784 2641 1647 
Q 2969 1431 2969 969 
Q 2969 522 2630 197 
Q 2291 -128 1597 -128 
Q 850 -128 539 211 
Q 228 550 206 1050 
L 747 1050 
z
M 1578 3428 
L 1578 3428 
z
" transform="scale(0.015625)"/>
      </defs>
      <use xlink:href="#Helvetica-43"/>
      <use xlink:href="#Helvetica-6f" x="72.216797"/>
      <use xlink:href="#Helvetica-75" x="127.832031"/>
      <use xlink:href="#Helvetica-6e" x="183.447266"/>
      <use xlink:href="#Helvetica-74" x="239.0625"/>
      <use xlink:href="#Helvetica-73" x="266.845703"/>
     </g>
    </g>
   </g>
   <g id="patch_3">
    <path d="M 41.647796 138.8 
L 44.442605 138.8 
L 44.442605 138.798405 
L 41.647796 138.798405 
z
" clip-path="url(#pf02c790d04)" style="fill: #e31a1c"/>
   </g>
   <g id="patch_4">
    <path d="M 44.442605 138.8 
L 47.237414 138.8 
L 47.237414 138.8 
L 44.442605 138.8 
z
" clip-path="url(#pf02c790d04)" style="fill: #e31a1c"/>
   </g>
   <g id="patch_5">
    <path d="M 47.237414 138.8 
L 50.032223 138.8 
L 50.032223 138.8 
L 47.237414 138.8 
z
" clip-path="url(#pf02c790d04)" style="fill: #e31a1c"/>
   </g>
   <g id="patch_6">
    <path d="M 50.032223 138.8 
L 52.827032 138.8 
L 52.827032 138.8 
L 50.032223 138.8 
z
" clip-path="url(#pf02c790d04)" style="fill: #e31a1c"/>
   </g>
   <g id="patch_7">
    <path d="M 52.827032 138.8 
L 55.621841 138.8 
L 55.621841 138.8 
L 52.827032 138.8 
z
" clip-path="url(#pf02c790d04)" style="fill: #e31a1c"/>
   </g>
   <g id="patch_8">
    <path d="M 55.621841 138.8 
L 58.41665 138.8 
L 58.41665 138.488945 
L 55.621841 138.488945 
z
" clip-path="url(#pf02c790d04)" style="fill: #e31a1c"/>
   </g>
   <g id="patch_9">
    <path d="M 58.41665 138.8 
L 61.211459 138.8 
L 61.211459 138.8 
L 58.41665 138.8 
z
" clip-path="url(#pf02c790d04)" style="fill: #e31a1c"/>
   </g>
   <g id="patch_10">
    <path d="M 61.211459 138.8 
L 64.006268 138.8 
L 64.006268 138.8 
L 61.211459 138.8 
z
" clip-path="url(#pf02c790d04)" style="fill: #e31a1c"/>
   </g>
   <g id="patch_11">
    <path d="M 64.006268 138.8 
L 66.801077 138.8 
L 66.801077 138.8 
L 64.006268 138.8 
z
" clip-path="url(#pf02c790d04)" style="fill: #e31a1c"/>
   </g>
   <g id="patch_12">
    <path d="M 66.801077 138.8 
L 69.595886 138.8 
L 69.595886 138.8 
L 66.801077 138.8 
z
" clip-path="url(#pf02c790d04)" style="fill: #e31a1c"/>
   </g>
   <g id="patch_13">
    <path d="M 69.595886 138.8 
L 72.390695 138.8 
L 72.390695 78.956296 
L 69.595886 78.956296 
z
" clip-path="url(#pf02c790d04)" style="fill: #e31a1c"/>
   </g>
   <g id="patch_14">
    <path d="M 72.390695 138.8 
L 75.185504 138.8 
L 75.185504 138.8 
L 72.390695 138.8 
z
" clip-path="url(#pf02c790d04)" style="fill: #e31a1c"/>
   </g>
   <g id="patch_15">
    <path d="M 75.185504 138.8 
L 77.980313 138.8 
L 77.980313 138.8 
L 75.185504 138.8 
z
" clip-path="url(#pf02c790d04)" style="fill: #e31a1c"/>
   </g>
   <g id="patch_16">
    <path d="M 77.980313 138.8 
L 80.775122 138.8 
L 80.775122 138.8 
L 77.980313 138.8 
z
" clip-path="url(#pf02c790d04)" style="fill: #e31a1c"/>
   </g>
   <g id="patch_17">
    <path d="M 80.775122 138.8 
L 83.569931 138.8 
L 83.569931 138.8 
L 80.775122 138.8 
z
" clip-path="url(#pf02c790d04)" style="fill: #e31a1c"/>
   </g>
   <g id="patch_18">
    <path d="M 83.569931 138.8 
L 86.36474 138.8 
L 86.36474 124.295287 
L 83.569931 124.295287 
z
" clip-path="url(#pf02c790d04)" style="fill: #e31a1c"/>
   </g>
   <g id="patch_19">
    <path d="M 86.36474 138.8 
L 89.159549 138.8 
L 89.159549 138.8 
L 86.36474 138.8 
z
" clip-path="url(#pf02c790d04)" style="fill: #e31a1c"/>
   </g>
   <g id="patch_20">
    <path d="M 89.159549 138.8 
L 91.954358 138.8 
L 91.954358 138.8 
L 89.159549 138.8 
z
" clip-path="url(#pf02c790d04)" style="fill: #e31a1c"/>
   </g>
   <g id="patch_21">
    <path d="M 91.954358 138.8 
L 94.749167 138.8 
L 94.749167 138.8 
L 91.954358 138.8 
z
" clip-path="url(#pf02c790d04)" style="fill: #e31a1c"/>
   </g>
   <g id="patch_22">
    <path d="M 94.749167 138.8 
L 97.543975 138.8 
L 97.543975 138.8 
L 94.749167 138.8 
z
" clip-path="url(#pf02c790d04)" style="fill: #e31a1c"/>
   </g>
   <g id="patch_23">
    <path d="M 97.543975 138.8 
L 100.338784 138.8 
L 100.338784 134.643035 
L 97.543975 134.643035 
z
" clip-path="url(#pf02c790d04)" style="fill: #e31a1c"/>
   </g>
   <g id="patch_24">
    <path d="M 100.338784 138.8 
L 103.133593 138.8 
L 103.133593 138.8 
L 100.338784 138.8 
z
" clip-path="url(#pf02c790d04)" style="fill: #e31a1c"/>
   </g>
   <g id="patch_25">
    <path d="M 103.133593 138.8 
L 105.928402 138.8 
L 105.928402 138.8 
L 103.133593 138.8 
z
" clip-path="url(#pf02c790d04)" style="fill: #e31a1c"/>
   </g>
   <g id="patch_26">
    <path d="M 105.928402 138.8 
L 108.723211 138.8 
L 108.723211 138.8 
L 105.928402 138.8 
z
" clip-path="url(#pf02c790d04)" style="fill: #e31a1c"/>
   </g>
   <g id="patch_27">
    <path d="M 108.723211 138.8 
L 111.51802 138.8 
L 111.51802 138.8 
L 108.723211 138.8 
z
" clip-path="url(#pf02c790d04)" style="fill: #e31a1c"/>
   </g>
   <g id="patch_28">
    <path d="M 111.51802 138.8 
L 114.312829 138.8 
L 114.312829 138.774478 
L 111.51802 138.774478 
z
" clip-path="url(#pf02c790d04)" style="fill: #e31a1c"/>
   </g>
   <g id="patch_29">
    <path d="M 114.312829 138.8 
L 117.107638 138.8 
L 117.107638 138.8 
L 114.312829 138.8 
z
" clip-path="url(#pf02c790d04)" style="fill: #e31a1c"/>
   </g>
   <g id="patch_30">
    <path d="M 117.107638 138.8 
L 119.902447 138.8 
L 119.902447 138.8 
L 117.107638 138.8 
z
" clip-path="url(#pf02c790d04)" style="fill: #e31a1c"/>
   </g>
   <g id="patch_31">
    <path d="M 119.902447 138.8 
L 122.697256 138.8 
L 122.697256 138.8 
L 119.902447 138.8 
z
" clip-path="url(#pf02c790d04)" style="fill: #e31a1c"/>
   </g>
   <g id="patch_32">
    <path d="M 122.697256 138.8 
L 125.492065 138.8 
L 125.492065 138.8 
L 122.697256 138.8 
z
" clip-path="url(#pf02c790d04)" style="fill: #e31a1c"/>
   </g>
   <g id="patch_33">
    <path d="M 125.492065 138.8 
L 128.286874 138.8 
L 128.286874 138.729813 
L 125.492065 138.729813 
z
" clip-path="url(#pf02c790d04)" style="fill: #e31a1c"/>
   </g>
   <g id="patch_34">
    <path d="M 128.286874 138.8 
L 131.081683 138.8 
L 131.081683 138.8 
L 128.286874 138.8 
z
" clip-path="url(#pf02c790d04)" style="fill: #e31a1c"/>
   </g>
   <g id="patch_35">
    <path d="M 131.081683 138.8 
L 133.876492 138.8 
L 133.876492 138.8 
L 131.081683 138.8 
z
" clip-path="url(#pf02c790d04)" style="fill: #e31a1c"/>
   </g>
   <g id="patch_36">
    <path d="M 133.876492 138.8 
L 136.671301 138.8 
L 136.671301 138.8 
L 133.876492 138.8 
z
" clip-path="url(#pf02c790d04)" style="fill: #e31a1c"/>
   </g>
   <g id="patch_37">
    <path d="M 136.671301 138.8 
L 139.46611 138.8 
L 139.46611 138.8 
L 136.671301 138.8 
z
" clip-path="url(#pf02c790d04)" style="fill: #e31a1c"/>
   </g>
   <g id="patch_38">
    <path d="M 139.46611 138.8 
L 142.260919 138.8 
L 142.260919 134.561682 
L 139.46611 134.561682 
z
" clip-path="url(#pf02c790d04)" style="fill: #e31a1c"/>
   </g>
   <g id="patch_39">
    <path d="M 142.260919 138.8 
L 145.055728 138.8 
L 145.055728 138.8 
L 142.260919 138.8 
z
" clip-path="url(#pf02c790d04)" style="fill: #e31a1c"/>
   </g>
   <g id="patch_40">
    <path d="M 145.055728 138.8 
L 147.850537 138.8 
L 147.850537 138.8 
L 145.055728 138.8 
z
" clip-path="url(#pf02c790d04)" style="fill: #e31a1c"/>
   </g>
   <g id="patch_41">
    <path d="M 147.850537 138.8 
L 150.645345 138.8 
L 150.645345 138.8 
L 147.850537 138.8 
z
" clip-path="url(#pf02c790d04)" style="fill: #e31a1c"/>
   </g>
   <g id="patch_42">
    <path d="M 150.645345 138.8 
L 153.440154 138.8 
L 153.440154 138.8 
L 150.645345 138.8 
z
" clip-path="url(#pf02c790d04)" style="fill: #e31a1c"/>
   </g>
   <g id="patch_43">
    <path d="M 153.440154 138.8 
L 156.234963 138.8 
L 156.234963 124.829663 
L 153.440154 124.829663 
z
" clip-path="url(#pf02c790d04)" style="fill: #e31a1c"/>
   </g>
   <g id="patch_44">
    <path d="M 156.234963 138.8 
L 159.029772 138.8 
L 159.029772 138.8 
L 156.234963 138.8 
z
" clip-path="url(#pf02c790d04)" style="fill: #e31a1c"/>
   </g>
   <g id="patch_45">
    <path d="M 159.029772 138.8 
L 161.824581 138.8 
L 161.824581 138.8 
L 159.029772 138.8 
z
" clip-path="url(#pf02c790d04)" style="fill: #e31a1c"/>
   </g>
   <g id="patch_46">
    <path d="M 161.824581 138.8 
L 164.61939 138.8 
L 164.61939 138.8 
L 161.824581 138.8 
z
" clip-path="url(#pf02c790d04)" style="fill: #e31a1c"/>
   </g>
   <g id="patch_47">
    <path d="M 164.61939 138.8 
L 167.414199 138.8 
L 167.414199 138.8 
L 164.61939 138.8 
z
" clip-path="url(#pf02c790d04)" style="fill: #e31a1c"/>
   </g>
   <g id="patch_48">
    <path d="M 167.414199 138.8 
L 170.209008 138.8 
L 170.209008 76.723084 
L 167.414199 76.723084 
z
" clip-path="url(#pf02c790d04)" style="fill: #e31a1c"/>
   </g>
   <g id="patch_49">
    <path d="M 170.209008 138.8 
L 173.003817 138.8 
L 173.003817 138.8 
L 170.209008 138.8 
z
" clip-path="url(#pf02c790d04)" style="fill: #e31a1c"/>
   </g>
   <g id="patch_50">
    <path d="M 173.003817 138.8 
L 175.798626 138.8 
L 175.798626 138.8 
L 173.003817 138.8 
z
" clip-path="url(#pf02c790d04)" style="fill: #e31a1c"/>
   </g>
   <g id="patch_51">
    <path d="M 175.798626 138.8 
L 178.593435 138.8 
L 178.593435 138.8 
L 175.798626 138.8 
z
" clip-path="url(#pf02c790d04)" style="fill: #e31a1c"/>
   </g>
   <g id="patch_52">
    <path d="M 178.593435 138.8 
L 181.388244 138.8 
L 181.388244 138.8 
L 178.593435 138.8 
z
" clip-path="url(#pf02c790d04)" style="fill: #e31a1c"/>
   </g>
   <g id="patch_53">
    <path d="M 181.388244 138.8 
L 184.183053 138.8 
L 184.183053 138.482565 
L 181.388244 138.482565 
z
" clip-path="url(#pf02c790d04)" style="fill: #e31a1c"/>
   </g>
   <g id="patch_54">
    <path d="M 50.55625 138.8 
L 50.55625 7.2 
" style="fill: none; stroke: #000000; stroke-width: 0.75; stroke-linejoin: miter; stroke-linecap: square"/>
   </g>
   <g id="patch_55">
    <path d="M 189.528125 138.8 
L 189.528125 7.2 
" style="fill: none; stroke: #000000; stroke-width: 0.75; stroke-linejoin: miter; stroke-linecap: square"/>
   </g>
   <g id="patch_56">
    <path d="M 50.55625 138.8 
L 189.528125 138.8 
" style="fill: none; stroke: #000000; stroke-width: 0.75; stroke-linejoin: miter; stroke-linecap: square"/>
   </g>
   <g id="patch_57">
    <path d="M 50.55625 7.2 
L 189.528125 7.2 
" style="fill: none; stroke: #000000; stroke-width: 0.75; stroke-linejoin: miter; stroke-linecap: square"/>
   </g>
   <g id="legend_1">
    <g id="patch_58">
     <path d="M 56.85625 27.407813 
L 163.926719 27.407813 
Q 165.726719 27.407813 165.726719 25.607812 
L 165.726719 13.5 
Q 165.726719 11.7 163.926719 11.7 
L 56.85625 11.7 
Q 55.05625 11.7 55.05625 13.5 
L 55.05625 25.607812 
Q 55.05625 27.407813 56.85625 27.407813 
z
" style="fill: #ffffff; opacity: 0.8; stroke: #cccccc; stroke-linejoin: miter"/>
    </g>
    <g id="patch_59">
     <path d="M 58.65625 21.931875 
L 76.65625 21.931875 
L 76.65625 15.631875 
L 58.65625 15.631875 
z
" style="fill: #e31a1c"/>
    </g>
    <g id="text_11">
     <!-- MADE+QAOA (opt) -->
     <g transform="translate(83.85625 21.931875) scale(0.09 -0.09)">
      <defs>
       <path id="Helvetica-41" d="M 2844 1881 
L 2147 3909 
L 1406 1881 
L 2844 1881 
z
M 1822 4591 
L 2525 4591 
L 4191 0 
L 3509 0 
L 3044 1375 
L 1228 1375 
L 731 0 
L 94 0 
L 1822 4591 
z
" transform="scale(0.015625)"/>
       <path id="Helvetica-44" d="M 2250 531 
Q 2566 531 2769 597 
Q 3131 719 3363 1066 
Q 3547 1344 3628 1778 
Q 3675 2038 3675 2259 
Q 3675 3113 3336 3584 
Q 2997 4056 2244 4056 
L 1141 4056 
L 1141 531 
L 2250 531 
z
M 516 4591 
L 2375 4591 
Q 3322 4591 3844 3919 
Q 4309 3313 4309 2366 
Q 4309 1634 4034 1044 
Q 3550 0 2369 0 
L 516 0 
L 516 4591 
z
" transform="scale(0.015625)"/>
       <path id="Helvetica-45" d="M 547 4591 
L 3894 4591 
L 3894 4028 
L 1153 4028 
L 1153 2634 
L 3688 2634 
L 3688 2103 
L 1153 2103 
L 1153 547 
L 3941 547 
L 3941 0 
L 547 0 
L 547 4591 
z
M 2244 4591 
L 2244 4591 
z
" transform="scale(0.015625)"/>
       <path id="Helvetica-2b" d="M 288 1369 
L 288 1894 
L 1650 1894 
L 1650 3266 
L 2184 3266 
L 2184 1894 
L 3547 1894 
L 3547 1369 
L 2184 1369 
L 2184 0 
L 1650 0 
L 1650 1369 
L 288 1369 
z
" transform="scale(0.015625)"/>
       <path id="Helvetica-51" d="M 4688 13 
L 4375 -366 
L 3666 175 
Q 3409 34 3111 -50 
Q 2813 -134 2459 -134 
Q 1391 -134 784 566 
Q 250 1247 250 2272 
Q 250 3203 713 3866 
Q 1306 4716 2469 4716 
Q 3684 4716 4269 3934 
Q 4725 3325 4725 2375 
Q 4725 1931 4616 1522 
Q 4450 897 4056 503 
L 4688 13 
z
M 2534 422 
Q 2728 422 2897 448 
Q 3066 475 3191 553 
L 2688 947 
L 3000 1331 
L 3600 866 
Q 3884 1191 3986 1594 
Q 4088 1997 4088 2366 
Q 4088 3175 3664 3669 
Q 3241 4163 2506 4163 
Q 1763 4163 1328 3689 
Q 894 3216 894 2231 
Q 894 1403 1311 912 
Q 1728 422 2534 422 
z
" transform="scale(0.015625)"/>
       <path id="Helvetica-4f" d="M 2469 4716 
Q 3684 4716 4269 3934 
Q 4725 3325 4725 2375 
Q 4725 1347 4203 666 
Q 3591 -134 2456 -134 
Q 1397 -134 791 566 
Q 250 1241 250 2272 
Q 250 3203 713 3866 
Q 1306 4716 2469 4716 
z
M 2531 422 
Q 3353 422 3720 1011 
Q 4088 1600 4088 2366 
Q 4088 3175 3664 3669 
Q 3241 4163 2506 4163 
Q 1794 4163 1344 3673 
Q 894 3184 894 2231 
Q 894 1469 1280 945 
Q 1666 422 2531 422 
z
M 2488 4716 
L 2488 4716 
z
" transform="scale(0.015625)"/>
       <path id="Helvetica-20" transform="scale(0.015625)"/>
       <path id="Helvetica-28" d="M 1894 4666 
Q 1403 3713 1256 3263 
Q 1034 2578 1034 1681 
Q 1034 775 1288 25 
Q 1444 -438 1903 -1306 
L 1525 -1306 
Q 1069 -594 959 -397 
Q 850 -200 722 138 
Q 547 600 478 1125 
Q 444 1397 444 1644 
Q 444 2569 734 3291 
Q 919 3750 1503 4666 
L 1894 4666 
z
" transform="scale(0.015625)"/>
       <path id="Helvetica-70" d="M 1825 378 
Q 2219 378 2480 708 
Q 2741 1038 2741 1694 
Q 2741 2094 2625 2381 
Q 2406 2934 1825 2934 
Q 1241 2934 1025 2350 
Q 909 2038 909 1556 
Q 909 1169 1025 897 
Q 1244 378 1825 378 
z
M 369 3331 
L 916 3331 
L 916 2888 
Q 1084 3116 1284 3241 
Q 1569 3428 1953 3428 
Q 2522 3428 2919 2992 
Q 3316 2556 3316 1747 
Q 3316 653 2744 184 
Q 2381 -113 1900 -113 
Q 1522 -113 1266 53 
Q 1116 147 931 375 
L 931 -1334 
L 369 -1334 
L 369 3331 
z
" transform="scale(0.015625)"/>
       <path id="Helvetica-29" d="M 222 -1306 
Q 719 -338 863 106 
Q 1081 778 1081 1681 
Q 1081 2584 828 3334 
Q 672 3797 213 4666 
L 591 4666 
Q 1072 3897 1173 3717 
Q 1275 3538 1394 3222 
Q 1544 2831 1608 2450 
Q 1672 2069 1672 1716 
Q 1672 791 1378 66 
Q 1194 -400 613 -1306 
L 222 -1306 
z
" transform="scale(0.015625)"/>
      </defs>
      <use xlink:href="#Helvetica-4d"/>
      <use xlink:href="#Helvetica-41" x="83.300781"/>
      <use xlink:href="#Helvetica-44" x="150"/>
      <use xlink:href="#Helvetica-45" x="222.216797"/>
      <use xlink:href="#Helvetica-2b" x="288.916016"/>
      <use xlink:href="#Helvetica-51" x="347.314453"/>
      <use xlink:href="#Helvetica-41" x="425.097656"/>
      <use xlink:href="#Helvetica-4f" x="491.796875"/>
      <use xlink:href="#Helvetica-41" x="569.580078"/>
      <use xlink:href="#Helvetica-20" x="636.279297"/>
      <use xlink:href="#Helvetica-28" x="664.0625"/>
      <use xlink:href="#Helvetica-6f" x="697.363281"/>
      <use xlink:href="#Helvetica-70" x="752.978516"/>
      <use xlink:href="#Helvetica-74" x="808.59375"/>
      <use xlink:href="#Helvetica-29" x="836.376953"/>
     </g>
    </g>
   </g>
  </g>
  <g id="axes_2">
   <g id="patch_60">
    <path d="M 203.425312 138.8 
L 342.397187 138.8 
L 342.397187 7.2 
L 203.425312 7.2 
z
" style="fill: #ffffff"/>
   </g>
   <g id="matplotlib.axis_3">
    <g id="xtick_4">
     <g id="line2d_14">
      <g>
       <use xlink:href="#md33fa27465" x="237.277436" y="138.8" style="stroke: #000000; stroke-width: 0.75"/>
      </g>
     </g>
     <g id="text_12">
      <!-- −0.2 -->
      <g transform="translate(228.394155 151.256094) scale(0.09 -0.09)">
       <use xlink:href="#Helvetica-2212"/>
       <use xlink:href="#Helvetica-30" x="58.398438"/>
       <use xlink:href="#Helvetica-2e" x="114.013672"/>
       <use xlink:href="#Helvetica-32" x="141.796875"/>
      </g>
     </g>
    </g>
    <g id="xtick_5">
     <g id="line2d_15">
      <g>
       <use xlink:href="#md33fa27465" x="272.91125" y="138.8" style="stroke: #000000; stroke-width: 0.75"/>
      </g>
     </g>
     <g id="text_13">
      <!-- 0.0 -->
      <g transform="translate(266.65625 151.256094) scale(0.09 -0.09)">
       <use xlink:href="#Helvetica-30"/>
       <use xlink:href="#Helvetica-2e" x="55.615234"/>
       <use xlink:href="#Helvetica-30" x="83.398438"/>
      </g>
     </g>
    </g>
    <g id="xtick_6">
     <g id="line2d_16">
      <g>
       <use xlink:href="#md33fa27465" x="308.545064" y="138.8" style="stroke: #000000; stroke-width: 0.75"/>
      </g>
     </g>
     <g id="text_14">
      <!-- 0.2 -->
      <g transform="translate(302.290064 151.256094) scale(0.09 -0.09)">
       <use xlink:href="#Helvetica-30"/>
       <use xlink:href="#Helvetica-2e" x="55.615234"/>
       <use xlink:href="#Helvetica-32" x="83.398438"/>
      </g>
     </g>
    </g>
    <g id="text_15">
     <!-- Magnetization -->
     <g transform="translate(244.895937 163.588125) scale(0.09 -0.09)">
      <use xlink:href="#Helvetica-4d"/>
      <use xlink:href="#Helvetica-61" x="83.300781"/>
      <use xlink:href="#Helvetica-67" x="138.916016"/>
      <use xlink:href="#Helvetica-6e" x="194.53125"/>
      <use xlink:href="#Helvetica-65" x="250.146484"/>
      <use xlink:href="#Helvetica-74" x="305.761719"/>
      <use xlink:href="#Helvetica-69" x="333.544922"/>
      <use xlink:href="#Helvetica-7a" x="355.761719"/>
      <use xlink:href="#Helvetica-61" x="405.761719"/>
      <use xlink:href="#Helvetica-74" x="461.376953"/>
      <use xlink:href="#Helvetica-69" x="489.160156"/>
      <use xlink:href="#Helvetica-6f" x="511.376953"/>
      <use xlink:href="#Helvetica-6e" x="566.992188"/>
     </g>
    </g>
   </g>
   <g id="matplotlib.axis_4">
    <g id="ytick_6">
     <g id="line2d_17">
      <path d="M 203.425312 138.8 
L 342.397187 138.8 
" clip-path="url(#pcba4ab3f7f)" style="fill: none; stroke: #bfbfbf; stroke-width: 0.75; stroke-linecap: square"/>
     </g>
     <g id="line2d_18">
      <defs>
       <path id="m5fbfcf2033" d="M 0 0 
L -2.5 0 
"/>
      </defs>
      <g>
       <use xlink:href="#m5fbfcf2033" x="203.425312" y="138.8"/>
      </g>
     </g>
    </g>
    <g id="ytick_7">
     <g id="line2d_19">
      <path d="M 203.425312 106.89697 
L 342.397187 106.89697 
" clip-path="url(#pcba4ab3f7f)" style="fill: none; stroke: #bfbfbf; stroke-width: 0.75; stroke-linecap: square"/>
     </g>
     <g id="line2d_20">
      <g>
       <use xlink:href="#m5fbfcf2033" x="203.425312" y="106.89697"/>
      </g>
     </g>
    </g>
    <g id="ytick_8">
     <g id="line2d_21">
      <path d="M 203.425312 74.993939 
L 342.397187 74.993939 
" clip-path="url(#pcba4ab3f7f)" style="fill: none; stroke: #bfbfbf; stroke-width: 0.75; stroke-linecap: square"/>
     </g>
     <g id="line2d_22">
      <g>
       <use xlink:href="#m5fbfcf2033" x="203.425312" y="74.993939"/>
      </g>
     </g>
    </g>
    <g id="ytick_9">
     <g id="line2d_23">
      <path d="M 203.425312 43.090909 
L 342.397187 43.090909 
" clip-path="url(#pcba4ab3f7f)" style="fill: none; stroke: #bfbfbf; stroke-width: 0.75; stroke-linecap: square"/>
     </g>
     <g id="line2d_24">
      <g>
       <use xlink:href="#m5fbfcf2033" x="203.425312" y="43.090909"/>
      </g>
     </g>
    </g>
    <g id="ytick_10">
     <g id="line2d_25">
      <path d="M 203.425312 11.187879 
L 342.397187 11.187879 
" clip-path="url(#pcba4ab3f7f)" style="fill: none; stroke: #bfbfbf; stroke-width: 0.75; stroke-linecap: square"/>
     </g>
     <g id="line2d_26">
      <g>
       <use xlink:href="#m5fbfcf2033" x="203.425312" y="11.187879"/>
      </g>
     </g>
    </g>
   </g>
   <g id="patch_61">
    <path d="M 208.770385 138.8 
L 211.285713 138.8 
L 211.285713 138.718647 
L 208.770385 138.718647 
z
" clip-path="url(#pcba4ab3f7f)" style="fill: #ff7f00"/>
   </g>
   <g id="patch_62">
    <path d="M 211.285713 138.8 
L 213.801041 138.8 
L 213.801041 138.8 
L 211.285713 138.8 
z
" clip-path="url(#pcba4ab3f7f)" style="fill: #ff7f00"/>
   </g>
   <g id="patch_63">
    <path d="M 213.801041 138.8 
L 216.316369 138.8 
L 216.316369 138.8 
L 213.801041 138.8 
z
" clip-path="url(#pcba4ab3f7f)" style="fill: #ff7f00"/>
   </g>
   <g id="patch_64">
    <path d="M 216.316369 138.8 
L 218.831697 138.8 
L 218.831697 138.8 
L 216.316369 138.8 
z
" clip-path="url(#pcba4ab3f7f)" style="fill: #ff7f00"/>
   </g>
   <g id="patch_65">
    <path d="M 218.831697 138.8 
L 221.347025 138.8 
L 221.347025 138.8 
L 218.831697 138.8 
z
" clip-path="url(#pcba4ab3f7f)" style="fill: #ff7f00"/>
   </g>
   <g id="patch_66">
    <path d="M 221.347025 138.8 
L 223.862353 138.8 
L 223.862353 74.976393 
L 221.347025 74.976393 
z
" clip-path="url(#pcba4ab3f7f)" style="fill: #ff7f00"/>
   </g>
   <g id="patch_67">
    <path d="M 223.862353 138.8 
L 226.377681 138.8 
L 226.377681 138.8 
L 223.862353 138.8 
z
" clip-path="url(#pcba4ab3f7f)" style="fill: #ff7f00"/>
   </g>
   <g id="patch_68">
    <path d="M 226.377681 138.8 
L 228.893009 138.8 
L 228.893009 138.8 
L 226.377681 138.8 
z
" clip-path="url(#pcba4ab3f7f)" style="fill: #ff7f00"/>
   </g>
   <g id="patch_69">
    <path d="M 228.893009 138.8 
L 231.408337 138.8 
L 231.408337 138.8 
L 228.893009 138.8 
z
" clip-path="url(#pcba4ab3f7f)" style="fill: #ff7f00"/>
   </g>
   <g id="patch_70">
    <path d="M 231.408337 138.8 
L 233.923665 138.8 
L 233.923665 138.8 
L 231.408337 138.8 
z
" clip-path="url(#pcba4ab3f7f)" style="fill: #ff7f00"/>
   </g>
   <g id="patch_71">
    <path d="M 233.923665 138.8 
L 236.438993 138.8 
L 236.438993 138.8 
L 233.923665 138.8 
z
" clip-path="url(#pcba4ab3f7f)" style="fill: #ff7f00"/>
   </g>
   <g id="patch_72">
    <path d="M 236.438993 138.8 
L 238.954321 138.8 
L 238.954321 120.01071 
L 236.438993 120.01071 
z
" clip-path="url(#pcba4ab3f7f)" style="fill: #ff7f00"/>
   </g>
   <g id="patch_73">
    <path d="M 238.954321 138.8 
L 241.469649 138.8 
L 241.469649 138.8 
L 238.954321 138.8 
z
" clip-path="url(#pcba4ab3f7f)" style="fill: #ff7f00"/>
   </g>
   <g id="patch_74">
    <path d="M 241.469649 138.8 
L 243.984977 138.8 
L 243.984977 138.8 
L 241.469649 138.8 
z
" clip-path="url(#pcba4ab3f7f)" style="fill: #ff7f00"/>
   </g>
   <g id="patch_75">
    <path d="M 243.984977 138.8 
L 246.500305 138.8 
L 246.500305 138.8 
L 243.984977 138.8 
z
" clip-path="url(#pcba4ab3f7f)" style="fill: #ff7f00"/>
   </g>
   <g id="patch_76">
    <path d="M 246.500305 138.8 
L 249.015633 138.8 
L 249.015633 138.8 
L 246.500305 138.8 
z
" clip-path="url(#pcba4ab3f7f)" style="fill: #ff7f00"/>
   </g>
   <g id="patch_77">
    <path d="M 249.015633 138.8 
L 251.530962 138.8 
L 251.530962 138.8 
L 249.015633 138.8 
z
" clip-path="url(#pcba4ab3f7f)" style="fill: #ff7f00"/>
   </g>
   <g id="patch_78">
    <path d="M 251.530962 138.8 
L 254.04629 138.8 
L 254.04629 134.172465 
L 251.530962 134.172465 
z
" clip-path="url(#pcba4ab3f7f)" style="fill: #ff7f00"/>
   </g>
   <g id="patch_79">
    <path d="M 254.04629 138.8 
L 256.561618 138.8 
L 256.561618 138.8 
L 254.04629 138.8 
z
" clip-path="url(#pcba4ab3f7f)" style="fill: #ff7f00"/>
   </g>
   <g id="patch_80">
    <path d="M 256.561618 138.8 
L 259.076946 138.8 
L 259.076946 138.8 
L 256.561618 138.8 
z
" clip-path="url(#pcba4ab3f7f)" style="fill: #ff7f00"/>
   </g>
   <g id="patch_81">
    <path d="M 259.076946 138.8 
L 261.592274 138.8 
L 261.592274 138.8 
L 259.076946 138.8 
z
" clip-path="url(#pcba4ab3f7f)" style="fill: #ff7f00"/>
   </g>
   <g id="patch_82">
    <path d="M 261.592274 138.8 
L 264.107602 138.8 
L 264.107602 138.8 
L 261.592274 138.8 
z
" clip-path="url(#pcba4ab3f7f)" style="fill: #ff7f00"/>
   </g>
   <g id="patch_83">
    <path d="M 264.107602 138.8 
L 266.62293 138.8 
L 266.62293 138.745765 
L 264.107602 138.745765 
z
" clip-path="url(#pcba4ab3f7f)" style="fill: #ff7f00"/>
   </g>
   <g id="patch_84">
    <path d="M 266.62293 138.8 
L 269.138258 138.8 
L 269.138258 138.8 
L 266.62293 138.8 
z
" clip-path="url(#pcba4ab3f7f)" style="fill: #ff7f00"/>
   </g>
   <g id="patch_85">
    <path d="M 269.138258 138.8 
L 271.653586 138.8 
L 271.653586 138.8 
L 269.138258 138.8 
z
" clip-path="url(#pcba4ab3f7f)" style="fill: #ff7f00"/>
   </g>
   <g id="patch_86">
    <path d="M 271.653586 138.8 
L 274.168914 138.8 
L 274.168914 138.8 
L 271.653586 138.8 
z
" clip-path="url(#pcba4ab3f7f)" style="fill: #ff7f00"/>
   </g>
   <g id="patch_87">
    <path d="M 274.168914 138.8 
L 276.684242 138.8 
L 276.684242 138.8 
L 274.168914 138.8 
z
" clip-path="url(#pcba4ab3f7f)" style="fill: #ff7f00"/>
   </g>
   <g id="patch_88">
    <path d="M 276.684242 138.8 
L 279.19957 138.8 
L 279.19957 138.8 
L 276.684242 138.8 
z
" clip-path="url(#pcba4ab3f7f)" style="fill: #ff7f00"/>
   </g>
   <g id="patch_89">
    <path d="M 279.19957 138.8 
L 281.714898 138.8 
L 281.714898 138.774478 
L 279.19957 138.774478 
z
" clip-path="url(#pcba4ab3f7f)" style="fill: #ff7f00"/>
   </g>
   <g id="patch_90">
    <path d="M 281.714898 138.8 
L 284.230226 138.8 
L 284.230226 138.8 
L 281.714898 138.8 
z
" clip-path="url(#pcba4ab3f7f)" style="fill: #ff7f00"/>
   </g>
   <g id="patch_91">
    <path d="M 284.230226 138.8 
L 286.745554 138.8 
L 286.745554 138.8 
L 284.230226 138.8 
z
" clip-path="url(#pcba4ab3f7f)" style="fill: #ff7f00"/>
   </g>
   <g id="patch_92">
    <path d="M 286.745554 138.8 
L 289.260882 138.8 
L 289.260882 138.8 
L 286.745554 138.8 
z
" clip-path="url(#pcba4ab3f7f)" style="fill: #ff7f00"/>
   </g>
   <g id="patch_93">
    <path d="M 289.260882 138.8 
L 291.77621 138.8 
L 291.77621 138.8 
L 289.260882 138.8 
z
" clip-path="url(#pcba4ab3f7f)" style="fill: #ff7f00"/>
   </g>
   <g id="patch_94">
    <path d="M 291.77621 138.8 
L 294.291538 138.8 
L 294.291538 138.8 
L 291.77621 138.8 
z
" clip-path="url(#pcba4ab3f7f)" style="fill: #ff7f00"/>
   </g>
   <g id="patch_95">
    <path d="M 294.291538 138.8 
L 296.806867 138.8 
L 296.806867 133.622138 
L 294.291538 133.622138 
z
" clip-path="url(#pcba4ab3f7f)" style="fill: #ff7f00"/>
   </g>
   <g id="patch_96">
    <path d="M 296.806867 138.8 
L 299.322195 138.8 
L 299.322195 138.8 
L 296.806867 138.8 
z
" clip-path="url(#pcba4ab3f7f)" style="fill: #ff7f00"/>
   </g>
   <g id="patch_97">
    <path d="M 299.322195 138.8 
L 301.837523 138.8 
L 301.837523 138.8 
L 299.322195 138.8 
z
" clip-path="url(#pcba4ab3f7f)" style="fill: #ff7f00"/>
   </g>
   <g id="patch_98">
    <path d="M 301.837523 138.8 
L 304.352851 138.8 
L 304.352851 138.8 
L 301.837523 138.8 
z
" clip-path="url(#pcba4ab3f7f)" style="fill: #ff7f00"/>
   </g>
   <g id="patch_99">
    <path d="M 304.352851 138.8 
L 306.868179 138.8 
L 306.868179 138.8 
L 304.352851 138.8 
z
" clip-path="url(#pcba4ab3f7f)" style="fill: #ff7f00"/>
   </g>
   <g id="patch_100">
    <path d="M 306.868179 138.8 
L 309.383507 138.8 
L 309.383507 124.285716 
L 306.868179 124.285716 
z
" clip-path="url(#pcba4ab3f7f)" style="fill: #ff7f00"/>
   </g>
   <g id="patch_101">
    <path d="M 309.383507 138.8 
L 311.898835 138.8 
L 311.898835 138.8 
L 309.383507 138.8 
z
" clip-path="url(#pcba4ab3f7f)" style="fill: #ff7f00"/>
   </g>
   <g id="patch_102">
    <path d="M 311.898835 138.8 
L 314.414163 138.8 
L 314.414163 138.8 
L 311.898835 138.8 
z
" clip-path="url(#pcba4ab3f7f)" style="fill: #ff7f00"/>
   </g>
   <g id="patch_103">
    <path d="M 314.414163 138.8 
L 316.929491 138.8 
L 316.929491 138.8 
L 314.414163 138.8 
z
" clip-path="url(#pcba4ab3f7f)" style="fill: #ff7f00"/>
   </g>
   <g id="patch_104">
    <path d="M 316.929491 138.8 
L 319.444819 138.8 
L 319.444819 138.8 
L 316.929491 138.8 
z
" clip-path="url(#pcba4ab3f7f)" style="fill: #ff7f00"/>
   </g>
   <g id="patch_105">
    <path d="M 319.444819 138.8 
L 321.960147 138.8 
L 321.960147 138.8 
L 319.444819 138.8 
z
" clip-path="url(#pcba4ab3f7f)" style="fill: #ff7f00"/>
   </g>
   <g id="patch_106">
    <path d="M 321.960147 138.8 
L 324.475475 138.8 
L 324.475475 86.603452 
L 321.960147 86.603452 
z
" clip-path="url(#pcba4ab3f7f)" style="fill: #ff7f00"/>
   </g>
   <g id="patch_107">
    <path d="M 324.475475 138.8 
L 326.990803 138.8 
L 326.990803 138.8 
L 324.475475 138.8 
z
" clip-path="url(#pcba4ab3f7f)" style="fill: #ff7f00"/>
   </g>
   <g id="patch_108">
    <path d="M 326.990803 138.8 
L 329.506131 138.8 
L 329.506131 138.8 
L 326.990803 138.8 
z
" clip-path="url(#pcba4ab3f7f)" style="fill: #ff7f00"/>
   </g>
   <g id="patch_109">
    <path d="M 329.506131 138.8 
L 332.021459 138.8 
L 332.021459 138.8 
L 329.506131 138.8 
z
" clip-path="url(#pcba4ab3f7f)" style="fill: #ff7f00"/>
   </g>
   <g id="patch_110">
    <path d="M 332.021459 138.8 
L 334.536787 138.8 
L 334.536787 138.8 
L 332.021459 138.8 
z
" clip-path="url(#pcba4ab3f7f)" style="fill: #ff7f00"/>
   </g>
   <g id="patch_111">
    <path d="M 334.536787 138.8 
L 337.052115 138.8 
L 337.052115 138.573488 
L 334.536787 138.573488 
z
" clip-path="url(#pcba4ab3f7f)" style="fill: #ff7f00"/>
   </g>
   <g id="patch_112">
    <path d="M 203.425312 138.8 
L 203.425312 7.2 
" style="fill: none; stroke: #000000; stroke-width: 0.75; stroke-linejoin: miter; stroke-linecap: square"/>
   </g>
   <g id="patch_113">
    <path d="M 342.397187 138.8 
L 342.397187 7.2 
" style="fill: none; stroke: #000000; stroke-width: 0.75; stroke-linejoin: miter; stroke-linecap: square"/>
   </g>
   <g id="patch_114">
    <path d="M 203.425312 138.8 
L 342.397187 138.8 
" style="fill: none; stroke: #000000; stroke-width: 0.75; stroke-linejoin: miter; stroke-linecap: square"/>
   </g>
   <g id="patch_115">
    <path d="M 203.425312 7.2 
L 342.397187 7.2 
" style="fill: none; stroke: #000000; stroke-width: 0.75; stroke-linejoin: miter; stroke-linecap: square"/>
   </g>
   <g id="legend_2">
    <g id="patch_116">
     <path d="M 209.725312 27.368437 
L 323.295469 27.368437 
Q 325.095469 27.368437 325.095469 25.568437 
L 325.095469 13.5 
Q 325.095469 11.7 323.295469 11.7 
L 209.725312 11.7 
Q 207.925312 11.7 207.925312 13.5 
L 207.925312 25.568437 
Q 207.925312 27.368437 209.725312 27.368437 
z
" style="fill: #ffffff; opacity: 0.8; stroke: #cccccc; stroke-linejoin: miter"/>
    </g>
    <g id="patch_117">
     <path d="M 211.525312 21.8925 
L 229.525312 21.8925 
L 229.525312 15.5925 
L 211.525312 15.5925 
z
" style="fill: #ff7f00"/>
    </g>
    <g id="text_16">
     <!-- MADE+QAOA (fixed) -->
     <g transform="translate(236.725312 21.8925) scale(0.09 -0.09)">
      <defs>
       <path id="Helvetica-66" d="M 553 3856 
Q 566 4206 675 4369 
Q 872 4656 1434 4656 
Q 1488 4656 1544 4653 
Q 1600 4650 1672 4644 
L 1672 4131 
Q 1584 4138 1545 4139 
Q 1506 4141 1472 4141 
Q 1216 4141 1166 4008 
Q 1116 3875 1116 3331 
L 1672 3331 
L 1672 2888 
L 1109 2888 
L 1109 0 
L 553 0 
L 553 2888 
L 88 2888 
L 88 3331 
L 553 3331 
L 553 3856 
z
" transform="scale(0.015625)"/>
       <path id="Helvetica-78" d="M 94 3347 
L 822 3347 
L 1591 2169 
L 2369 3347 
L 3053 3331 
L 1925 1716 
L 3103 0 
L 2384 0 
L 1553 1256 
L 747 0 
L 34 0 
L 1213 1716 
L 94 3347 
z
" transform="scale(0.015625)"/>
       <path id="Helvetica-64" d="M 769 1634 
Q 769 1097 997 734 
Q 1225 372 1728 372 
Q 2119 372 2370 708 
Q 2622 1044 2622 1672 
Q 2622 2306 2362 2611 
Q 2103 2916 1722 2916 
Q 1297 2916 1033 2591 
Q 769 2266 769 1634 
z
M 1616 3406 
Q 2000 3406 2259 3244 
Q 2409 3150 2600 2916 
L 2600 4606 
L 3141 4606 
L 3141 0 
L 2634 0 
L 2634 466 
Q 2438 156 2169 18 
Q 1900 -119 1553 -119 
Q 994 -119 584 351 
Q 175 822 175 1603 
Q 175 2334 548 2870 
Q 922 3406 1616 3406 
z
" transform="scale(0.015625)"/>
      </defs>
      <use xlink:href="#Helvetica-4d"/>
      <use xlink:href="#Helvetica-41" x="83.300781"/>
      <use xlink:href="#Helvetica-44" x="150"/>
      <use xlink:href="#Helvetica-45" x="222.216797"/>
      <use xlink:href="#Helvetica-2b" x="288.916016"/>
      <use xlink:href="#Helvetica-51" x="347.314453"/>
      <use xlink:href="#Helvetica-41" x="425.097656"/>
      <use xlink:href="#Helvetica-4f" x="491.796875"/>
      <use xlink:href="#Helvetica-41" x="569.580078"/>
      <use xlink:href="#Helvetica-20" x="636.279297"/>
      <use xlink:href="#Helvetica-28" x="664.0625"/>
      <use xlink:href="#Helvetica-66" x="697.363281"/>
      <use xlink:href="#Helvetica-69" x="725.146484"/>
      <use xlink:href="#Helvetica-78" x="747.363281"/>
      <use xlink:href="#Helvetica-65" x="797.363281"/>
      <use xlink:href="#Helvetica-64" x="852.978516"/>
      <use xlink:href="#Helvetica-29" x="908.59375"/>
     </g>
    </g>
   </g>
  </g>
  <g id="axes_3">
   <g id="patch_118">
    <path d="M 356.294375 138.8 
L 495.26625 138.8 
L 495.26625 7.2 
L 356.294375 7.2 
z
" style="fill: #ffffff"/>
   </g>
   <g id="matplotlib.axis_5">
    <g id="xtick_7">
     <g id="line2d_27">
      <g>
       <use xlink:href="#md33fa27465" x="390.146498" y="138.8" style="stroke: #000000; stroke-width: 0.75"/>
      </g>
     </g>
     <g id="text_17">
      <!-- −0.2 -->
      <g transform="translate(381.263217 151.256094) scale(0.09 -0.09)">
       <use xlink:href="#Helvetica-2212"/>
       <use xlink:href="#Helvetica-30" x="58.398438"/>
       <use xlink:href="#Helvetica-2e" x="114.013672"/>
       <use xlink:href="#Helvetica-32" x="141.796875"/>
      </g>
     </g>
    </g>
    <g id="xtick_8">
     <g id="line2d_28">
      <g>
       <use xlink:href="#md33fa27465" x="425.780312" y="138.8" style="stroke: #000000; stroke-width: 0.75"/>
      </g>
     </g>
     <g id="text_18">
      <!-- 0.0 -->
      <g transform="translate(419.525312 151.256094) scale(0.09 -0.09)">
       <use xlink:href="#Helvetica-30"/>
       <use xlink:href="#Helvetica-2e" x="55.615234"/>
       <use xlink:href="#Helvetica-30" x="83.398438"/>
      </g>
     </g>
    </g>
    <g id="xtick_9">
     <g id="line2d_29">
      <g>
       <use xlink:href="#md33fa27465" x="461.414127" y="138.8" style="stroke: #000000; stroke-width: 0.75"/>
      </g>
     </g>
     <g id="text_19">
      <!-- 0.2 -->
      <g transform="translate(455.159127 151.256094) scale(0.09 -0.09)">
       <use xlink:href="#Helvetica-30"/>
       <use xlink:href="#Helvetica-2e" x="55.615234"/>
       <use xlink:href="#Helvetica-32" x="83.398438"/>
      </g>
     </g>
    </g>
    <g id="text_20">
     <!-- Magnetization -->
     <g transform="translate(397.765 163.588125) scale(0.09 -0.09)">
      <use xlink:href="#Helvetica-4d"/>
      <use xlink:href="#Helvetica-61" x="83.300781"/>
      <use xlink:href="#Helvetica-67" x="138.916016"/>
      <use xlink:href="#Helvetica-6e" x="194.53125"/>
      <use xlink:href="#Helvetica-65" x="250.146484"/>
      <use xlink:href="#Helvetica-74" x="305.761719"/>
      <use xlink:href="#Helvetica-69" x="333.544922"/>
      <use xlink:href="#Helvetica-7a" x="355.761719"/>
      <use xlink:href="#Helvetica-61" x="405.761719"/>
      <use xlink:href="#Helvetica-74" x="461.376953"/>
      <use xlink:href="#Helvetica-69" x="489.160156"/>
      <use xlink:href="#Helvetica-6f" x="511.376953"/>
      <use xlink:href="#Helvetica-6e" x="566.992188"/>
     </g>
    </g>
   </g>
   <g id="matplotlib.axis_6">
    <g id="ytick_11">
     <g id="line2d_30">
      <path d="M 356.294375 138.8 
L 495.26625 138.8 
" clip-path="url(#p3c4ff90543)" style="fill: none; stroke: #bfbfbf; stroke-width: 0.75; stroke-linecap: square"/>
     </g>
     <g id="line2d_31">
      <g>
       <use xlink:href="#m5fbfcf2033" x="356.294375" y="138.8"/>
      </g>
     </g>
    </g>
    <g id="ytick_12">
     <g id="line2d_32">
      <path d="M 356.294375 106.89697 
L 495.26625 106.89697 
" clip-path="url(#p3c4ff90543)" style="fill: none; stroke: #bfbfbf; stroke-width: 0.75; stroke-linecap: square"/>
     </g>
     <g id="line2d_33">
      <g>
       <use xlink:href="#m5fbfcf2033" x="356.294375" y="106.89697"/>
      </g>
     </g>
    </g>
    <g id="ytick_13">
     <g id="line2d_34">
      <path d="M 356.294375 74.993939 
L 495.26625 74.993939 
" clip-path="url(#p3c4ff90543)" style="fill: none; stroke: #bfbfbf; stroke-width: 0.75; stroke-linecap: square"/>
     </g>
     <g id="line2d_35">
      <g>
       <use xlink:href="#m5fbfcf2033" x="356.294375" y="74.993939"/>
      </g>
     </g>
    </g>
    <g id="ytick_14">
     <g id="line2d_36">
      <path d="M 356.294375 43.090909 
L 495.26625 43.090909 
" clip-path="url(#p3c4ff90543)" style="fill: none; stroke: #bfbfbf; stroke-width: 0.75; stroke-linecap: square"/>
     </g>
     <g id="line2d_37">
      <g>
       <use xlink:href="#m5fbfcf2033" x="356.294375" y="43.090909"/>
      </g>
     </g>
    </g>
    <g id="ytick_15">
     <g id="line2d_38">
      <path d="M 356.294375 11.187879 
L 495.26625 11.187879 
" clip-path="url(#p3c4ff90543)" style="fill: none; stroke: #bfbfbf; stroke-width: 0.75; stroke-linecap: square"/>
     </g>
     <g id="line2d_39">
      <g>
       <use xlink:href="#m5fbfcf2033" x="356.294375" y="11.187879"/>
      </g>
     </g>
    </g>
   </g>
   <g id="patch_119">
    <path d="M 375.892973 138.8 
L 378.12882 138.8 
L 378.12882 138.792024 
L 375.892973 138.792024 
z
" clip-path="url(#p3c4ff90543)" style="fill: #1f78b4"/>
   </g>
   <g id="patch_120">
    <path d="M 378.12882 138.8 
L 380.364667 138.8 
L 380.364667 138.8 
L 378.12882 138.8 
z
" clip-path="url(#p3c4ff90543)" style="fill: #1f78b4"/>
   </g>
   <g id="patch_121">
    <path d="M 380.364667 138.8 
L 382.600514 138.8 
L 382.600514 138.8 
L 380.364667 138.8 
z
" clip-path="url(#p3c4ff90543)" style="fill: #1f78b4"/>
   </g>
   <g id="patch_122">
    <path d="M 382.600514 138.8 
L 384.836361 138.8 
L 384.836361 138.8 
L 382.600514 138.8 
z
" clip-path="url(#p3c4ff90543)" style="fill: #1f78b4"/>
   </g>
   <g id="patch_123">
    <path d="M 384.836361 138.8 
L 387.072209 138.8 
L 387.072209 138.8 
L 384.836361 138.8 
z
" clip-path="url(#p3c4ff90543)" style="fill: #1f78b4"/>
   </g>
   <g id="patch_124">
    <path d="M 387.072209 138.8 
L 389.308056 138.8 
L 389.308056 138.8 
L 387.072209 138.8 
z
" clip-path="url(#p3c4ff90543)" style="fill: #1f78b4"/>
   </g>
   <g id="patch_125">
    <path d="M 389.308056 138.8 
L 391.543903 138.8 
L 391.543903 138.776073 
L 389.308056 138.776073 
z
" clip-path="url(#p3c4ff90543)" style="fill: #1f78b4"/>
   </g>
   <g id="patch_126">
    <path d="M 391.543903 138.8 
L 393.77975 138.8 
L 393.77975 138.8 
L 391.543903 138.8 
z
" clip-path="url(#p3c4ff90543)" style="fill: #1f78b4"/>
   </g>
   <g id="patch_127">
    <path d="M 393.77975 138.8 
L 396.015597 138.8 
L 396.015597 138.8 
L 393.77975 138.8 
z
" clip-path="url(#p3c4ff90543)" style="fill: #1f78b4"/>
   </g>
   <g id="patch_128">
    <path d="M 396.015597 138.8 
L 398.251444 138.8 
L 398.251444 138.8 
L 396.015597 138.8 
z
" clip-path="url(#p3c4ff90543)" style="fill: #1f78b4"/>
   </g>
   <g id="patch_129">
    <path d="M 398.251444 138.8 
L 400.487292 138.8 
L 400.487292 138.8 
L 398.251444 138.8 
z
" clip-path="url(#p3c4ff90543)" style="fill: #1f78b4"/>
   </g>
   <g id="patch_130">
    <path d="M 400.487292 138.8 
L 402.723139 138.8 
L 402.723139 138.8 
L 400.487292 138.8 
z
" clip-path="url(#p3c4ff90543)" style="fill: #1f78b4"/>
   </g>
   <g id="patch_131">
    <path d="M 402.723139 138.8 
L 404.958986 138.8 
L 404.958986 138.752145 
L 402.723139 138.752145 
z
" clip-path="url(#p3c4ff90543)" style="fill: #1f78b4"/>
   </g>
   <g id="patch_132">
    <path d="M 404.958986 138.8 
L 407.194833 138.8 
L 407.194833 138.8 
L 404.958986 138.8 
z
" clip-path="url(#p3c4ff90543)" style="fill: #1f78b4"/>
   </g>
   <g id="patch_133">
    <path d="M 407.194833 138.8 
L 409.43068 138.8 
L 409.43068 138.8 
L 407.194833 138.8 
z
" clip-path="url(#p3c4ff90543)" style="fill: #1f78b4"/>
   </g>
   <g id="patch_134">
    <path d="M 409.43068 138.8 
L 411.666527 138.8 
L 411.666527 138.8 
L 409.43068 138.8 
z
" clip-path="url(#p3c4ff90543)" style="fill: #1f78b4"/>
   </g>
   <g id="patch_135">
    <path d="M 411.666527 138.8 
L 413.902374 138.8 
L 413.902374 138.8 
L 411.666527 138.8 
z
" clip-path="url(#p3c4ff90543)" style="fill: #1f78b4"/>
   </g>
   <g id="patch_136">
    <path d="M 413.902374 138.8 
L 416.138222 138.8 
L 416.138222 138.8 
L 413.902374 138.8 
z
" clip-path="url(#p3c4ff90543)" style="fill: #1f78b4"/>
   </g>
   <g id="patch_137">
    <path d="M 416.138222 138.8 
L 418.374069 138.8 
L 418.374069 138.8 
L 416.138222 138.8 
z
" clip-path="url(#p3c4ff90543)" style="fill: #1f78b4"/>
   </g>
   <g id="patch_138">
    <path d="M 418.374069 138.8 
L 420.609916 138.8 
L 420.609916 138.576679 
L 418.374069 138.576679 
z
" clip-path="url(#p3c4ff90543)" style="fill: #1f78b4"/>
   </g>
   <g id="patch_139">
    <path d="M 420.609916 138.8 
L 422.845763 138.8 
L 422.845763 138.8 
L 420.609916 138.8 
z
" clip-path="url(#p3c4ff90543)" style="fill: #1f78b4"/>
   </g>
   <g id="patch_140">
    <path d="M 422.845763 138.8 
L 425.08161 138.8 
L 425.08161 138.8 
L 422.845763 138.8 
z
" clip-path="url(#p3c4ff90543)" style="fill: #1f78b4"/>
   </g>
   <g id="patch_141">
    <path d="M 425.08161 138.8 
L 427.317457 138.8 
L 427.317457 138.8 
L 425.08161 138.8 
z
" clip-path="url(#p3c4ff90543)" style="fill: #1f78b4"/>
   </g>
   <g id="patch_142">
    <path d="M 427.317457 138.8 
L 429.553305 138.8 
L 429.553305 138.8 
L 427.317457 138.8 
z
" clip-path="url(#p3c4ff90543)" style="fill: #1f78b4"/>
   </g>
   <g id="patch_143">
    <path d="M 429.553305 138.8 
L 431.789152 138.8 
L 431.789152 138.8 
L 429.553305 138.8 
z
" clip-path="url(#p3c4ff90543)" style="fill: #1f78b4"/>
   </g>
   <g id="patch_144">
    <path d="M 431.789152 138.8 
L 434.024999 138.8 
L 434.024999 138.361333 
L 431.789152 138.361333 
z
" clip-path="url(#p3c4ff90543)" style="fill: #1f78b4"/>
   </g>
   <g id="patch_145">
    <path d="M 434.024999 138.8 
L 436.260846 138.8 
L 436.260846 138.8 
L 434.024999 138.8 
z
" clip-path="url(#p3c4ff90543)" style="fill: #1f78b4"/>
   </g>
   <g id="patch_146">
    <path d="M 436.260846 138.8 
L 438.496693 138.8 
L 438.496693 138.8 
L 436.260846 138.8 
z
" clip-path="url(#p3c4ff90543)" style="fill: #1f78b4"/>
   </g>
   <g id="patch_147">
    <path d="M 438.496693 138.8 
L 440.73254 138.8 
L 440.73254 138.8 
L 438.496693 138.8 
z
" clip-path="url(#p3c4ff90543)" style="fill: #1f78b4"/>
   </g>
   <g id="patch_148">
    <path d="M 440.73254 138.8 
L 442.968388 138.8 
L 442.968388 138.8 
L 440.73254 138.8 
z
" clip-path="url(#p3c4ff90543)" style="fill: #1f78b4"/>
   </g>
   <g id="patch_149">
    <path d="M 442.968388 138.8 
L 445.204235 138.8 
L 445.204235 138.8 
L 442.968388 138.8 
z
" clip-path="url(#p3c4ff90543)" style="fill: #1f78b4"/>
   </g>
   <g id="patch_150">
    <path d="M 445.204235 138.8 
L 447.440082 138.8 
L 447.440082 129.873532 
L 445.204235 129.873532 
z
" clip-path="url(#p3c4ff90543)" style="fill: #1f78b4"/>
   </g>
   <g id="patch_151">
    <path d="M 447.440082 138.8 
L 449.675929 138.8 
L 449.675929 138.8 
L 447.440082 138.8 
z
" clip-path="url(#p3c4ff90543)" style="fill: #1f78b4"/>
   </g>
   <g id="patch_152">
    <path d="M 449.675929 138.8 
L 451.911776 138.8 
L 451.911776 138.8 
L 449.675929 138.8 
z
" clip-path="url(#p3c4ff90543)" style="fill: #1f78b4"/>
   </g>
   <g id="patch_153">
    <path d="M 451.911776 138.8 
L 454.147623 138.8 
L 454.147623 138.8 
L 451.911776 138.8 
z
" clip-path="url(#p3c4ff90543)" style="fill: #1f78b4"/>
   </g>
   <g id="patch_154">
    <path d="M 454.147623 138.8 
L 456.38347 138.8 
L 456.38347 138.8 
L 454.147623 138.8 
z
" clip-path="url(#p3c4ff90543)" style="fill: #1f78b4"/>
   </g>
   <g id="patch_155">
    <path d="M 456.38347 138.8 
L 458.619318 138.8 
L 458.619318 138.8 
L 456.38347 138.8 
z
" clip-path="url(#p3c4ff90543)" style="fill: #1f78b4"/>
   </g>
   <g id="patch_156">
    <path d="M 458.619318 138.8 
L 460.855165 138.8 
L 460.855165 138.8 
L 458.619318 138.8 
z
" clip-path="url(#p3c4ff90543)" style="fill: #1f78b4"/>
   </g>
   <g id="patch_157">
    <path d="M 460.855165 138.8 
L 463.091012 138.8 
L 463.091012 104.418104 
L 460.855165 104.418104 
z
" clip-path="url(#p3c4ff90543)" style="fill: #1f78b4"/>
   </g>
   <g id="patch_158">
    <path d="M 463.091012 138.8 
L 465.326859 138.8 
L 465.326859 138.8 
L 463.091012 138.8 
z
" clip-path="url(#p3c4ff90543)" style="fill: #1f78b4"/>
   </g>
   <g id="patch_159">
    <path d="M 465.326859 138.8 
L 467.562706 138.8 
L 467.562706 138.8 
L 465.326859 138.8 
z
" clip-path="url(#p3c4ff90543)" style="fill: #1f78b4"/>
   </g>
   <g id="patch_160">
    <path d="M 467.562706 138.8 
L 469.798553 138.8 
L 469.798553 138.8 
L 467.562706 138.8 
z
" clip-path="url(#p3c4ff90543)" style="fill: #1f78b4"/>
   </g>
   <g id="patch_161">
    <path d="M 469.798553 138.8 
L 472.034401 138.8 
L 472.034401 138.8 
L 469.798553 138.8 
z
" clip-path="url(#p3c4ff90543)" style="fill: #1f78b4"/>
   </g>
   <g id="patch_162">
    <path d="M 472.034401 138.8 
L 474.270248 138.8 
L 474.270248 138.8 
L 472.034401 138.8 
z
" clip-path="url(#p3c4ff90543)" style="fill: #1f78b4"/>
   </g>
   <g id="patch_163">
    <path d="M 474.270248 138.8 
L 476.506095 138.8 
L 476.506095 24.233028 
L 474.270248 24.233028 
z
" clip-path="url(#p3c4ff90543)" style="fill: #1f78b4"/>
   </g>
   <g id="patch_164">
    <path d="M 476.506095 138.8 
L 478.741942 138.8 
L 478.741942 138.8 
L 476.506095 138.8 
z
" clip-path="url(#p3c4ff90543)" style="fill: #1f78b4"/>
   </g>
   <g id="patch_165">
    <path d="M 478.741942 138.8 
L 480.977789 138.8 
L 480.977789 138.8 
L 478.741942 138.8 
z
" clip-path="url(#p3c4ff90543)" style="fill: #1f78b4"/>
   </g>
   <g id="patch_166">
    <path d="M 480.977789 138.8 
L 483.213636 138.8 
L 483.213636 138.8 
L 480.977789 138.8 
z
" clip-path="url(#p3c4ff90543)" style="fill: #1f78b4"/>
   </g>
   <g id="patch_167">
    <path d="M 483.213636 138.8 
L 485.449484 138.8 
L 485.449484 138.8 
L 483.213636 138.8 
z
" clip-path="url(#p3c4ff90543)" style="fill: #1f78b4"/>
   </g>
   <g id="patch_168">
    <path d="M 485.449484 138.8 
L 487.685331 138.8 
L 487.685331 138.8 
L 485.449484 138.8 
z
" clip-path="url(#p3c4ff90543)" style="fill: #1f78b4"/>
   </g>
   <g id="patch_169">
    <path d="M 487.685331 138.8 
L 489.921178 138.8 
L 489.921178 137.900335 
L 487.685331 137.900335 
z
" clip-path="url(#p3c4ff90543)" style="fill: #1f78b4"/>
   </g>
   <g id="patch_170">
    <path d="M 356.294375 138.8 
L 356.294375 7.2 
" style="fill: none; stroke: #000000; stroke-width: 0.75; stroke-linejoin: miter; stroke-linecap: square"/>
   </g>
   <g id="patch_171">
    <path d="M 495.26625 138.8 
L 495.26625 7.2 
" style="fill: none; stroke: #000000; stroke-width: 0.75; stroke-linejoin: miter; stroke-linecap: square"/>
   </g>
   <g id="patch_172">
    <path d="M 356.294375 138.8 
L 495.26625 138.8 
" style="fill: none; stroke: #000000; stroke-width: 0.75; stroke-linejoin: miter; stroke-linecap: square"/>
   </g>
   <g id="patch_173">
    <path d="M 356.294375 7.2 
L 495.26625 7.2 
" style="fill: none; stroke: #000000; stroke-width: 0.75; stroke-linejoin: miter; stroke-linecap: square"/>
   </g>
   <g id="legend_3">
    <g id="patch_174">
     <path d="M 362.594375 27.232031 
L 408.897969 27.232031 
Q 410.697969 27.232031 410.697969 25.432031 
L 410.697969 13.5 
Q 410.697969 11.7 408.897969 11.7 
L 362.594375 11.7 
Q 360.794375 11.7 360.794375 13.5 
L 360.794375 25.432031 
Q 360.794375 27.232031 362.594375 27.232031 
z
" style="fill: #ffffff; opacity: 0.8; stroke: #cccccc; stroke-linejoin: miter"/>
    </g>
    <g id="patch_175">
     <path d="M 364.394375 21.756094 
L 382.394375 21.756094 
L 382.394375 15.456094 
L 364.394375 15.456094 
z
" style="fill: #1f78b4"/>
    </g>
    <g id="text_21">
     <!-- SSF -->
     <g transform="translate(389.594375 21.756094) scale(0.09 -0.09)">
      <defs>
       <path id="Helvetica-53" d="M 894 1481 
Q 916 1091 1078 847 
Q 1388 391 2169 391 
Q 2519 391 2806 491 
Q 3363 684 3363 1184 
Q 3363 1559 3128 1719 
Q 2891 1875 2384 1991 
L 1763 2131 
Q 1153 2269 900 2434 
Q 463 2722 463 3294 
Q 463 3913 891 4309 
Q 1319 4706 2103 4706 
Q 2825 4706 3329 4357 
Q 3834 4009 3834 3244 
L 3250 3244 
Q 3203 3613 3050 3809 
Q 2766 4169 2084 4169 
Q 1534 4169 1293 3937 
Q 1053 3706 1053 3400 
Q 1053 3063 1334 2906 
Q 1519 2806 2169 2656 
L 2813 2509 
Q 3278 2403 3531 2219 
Q 3969 1897 3969 1284 
Q 3969 522 3414 194 
Q 2859 -134 2125 -134 
Q 1269 -134 784 303 
Q 300 738 309 1481 
L 894 1481 
z
M 2150 4716 
L 2150 4716 
z
" transform="scale(0.015625)"/>
       <path id="Helvetica-46" d="M 547 4591 
L 3731 4591 
L 3731 4028 
L 1169 4028 
L 1169 2634 
L 3422 2634 
L 3422 2088 
L 1169 2088 
L 1169 0 
L 547 0 
L 547 4591 
z
" transform="scale(0.015625)"/>
      </defs>
      <use xlink:href="#Helvetica-53"/>
      <use xlink:href="#Helvetica-53" x="66.699219"/>
      <use xlink:href="#Helvetica-46" x="133.398438"/>
     </g>
    </g>
   </g>
  </g>
 </g>
 <defs>
  <clipPath id="pf02c790d04">
   <rect x="50.55625" y="7.2" width="138.971875" height="131.6"/>
  </clipPath>
  <clipPath id="pcba4ab3f7f">
   <rect x="203.425312" y="7.2" width="138.971875" height="131.6"/>
  </clipPath>
  <clipPath id="p3c4ff90543">
   <rect x="356.294375" y="7.2" width="138.971875" height="131.6"/>
  </clipPath>
 </defs>
</svg>
