<?xml version="1.0" encoding="utf-8" standalone="no"?>
<!DOCTYPE svg PUBLIC "-//W3C//DTD SVG 1.1//EN"
  "http://www.w3.org/Graphics/SVG/1.1/DTD/svg11.dtd">
<svg xmlns:xlink="http://www.w3.org/1999/xlink" width="257.235922pt" height="239.388047pt" viewBox="0 0 257.235922 239.388047" xmlns="http://www.w3.org/2000/svg" version="1.1">
 <metadata>
  <rdf:RDF xmlns:dc="http://purl.org/dc/elements/1.1/" xmlns:cc="http://creativecommons.org/ns#" xmlns:rdf="http://www.w3.org/1999/02/22-rdf-syntax-ns#">
   <cc:Work>
    <dc:type rdf:resource="http://purl.org/dc/dcmitype/StillImage"/>
    <dc:date>2024-12-06T14:04:33.825046</dc:date>
    <dc:format>image/svg+xml</dc:format>
    <dc:creator>
     <cc:Agent>
      <dc:title>Matplotlib v3.8.4, https://matplotlib.org/</dc:title>
     </cc:Agent>
    </dc:creator>
   </cc:Work>
  </rdf:RDF>
 </metadata>
 <defs>
  <style type="text/css">*{stroke-linejoin: round; stroke-linecap: butt}</style>
 </defs>
 <g id="figure_1">
  <g id="patch_1">
   <path d="M 0 239.388047 
L 257.235922 239.388047 
L 257.235922 0 
L 0 0 
z
" style="fill: #ffffff"/>
  </g>
  <g id="axes_1">
   <g id="patch_2">
    <path d="M 44.3 148.167177 
L 227.882 148.167177 
L 227.882 10.428047 
L 44.3 10.428047 
z
" style="fill: #ffffff"/>
   </g>
   <g id="matplotlib.axis_1">
    <g id="xtick_1">
     <g id="line2d_1">
      <defs>
       <path id="ma7be864dd0" d="M 0 0 
L 0 3.5 
" style="stroke: #000000; stroke-width: 0.75"/>
      </defs>
      <g>
       <use xlink:href="#ma7be864dd0" x="52.644636" y="148.167177" style="stroke: #000000; stroke-width: 0.75"/>
      </g>
     </g>
     <g id="text_1">
      <!-- 3 -->
      <g transform="translate(50.142214 161.623271) scale(0.09 -0.09)">
       <defs>
        <path id="Helvetica-33" d="M 1663 -122 
Q 869 -122 511 314 
Q 153 750 153 1375 
L 741 1375 
Q 778 941 903 744 
Q 1122 391 1694 391 
Q 2138 391 2406 628 
Q 2675 866 2675 1241 
Q 2675 1703 2392 1887 
Q 2109 2072 1606 2072 
Q 1550 2072 1492 2070 
Q 1434 2069 1375 2066 
L 1375 2563 
Q 1463 2553 1522 2550 
Q 1581 2547 1650 2547 
Q 1966 2547 2169 2647 
Q 2525 2822 2525 3272 
Q 2525 3606 2287 3787 
Q 2050 3969 1734 3969 
Q 1172 3969 956 3594 
Q 838 3388 822 3006 
L 266 3006 
Q 266 3506 466 3856 
Q 809 4481 1675 4481 
Q 2359 4481 2734 4176 
Q 3109 3872 3109 3294 
Q 3109 2881 2888 2625 
Q 2750 2466 2531 2375 
Q 2884 2278 3082 2001 
Q 3281 1725 3281 1325 
Q 3281 684 2859 281 
Q 2438 -122 1663 -122 
z
" transform="scale(0.015625)"/>
       </defs>
       <use xlink:href="#Helvetica-33"/>
      </g>
     </g>
    </g>
    <g id="xtick_2">
     <g id="line2d_2">
      <g>
       <use xlink:href="#ma7be864dd0" x="71.188273" y="148.167177" style="stroke: #000000; stroke-width: 0.75"/>
      </g>
     </g>
     <g id="text_2">
      <!-- 4 -->
      <g transform="translate(68.685851 161.623271) scale(0.09 -0.09)">
       <defs>
        <path id="Helvetica-34" d="M 2116 1584 
L 2116 3613 
L 681 1584 
L 2116 1584 
z
M 2125 0 
L 2125 1094 
L 163 1094 
L 163 1644 
L 2213 4488 
L 2688 4488 
L 2688 1584 
L 3347 1584 
L 3347 1094 
L 2688 1094 
L 2688 0 
L 2125 0 
z
" transform="scale(0.015625)"/>
       </defs>
       <use xlink:href="#Helvetica-34"/>
      </g>
     </g>
    </g>
    <g id="xtick_3">
     <g id="line2d_3">
      <g>
       <use xlink:href="#ma7be864dd0" x="89.731909" y="148.167177" style="stroke: #000000; stroke-width: 0.75"/>
      </g>
     </g>
     <g id="text_3">
      <!-- 5 -->
      <g transform="translate(87.229487 161.623271) scale(0.09 -0.09)">
       <defs>
        <path id="Helvetica-35" d="M 791 1141 
Q 847 659 1238 475 
Q 1438 381 1700 381 
Q 2200 381 2440 700 
Q 2681 1019 2681 1406 
Q 2681 1875 2395 2131 
Q 2109 2388 1709 2388 
Q 1419 2388 1211 2275 
Q 1003 2163 856 1963 
L 369 1991 
L 709 4400 
L 3034 4400 
L 3034 3856 
L 1131 3856 
L 941 2613 
Q 1097 2731 1238 2791 
Q 1488 2894 1816 2894 
Q 2431 2894 2859 2497 
Q 3288 2100 3288 1491 
Q 3288 856 2895 371 
Q 2503 -113 1644 -113 
Q 1097 -113 676 195 
Q 256 503 206 1141 
L 791 1141 
z
" transform="scale(0.015625)"/>
       </defs>
       <use xlink:href="#Helvetica-35"/>
      </g>
     </g>
    </g>
    <g id="xtick_4">
     <g id="line2d_4">
      <g>
       <use xlink:href="#ma7be864dd0" x="108.275545" y="148.167177" style="stroke: #000000; stroke-width: 0.75"/>
      </g>
     </g>
     <g id="text_4">
      <!-- 6 -->
      <g transform="translate(105.773124 161.623271) scale(0.09 -0.09)">
       <defs>
        <path id="Helvetica-36" d="M 1872 4494 
Q 2622 4494 2917 4105 
Q 3213 3716 3213 3303 
L 2656 3303 
Q 2606 3569 2497 3719 
Q 2294 4000 1881 4000 
Q 1409 4000 1131 3564 
Q 853 3128 822 2316 
Q 1016 2600 1309 2741 
Q 1578 2866 1909 2866 
Q 2472 2866 2890 2506 
Q 3309 2147 3309 1434 
Q 3309 825 2912 354 
Q 2516 -116 1781 -116 
Q 1153 -116 697 361 
Q 241 838 241 1966 
Q 241 2800 444 3381 
Q 834 4494 1872 4494 
z
M 1831 384 
Q 2275 384 2495 682 
Q 2716 981 2716 1388 
Q 2716 1731 2519 2042 
Q 2322 2353 1803 2353 
Q 1441 2353 1167 2112 
Q 894 1872 894 1388 
Q 894 963 1142 673 
Q 1391 384 1831 384 
z
" transform="scale(0.015625)"/>
       </defs>
       <use xlink:href="#Helvetica-36"/>
      </g>
     </g>
    </g>
    <g id="xtick_5">
     <g id="line2d_5">
      <g>
       <use xlink:href="#ma7be864dd0" x="126.819182" y="148.167177" style="stroke: #000000; stroke-width: 0.75"/>
      </g>
     </g>
     <g id="text_5">
      <!-- 7 -->
      <g transform="translate(124.31676 161.623271) scale(0.09 -0.09)">
       <defs>
        <path id="Helvetica-37" d="M 3347 4400 
L 3347 3909 
Q 3131 3700 2773 3181 
Q 2416 2663 2141 2063 
Q 1869 1478 1728 997 
Q 1638 688 1494 0 
L 872 0 
Q 1084 1281 1809 2550 
Q 2238 3294 2709 3834 
L 234 3834 
L 234 4400 
L 3347 4400 
z
" transform="scale(0.015625)"/>
       </defs>
       <use xlink:href="#Helvetica-37"/>
      </g>
     </g>
    </g>
    <g id="xtick_6">
     <g id="line2d_6">
      <g>
       <use xlink:href="#ma7be864dd0" x="145.362818" y="148.167177" style="stroke: #000000; stroke-width: 0.75"/>
      </g>
     </g>
     <g id="text_6">
      <!-- 8 -->
      <g transform="translate(142.860396 161.623271) scale(0.09 -0.09)">
       <defs>
        <path id="Helvetica-38" d="M 1741 2600 
Q 2113 2600 2322 2808 
Q 2531 3016 2531 3303 
Q 2531 3553 2331 3762 
Q 2131 3972 1722 3972 
Q 1316 3972 1134 3762 
Q 953 3553 953 3272 
Q 953 2956 1187 2778 
Q 1422 2600 1741 2600 
z
M 1775 384 
Q 2166 384 2423 595 
Q 2681 806 2681 1225 
Q 2681 1659 2415 1884 
Q 2150 2109 1734 2109 
Q 1331 2109 1076 1879 
Q 822 1650 822 1244 
Q 822 894 1055 639 
Q 1288 384 1775 384 
z
M 975 2384 
Q 741 2484 609 2619 
Q 363 2869 363 3269 
Q 363 3769 725 4128 
Q 1088 4488 1753 4488 
Q 2397 4488 2762 4148 
Q 3128 3809 3128 3356 
Q 3128 2938 2916 2678 
Q 2797 2531 2547 2391 
Q 2825 2263 2984 2097 
Q 3281 1784 3281 1284 
Q 3281 694 2884 283 
Q 2488 -128 1763 -128 
Q 1109 -128 657 226 
Q 206 581 206 1256 
Q 206 1653 400 1942 
Q 594 2231 975 2384 
z
" transform="scale(0.015625)"/>
       </defs>
       <use xlink:href="#Helvetica-38"/>
      </g>
     </g>
    </g>
    <g id="xtick_7">
     <g id="line2d_7">
      <g>
       <use xlink:href="#ma7be864dd0" x="163.906455" y="148.167177" style="stroke: #000000; stroke-width: 0.75"/>
      </g>
     </g>
     <g id="text_7">
      <!-- 9 -->
      <g transform="translate(161.404033 161.623271) scale(0.09 -0.09)">
       <defs>
        <path id="Helvetica-39" d="M 850 1081 
Q 875 616 1209 438 
Q 1381 344 1597 344 
Q 2000 344 2284 680 
Q 2569 1016 2688 2044 
Q 2500 1747 2223 1626 
Q 1947 1506 1628 1506 
Q 981 1506 604 1909 
Q 228 2313 228 2947 
Q 228 3556 600 4018 
Q 972 4481 1697 4481 
Q 2675 4481 3047 3600 
Q 3253 3116 3253 2388 
Q 3253 1566 3006 931 
Q 2597 -125 1619 -125 
Q 963 -125 622 219 
Q 281 563 281 1081 
L 850 1081 
z
M 1703 2000 
Q 2038 2000 2314 2220 
Q 2591 2441 2591 2991 
Q 2591 3484 2342 3726 
Q 2094 3969 1709 3969 
Q 1297 3969 1055 3692 
Q 813 3416 813 2953 
Q 813 2516 1025 2258 
Q 1238 2000 1703 2000 
z
" transform="scale(0.015625)"/>
       </defs>
       <use xlink:href="#Helvetica-39"/>
      </g>
     </g>
    </g>
    <g id="xtick_8">
     <g id="line2d_8">
      <g>
       <use xlink:href="#ma7be864dd0" x="182.450091" y="148.167177" style="stroke: #000000; stroke-width: 0.75"/>
      </g>
     </g>
     <g id="text_8">
      <!-- 10 -->
      <g transform="translate(177.445247 161.623271) scale(0.09 -0.09)">
       <defs>
        <path id="Helvetica-31" d="M 613 3169 
L 613 3600 
Q 1222 3659 1462 3798 
Q 1703 3938 1822 4456 
L 2266 4456 
L 2266 0 
L 1666 0 
L 1666 3169 
L 613 3169 
z
" transform="scale(0.015625)"/>
        <path id="Helvetica-30" d="M 1731 4475 
Q 2600 4475 2988 3759 
Q 3288 3206 3288 2244 
Q 3288 1331 3016 734 
Q 2622 -122 1728 -122 
Q 922 -122 528 578 
Q 200 1163 200 2147 
Q 200 2909 397 3456 
Q 766 4475 1731 4475 
z
M 1725 391 
Q 2163 391 2422 778 
Q 2681 1166 2681 2222 
Q 2681 2984 2493 3476 
Q 2306 3969 1766 3969 
Q 1269 3969 1039 3501 
Q 809 3034 809 2125 
Q 809 1441 956 1025 
Q 1181 391 1725 391 
z
" transform="scale(0.015625)"/>
       </defs>
       <use xlink:href="#Helvetica-31"/>
       <use xlink:href="#Helvetica-30" x="55.615234"/>
      </g>
     </g>
    </g>
    <g id="xtick_9">
     <g id="line2d_9">
      <g>
       <use xlink:href="#ma7be864dd0" x="200.993727" y="148.167177" style="stroke: #000000; stroke-width: 0.75"/>
      </g>
     </g>
     <g id="text_9">
      <!-- 11 -->
      <g transform="translate(195.988884 161.623271) scale(0.09 -0.09)">
       <use xlink:href="#Helvetica-31"/>
       <use xlink:href="#Helvetica-31" x="55.615234"/>
      </g>
     </g>
    </g>
    <g id="xtick_10">
     <g id="line2d_10">
      <g>
       <use xlink:href="#ma7be864dd0" x="219.537364" y="148.167177" style="stroke: #000000; stroke-width: 0.75"/>
      </g>
     </g>
     <g id="text_10">
      <!-- 12 -->
      <g transform="translate(214.53252 161.623271) scale(0.09 -0.09)">
       <defs>
        <path id="Helvetica-32" d="M 200 0 
Q 231 578 439 1006 
Q 647 1434 1250 1784 
L 1850 2131 
Q 2253 2366 2416 2531 
Q 2672 2791 2672 3125 
Q 2672 3516 2437 3745 
Q 2203 3975 1813 3975 
Q 1234 3975 1013 3538 
Q 894 3303 881 2888 
L 309 2888 
Q 319 3472 525 3841 
Q 891 4491 1816 4491 
Q 2584 4491 2939 4075 
Q 3294 3659 3294 3150 
Q 3294 2613 2916 2231 
Q 2697 2009 2131 1694 
L 1703 1456 
Q 1397 1288 1222 1134 
Q 909 863 828 531 
L 3272 531 
L 3272 0 
L 200 0 
z
" transform="scale(0.015625)"/>
       </defs>
       <use xlink:href="#Helvetica-31"/>
       <use xlink:href="#Helvetica-32" x="55.615234"/>
      </g>
     </g>
    </g>
    <g id="text_11">
     <!-- number of spins $n$ -->
     <g transform="translate(100.091 174.069209) scale(0.09 -0.09)">
      <defs>
       <path id="Helvetica-6e" d="M 413 3347 
L 947 3347 
L 947 2872 
Q 1184 3166 1450 3294 
Q 1716 3422 2041 3422 
Q 2753 3422 3003 2925 
Q 3141 2653 3141 2147 
L 3141 0 
L 2569 0 
L 2569 2109 
Q 2569 2416 2478 2603 
Q 2328 2916 1934 2916 
Q 1734 2916 1606 2875 
Q 1375 2806 1200 2600 
Q 1059 2434 1017 2257 
Q 975 2081 975 1753 
L 975 0 
L 413 0 
L 413 3347 
z
M 1734 3428 
L 1734 3428 
z
" transform="scale(0.015625)"/>
       <path id="Helvetica-75" d="M 975 3347 
L 975 1125 
Q 975 869 1056 706 
Q 1206 406 1616 406 
Q 2203 406 2416 931 
Q 2531 1213 2531 1703 
L 2531 3347 
L 3094 3347 
L 3094 0 
L 2563 0 
L 2569 494 
Q 2459 303 2297 172 
Q 1975 -91 1516 -91 
Q 800 -91 541 388 
Q 400 644 400 1072 
L 400 3347 
L 975 3347 
z
M 1747 3428 
L 1747 3428 
z
" transform="scale(0.015625)"/>
       <path id="Helvetica-6d" d="M 413 3347 
L 969 3347 
L 969 2872 
Q 1169 3119 1331 3231 
Q 1609 3422 1963 3422 
Q 2363 3422 2606 3225 
Q 2744 3113 2856 2894 
Q 3044 3163 3297 3292 
Q 3550 3422 3866 3422 
Q 4541 3422 4784 2934 
Q 4916 2672 4916 2228 
L 4916 0 
L 4331 0 
L 4331 2325 
Q 4331 2659 4164 2784 
Q 3997 2909 3756 2909 
Q 3425 2909 3186 2687 
Q 2947 2466 2947 1947 
L 2947 0 
L 2375 0 
L 2375 2184 
Q 2375 2525 2294 2681 
Q 2166 2916 1816 2916 
Q 1497 2916 1236 2669 
Q 975 2422 975 1775 
L 975 0 
L 413 0 
L 413 3347 
z
" transform="scale(0.015625)"/>
       <path id="Helvetica-62" d="M 369 4606 
L 916 4606 
L 916 2941 
Q 1100 3181 1356 3307 
Q 1613 3434 1913 3434 
Q 2538 3434 2927 3004 
Q 3316 2575 3316 1738 
Q 3316 944 2931 419 
Q 2547 -106 1866 -106 
Q 1484 -106 1222 78 
Q 1066 188 888 428 
L 888 0 
L 369 0 
L 369 4606 
z
M 1831 391 
Q 2288 391 2514 753 
Q 2741 1116 2741 1709 
Q 2741 2238 2514 2584 
Q 2288 2931 1847 2931 
Q 1463 2931 1173 2647 
Q 884 2363 884 1709 
Q 884 1238 1003 944 
Q 1225 391 1831 391 
z
" transform="scale(0.015625)"/>
       <path id="Helvetica-65" d="M 1806 3422 
Q 2163 3422 2497 3255 
Q 2831 3088 3006 2822 
Q 3175 2569 3231 2231 
Q 3281 2000 3281 1494 
L 828 1494 
Q 844 984 1069 676 
Q 1294 369 1766 369 
Q 2206 369 2469 659 
Q 2619 828 2681 1050 
L 3234 1050 
Q 3213 866 3089 639 
Q 2966 413 2813 269 
Q 2556 19 2178 -69 
Q 1975 -119 1719 -119 
Q 1094 -119 659 336 
Q 225 791 225 1609 
Q 225 2416 662 2919 
Q 1100 3422 1806 3422 
z
M 2703 1941 
Q 2669 2306 2544 2525 
Q 2313 2931 1772 2931 
Q 1384 2931 1121 2651 
Q 859 2372 844 1941 
L 2703 1941 
z
M 1753 3428 
L 1753 3428 
z
" transform="scale(0.015625)"/>
       <path id="Helvetica-72" d="M 428 3347 
L 963 3347 
L 963 2769 
Q 1028 2938 1284 3180 
Q 1541 3422 1875 3422 
Q 1891 3422 1928 3419 
Q 1966 3416 2056 3406 
L 2056 2813 
Q 2006 2822 1964 2825 
Q 1922 2828 1872 2828 
Q 1447 2828 1219 2554 
Q 991 2281 991 1925 
L 991 0 
L 428 0 
L 428 3347 
z
" transform="scale(0.015625)"/>
       <path id="Helvetica-20" transform="scale(0.015625)"/>
       <path id="Helvetica-6f" d="M 1741 363 
Q 2300 363 2508 786 
Q 2716 1209 2716 1728 
Q 2716 2197 2566 2491 
Q 2328 2953 1747 2953 
Q 1231 2953 997 2559 
Q 763 2166 763 1609 
Q 763 1075 997 719 
Q 1231 363 1741 363 
z
M 1763 3444 
Q 2409 3444 2856 3012 
Q 3303 2581 3303 1744 
Q 3303 934 2909 406 
Q 2516 -122 1688 -122 
Q 997 -122 590 345 
Q 184 813 184 1600 
Q 184 2444 612 2944 
Q 1041 3444 1763 3444 
z
M 1744 3428 
L 1744 3428 
z
" transform="scale(0.015625)"/>
       <path id="Helvetica-66" d="M 553 3856 
Q 566 4206 675 4369 
Q 872 4656 1434 4656 
Q 1488 4656 1544 4653 
Q 1600 4650 1672 4644 
L 1672 4131 
Q 1584 4138 1545 4139 
Q 1506 4141 1472 4141 
Q 1216 4141 1166 4008 
Q 1116 3875 1116 3331 
L 1672 3331 
L 1672 2888 
L 1109 2888 
L 1109 0 
L 553 0 
L 553 2888 
L 88 2888 
L 88 3331 
L 553 3331 
L 553 3856 
z
" transform="scale(0.015625)"/>
       <path id="Helvetica-73" d="M 747 1050 
Q 772 769 888 619 
Q 1100 347 1625 347 
Q 1938 347 2175 483 
Q 2413 619 2413 903 
Q 2413 1119 2222 1231 
Q 2100 1300 1741 1391 
L 1294 1503 
Q 866 1609 663 1741 
Q 300 1969 300 2372 
Q 300 2847 642 3140 
Q 984 3434 1563 3434 
Q 2319 3434 2653 2991 
Q 2863 2709 2856 2384 
L 2325 2384 
Q 2309 2575 2191 2731 
Q 1997 2953 1519 2953 
Q 1200 2953 1036 2831 
Q 872 2709 872 2509 
Q 872 2291 1088 2159 
Q 1213 2081 1456 2022 
L 1828 1931 
Q 2434 1784 2641 1647 
Q 2969 1431 2969 969 
Q 2969 522 2630 197 
Q 2291 -128 1597 -128 
Q 850 -128 539 211 
Q 228 550 206 1050 
L 747 1050 
z
M 1578 3428 
L 1578 3428 
z
" transform="scale(0.015625)"/>
       <path id="Helvetica-70" d="M 1825 378 
Q 2219 378 2480 708 
Q 2741 1038 2741 1694 
Q 2741 2094 2625 2381 
Q 2406 2934 1825 2934 
Q 1241 2934 1025 2350 
Q 909 2038 909 1556 
Q 909 1169 1025 897 
Q 1244 378 1825 378 
z
M 369 3331 
L 916 3331 
L 916 2888 
Q 1084 3116 1284 3241 
Q 1569 3428 1953 3428 
Q 2522 3428 2919 2992 
Q 3316 2556 3316 1747 
Q 3316 653 2744 184 
Q 2381 -113 1900 -113 
Q 1522 -113 1266 53 
Q 1116 147 931 375 
L 931 -1334 
L 369 -1334 
L 369 3331 
z
" transform="scale(0.015625)"/>
       <path id="Helvetica-69" d="M 413 3331 
L 984 3331 
L 984 0 
L 413 0 
L 413 3331 
z
M 413 4591 
L 984 4591 
L 984 3953 
L 413 3953 
L 413 4591 
z
" transform="scale(0.015625)"/>
       <path id="Cmmi10-6e" d="M 494 109 
Q 494 147 500 166 
L 978 2075 
Q 1025 2253 1025 2388 
Q 1025 2663 838 2663 
Q 638 2663 541 2423 
Q 444 2184 353 1819 
Q 353 1800 334 1789 
Q 316 1778 300 1778 
L 225 1778 
Q 203 1778 187 1801 
Q 172 1825 172 1844 
Q 241 2122 305 2315 
Q 369 2509 505 2668 
Q 641 2828 844 2828 
Q 1084 2828 1268 2676 
Q 1453 2525 1453 2291 
Q 1644 2541 1900 2684 
Q 2156 2828 2444 2828 
Q 2672 2828 2837 2750 
Q 3003 2672 3095 2514 
Q 3188 2356 3188 2138 
Q 3188 1875 3070 1503 
Q 2953 1131 2778 672 
Q 2688 463 2688 288 
Q 2688 97 2834 97 
Q 3084 97 3251 365 
Q 3419 634 3488 941 
Q 3500 978 3541 978 
L 3616 978 
Q 3641 978 3658 962 
Q 3675 947 3675 922 
Q 3675 916 3669 903 
Q 3581 541 3364 234 
Q 3147 -72 2822 -72 
Q 2597 -72 2437 83 
Q 2278 238 2278 459 
Q 2278 578 2328 709 
Q 2409 919 2514 1209 
Q 2619 1500 2686 1765 
Q 2753 2031 2753 2234 
Q 2753 2413 2679 2538 
Q 2606 2663 2431 2663 
Q 2197 2663 2000 2559 
Q 1803 2456 1656 2286 
Q 1509 2116 1388 1881 
L 953 141 
Q 931 53 854 -9 
Q 778 -72 684 -72 
Q 606 -72 550 -22 
Q 494 28 494 109 
z
" transform="scale(0.015625)"/>
      </defs>
      <use xlink:href="#Helvetica-6e" transform="translate(0 0.25)"/>
      <use xlink:href="#Helvetica-75" transform="translate(55.615234 0.25)"/>
      <use xlink:href="#Helvetica-6d" transform="translate(111.230469 0.25)"/>
      <use xlink:href="#Helvetica-62" transform="translate(194.53125 0.25)"/>
      <use xlink:href="#Helvetica-65" transform="translate(250.146484 0.25)"/>
      <use xlink:href="#Helvetica-72" transform="translate(305.761719 0.25)"/>
      <use xlink:href="#Helvetica-20" transform="translate(339.0625 0.25)"/>
      <use xlink:href="#Helvetica-6f" transform="translate(366.845703 0.25)"/>
      <use xlink:href="#Helvetica-66" transform="translate(422.460938 0.25)"/>
      <use xlink:href="#Helvetica-20" transform="translate(450.244141 0.25)"/>
      <use xlink:href="#Helvetica-73" transform="translate(478.027344 0.25)"/>
      <use xlink:href="#Helvetica-70" transform="translate(528.027344 0.25)"/>
      <use xlink:href="#Helvetica-69" transform="translate(583.642578 0.25)"/>
      <use xlink:href="#Helvetica-6e" transform="translate(605.859375 0.25)"/>
      <use xlink:href="#Helvetica-73" transform="translate(661.474609 0.25)"/>
      <use xlink:href="#Helvetica-20" transform="translate(711.474609 0.25)"/>
      <use xlink:href="#Cmmi10-6e" transform="translate(739.257812 0.25)"/>
     </g>
    </g>
   </g>
   <g id="matplotlib.axis_2">
    <g id="ytick_1">
     <g id="line2d_11">
      <path d="M 44.3 148.167177 
L 227.882 148.167177 
" clip-path="url(#p528dbf6d00)" style="fill: none; stroke: #bfbfbf; stroke-width: 0.75; stroke-linecap: square"/>
     </g>
     <g id="line2d_12">
      <defs>
       <path id="m3ba61bdad6" d="M 0 0 
L -3.5 0 
" style="stroke: #000000; stroke-width: 0.75"/>
      </defs>
      <g>
       <use xlink:href="#m3ba61bdad6" x="44.3" y="148.167177" style="stroke: #000000; stroke-width: 0.75"/>
      </g>
     </g>
     <g id="text_12">
      <!-- $\mathdefault{10^{-5}}$ -->
      <g transform="translate(19.75 151.395224) scale(0.09 -0.09)">
       <defs>
        <path id="Helvetica-2212" d="M 3547 1894 
L 3547 1369 
L 288 1369 
L 288 1894 
L 3547 1894 
z
" transform="scale(0.015625)"/>
       </defs>
       <use xlink:href="#Helvetica-31" transform="translate(0 0.267188)"/>
       <use xlink:href="#Helvetica-30" transform="translate(55.615234 0.267188)"/>
       <use xlink:href="#Helvetica-2212" transform="translate(112.145664 36.875) scale(0.7)"/>
       <use xlink:href="#Helvetica-35" transform="translate(153.02457 36.875) scale(0.7)"/>
      </g>
     </g>
    </g>
    <g id="ytick_2">
     <g id="line2d_13">
      <path d="M 44.3 120.619351 
L 227.882 120.619351 
" clip-path="url(#p528dbf6d00)" style="fill: none; stroke: #bfbfbf; stroke-width: 0.75; stroke-linecap: square"/>
     </g>
     <g id="line2d_14">
      <g>
       <use xlink:href="#m3ba61bdad6" x="44.3" y="120.619351" style="stroke: #000000; stroke-width: 0.75"/>
      </g>
     </g>
     <g id="text_13">
      <!-- $\mathdefault{10^{-4}}$ -->
      <g transform="translate(19.75 123.847398) scale(0.09 -0.09)">
       <use xlink:href="#Helvetica-31" transform="translate(0 0.304688)"/>
       <use xlink:href="#Helvetica-30" transform="translate(55.615234 0.304688)"/>
       <use xlink:href="#Helvetica-2212" transform="translate(112.145664 36.9125) scale(0.7)"/>
       <use xlink:href="#Helvetica-34" transform="translate(153.02457 36.9125) scale(0.7)"/>
      </g>
     </g>
    </g>
    <g id="ytick_3">
     <g id="line2d_15">
      <path d="M 44.3 93.071525 
L 227.882 93.071525 
" clip-path="url(#p528dbf6d00)" style="fill: none; stroke: #bfbfbf; stroke-width: 0.75; stroke-linecap: square"/>
     </g>
     <g id="line2d_16">
      <g>
       <use xlink:href="#m3ba61bdad6" x="44.3" y="93.071525" style="stroke: #000000; stroke-width: 0.75"/>
      </g>
     </g>
     <g id="text_14">
      <!-- $\mathdefault{10^{-3}}$ -->
      <g transform="translate(19.75 96.299572) scale(0.09 -0.09)">
       <use xlink:href="#Helvetica-31" transform="translate(0 0.38125)"/>
       <use xlink:href="#Helvetica-30" transform="translate(55.615234 0.38125)"/>
       <use xlink:href="#Helvetica-2212" transform="translate(112.145664 36.989063) scale(0.7)"/>
       <use xlink:href="#Helvetica-33" transform="translate(153.02457 36.989063) scale(0.7)"/>
      </g>
     </g>
    </g>
    <g id="ytick_4">
     <g id="line2d_17">
      <path d="M 44.3 65.523699 
L 227.882 65.523699 
" clip-path="url(#p528dbf6d00)" style="fill: none; stroke: #bfbfbf; stroke-width: 0.75; stroke-linecap: square"/>
     </g>
     <g id="line2d_18">
      <g>
       <use xlink:href="#m3ba61bdad6" x="44.3" y="65.523699" style="stroke: #000000; stroke-width: 0.75"/>
      </g>
     </g>
     <g id="text_15">
      <!-- $\mathdefault{10^{-2}}$ -->
      <g transform="translate(19.75 68.751746) scale(0.09 -0.09)">
       <use xlink:href="#Helvetica-31" transform="translate(0 0.271875)"/>
       <use xlink:href="#Helvetica-30" transform="translate(55.615234 0.271875)"/>
       <use xlink:href="#Helvetica-2212" transform="translate(112.145664 36.879688) scale(0.7)"/>
       <use xlink:href="#Helvetica-32" transform="translate(153.02457 36.879688) scale(0.7)"/>
      </g>
     </g>
    </g>
    <g id="ytick_5">
     <g id="line2d_19">
      <path d="M 44.3 37.975873 
L 227.882 37.975873 
" clip-path="url(#p528dbf6d00)" style="fill: none; stroke: #bfbfbf; stroke-width: 0.75; stroke-linecap: square"/>
     </g>
     <g id="line2d_20">
      <g>
       <use xlink:href="#m3ba61bdad6" x="44.3" y="37.975873" style="stroke: #000000; stroke-width: 0.75"/>
      </g>
     </g>
     <g id="text_16">
      <!-- $\mathdefault{10^{-1}}$ -->
      <g transform="translate(19.75 41.20392) scale(0.09 -0.09)">
       <use xlink:href="#Helvetica-31" transform="translate(0 0.654688)"/>
       <use xlink:href="#Helvetica-30" transform="translate(55.615234 0.654688)"/>
       <use xlink:href="#Helvetica-2212" transform="translate(112.145664 37.2625) scale(0.7)"/>
       <use xlink:href="#Helvetica-31" transform="translate(153.02457 37.2625) scale(0.7)"/>
      </g>
     </g>
    </g>
    <g id="ytick_6">
     <g id="line2d_21">
      <path d="M 44.3 10.428047 
L 227.882 10.428047 
" clip-path="url(#p528dbf6d00)" style="fill: none; stroke: #bfbfbf; stroke-width: 0.75; stroke-linecap: square"/>
     </g>
     <g id="line2d_22">
      <g>
       <use xlink:href="#m3ba61bdad6" x="44.3" y="10.428047" style="stroke: #000000; stroke-width: 0.75"/>
      </g>
     </g>
     <g id="text_17">
      <!-- $\mathdefault{10^{0}}$ -->
      <g transform="translate(23.44 13.656094) scale(0.09 -0.09)">
       <use xlink:href="#Helvetica-31" transform="translate(0 0.446875)"/>
       <use xlink:href="#Helvetica-30" transform="translate(55.615234 0.446875)"/>
       <use xlink:href="#Helvetica-30" transform="translate(112.145664 37.054688) scale(0.7)"/>
      </g>
     </g>
    </g>
    <g id="text_18">
     <!-- spectral gap $\delta$ -->
     <g transform="translate(13.68 107.062612) rotate(-90) scale(0.09 -0.09)">
      <defs>
       <path id="Helvetica-63" d="M 1703 3444 
Q 2269 3444 2623 3169 
Q 2978 2894 3050 2222 
L 2503 2222 
Q 2453 2531 2275 2736 
Q 2097 2941 1703 2941 
Q 1166 2941 934 2416 
Q 784 2075 784 1575 
Q 784 1072 996 728 
Q 1209 384 1666 384 
Q 2016 384 2220 598 
Q 2425 813 2503 1184 
L 3050 1184 
Q 2956 519 2581 211 
Q 2206 -97 1622 -97 
Q 966 -97 575 383 
Q 184 863 184 1581 
Q 184 2463 612 2953 
Q 1041 3444 1703 3444 
z
M 1616 3428 
L 1616 3428 
z
" transform="scale(0.015625)"/>
       <path id="Helvetica-74" d="M 525 4281 
L 1094 4281 
L 1094 3347 
L 1628 3347 
L 1628 2888 
L 1094 2888 
L 1094 703 
Q 1094 528 1213 469 
Q 1278 434 1431 434 
Q 1472 434 1519 436 
Q 1566 438 1628 444 
L 1628 0 
Q 1531 -28 1426 -40 
Q 1322 -53 1200 -53 
Q 806 -53 665 148 
Q 525 350 525 672 
L 525 2888 
L 72 2888 
L 72 3347 
L 525 3347 
L 525 4281 
z
" transform="scale(0.015625)"/>
       <path id="Helvetica-61" d="M 844 891 
Q 844 647 1022 506 
Q 1200 366 1444 366 
Q 1741 366 2019 503 
Q 2488 731 2488 1250 
L 2488 1703 
Q 2384 1638 2221 1594 
Q 2059 1550 1903 1531 
L 1563 1488 
Q 1256 1447 1103 1359 
Q 844 1213 844 891 
z
M 2206 2028 
Q 2400 2053 2466 2191 
Q 2503 2266 2503 2406 
Q 2503 2694 2298 2823 
Q 2094 2953 1713 2953 
Q 1272 2953 1088 2716 
Q 984 2584 953 2325 
L 428 2325 
Q 444 2944 830 3186 
Q 1216 3428 1725 3428 
Q 2316 3428 2684 3203 
Q 3050 2978 3050 2503 
L 3050 575 
Q 3050 488 3086 434 
Q 3122 381 3238 381 
Q 3275 381 3322 386 
Q 3369 391 3422 400 
L 3422 -16 
Q 3291 -53 3222 -62 
Q 3153 -72 3034 -72 
Q 2744 -72 2613 134 
Q 2544 244 2516 444 
Q 2344 219 2022 53 
Q 1700 -113 1313 -113 
Q 847 -113 551 170 
Q 256 453 256 878 
Q 256 1344 547 1600 
Q 838 1856 1309 1916 
L 2206 2028 
z
M 1741 3428 
L 1741 3428 
z
" transform="scale(0.015625)"/>
       <path id="Helvetica-6c" d="M 428 4591 
L 991 4591 
L 991 0 
L 428 0 
L 428 4591 
z
" transform="scale(0.015625)"/>
       <path id="Helvetica-67" d="M 1594 3406 
Q 1988 3406 2281 3213 
Q 2441 3103 2606 2894 
L 2606 3316 
L 3125 3316 
L 3125 272 
Q 3125 -366 2938 -734 
Q 2588 -1416 1616 -1416 
Q 1075 -1416 706 -1173 
Q 338 -931 294 -416 
L 866 -416 
Q 906 -641 1028 -763 
Q 1219 -950 1628 -950 
Q 2275 -950 2475 -494 
Q 2594 -225 2584 466 
Q 2416 209 2178 84 
Q 1941 -41 1550 -41 
Q 1006 -41 598 345 
Q 191 731 191 1622 
Q 191 2463 602 2934 
Q 1013 3406 1594 3406 
z
M 2606 1688 
Q 2606 2309 2350 2609 
Q 2094 2909 1697 2909 
Q 1103 2909 884 2353 
Q 769 2056 769 1575 
Q 769 1009 998 714 
Q 1228 419 1616 419 
Q 2222 419 2469 966 
Q 2606 1275 2606 1688 
z
M 1659 3428 
L 1659 3428 
z
" transform="scale(0.015625)"/>
       <path id="Cmmi10-b1" d="M 1281 -97 
Q 1059 -97 868 -14 
Q 678 69 536 225 
Q 394 381 325 573 
Q 256 766 256 991 
Q 256 1391 445 1767 
Q 634 2144 961 2419 
Q 1288 2694 1672 2791 
Q 1484 3138 1386 3389 
Q 1288 3641 1288 3903 
Q 1288 4097 1378 4245 
Q 1469 4394 1628 4478 
Q 1788 4563 1984 4563 
Q 2175 4563 2741 4434 
Q 2888 4400 2888 4263 
Q 2888 4156 2809 4068 
Q 2731 3981 2625 3981 
Q 2547 3981 2484 4017 
Q 2422 4053 2287 4143 
Q 2153 4234 2047 4282 
Q 1941 4331 1825 4331 
Q 1694 4331 1589 4251 
Q 1484 4172 1484 4044 
Q 1484 3841 1664 3577 
Q 1844 3313 2175 2900 
Q 2553 2419 2553 1838 
Q 2553 1550 2470 1215 
Q 2388 881 2230 584 
Q 2072 288 1826 95 
Q 1581 -97 1281 -97 
z
M 1294 78 
Q 1544 78 1723 337 
Q 1903 597 1995 955 
Q 2088 1313 2088 1556 
Q 2088 2034 1753 2631 
Q 1416 2538 1172 2238 
Q 928 1938 803 1547 
Q 678 1156 678 806 
Q 678 500 837 289 
Q 997 78 1294 78 
z
" transform="scale(0.015625)"/>
      </defs>
      <use xlink:href="#Helvetica-73" transform="translate(0 0.265625)"/>
      <use xlink:href="#Helvetica-70" transform="translate(50 0.265625)"/>
      <use xlink:href="#Helvetica-65" transform="translate(105.615234 0.265625)"/>
      <use xlink:href="#Helvetica-63" transform="translate(161.230469 0.265625)"/>
      <use xlink:href="#Helvetica-74" transform="translate(211.230469 0.265625)"/>
      <use xlink:href="#Helvetica-72" transform="translate(239.013672 0.265625)"/>
      <use xlink:href="#Helvetica-61" transform="translate(272.314453 0.265625)"/>
      <use xlink:href="#Helvetica-6c" transform="translate(327.929688 0.265625)"/>
      <use xlink:href="#Helvetica-20" transform="translate(350.146484 0.265625)"/>
      <use xlink:href="#Helvetica-67" transform="translate(377.929688 0.265625)"/>
      <use xlink:href="#Helvetica-61" transform="translate(433.544922 0.265625)"/>
      <use xlink:href="#Helvetica-70" transform="translate(489.160156 0.265625)"/>
      <use xlink:href="#Helvetica-20" transform="translate(544.775391 0.265625)"/>
      <use xlink:href="#Cmmi10-b1" transform="translate(572.558594 0.265625)"/>
     </g>
    </g>
   </g>
   <g id="line2d_23">
    <path d="M 52.644636 24.359897 
L 71.188273 22.000911 
L 89.731909 20.539128 
L 108.275545 15.400451 
L 126.819182 17.388258 
L 145.362818 19.622282 
L 163.906455 22.48195 
L 182.450091 23.657096 
L 200.993727 27.045809 
L 219.537364 28.67184 
" clip-path="url(#p528dbf6d00)" style="fill: none; stroke: #e31a1c; stroke-width: 1.5; stroke-linecap: square"/>
   </g>
   <g id="line2d_24">
    <path d="M 52.644636 16.511301 
L 71.188273 23.537461 
L 89.731909 25.553839 
L 108.275545 25.770212 
L 126.819182 30.129738 
L 145.362818 32.976849 
L 163.906455 36.3802 
L 182.450091 40.567635 
L 200.993727 43.411062 
L 219.537364 46.757553 
" clip-path="url(#p528dbf6d00)" style="fill: none; stroke: #ff7f00; stroke-width: 1.5; stroke-linecap: square"/>
   </g>
   <g id="line2d_25">
    <path d="M 52.644636 25.992414 
L 71.188273 33.772947 
L 89.731909 42.505217 
L 108.275545 49.868855 
L 126.819182 57.341522 
L 145.362818 66.409709 
L 163.906455 74.230731 
L 182.450091 82.932194 
L 200.993727 90.308687 
L 219.537364 99.16493 
" clip-path="url(#p528dbf6d00)" style="fill: none; stroke: #696969; stroke-width: 1.5; stroke-linecap: square"/>
   </g>
   <g id="line2d_26">
    <path d="M 52.644636 83.869 
L 71.188273 124.484924 
L 89.731909 126.041644 
L 108.275545 147.031843 
L 126.819182 153.667894 
L 145.362818 173.063321 
L 163.906455 212.550476 
L 182.450091 220.813689 
L 200.993727 236.378961 
L 207.750688 240.388047 
" clip-path="url(#p528dbf6d00)" style="fill: none; stroke: #1f78b4; stroke-width: 1.5; stroke-linecap: square"/>
   </g>
   <g id="line2d_27">
    <path d="M 52.644636 28.053094 
L 71.188273 32.912605 
L 89.731909 40.733024 
L 108.275545 45.251785 
L 126.819182 49.449683 
L 145.362818 56.364447 
L 163.906455 61.40255 
L 182.450091 68.23279 
L 200.993727 74.175046 
L 219.537364 79.499802 
" clip-path="url(#p528dbf6d00)" style="fill: none; stroke: #33a02c; stroke-width: 1.5; stroke-linecap: square"/>
   </g>
   <g id="patch_3">
    <path d="M 44.3 148.167177 
L 44.3 10.428047 
" style="fill: none; stroke: #000000; stroke-width: 0.75; stroke-linejoin: miter; stroke-linecap: square"/>
   </g>
   <g id="patch_4">
    <path d="M 227.882 148.167177 
L 227.882 10.428047 
" style="fill: none; stroke: #000000; stroke-width: 0.75; stroke-linejoin: miter; stroke-linecap: square"/>
   </g>
   <g id="patch_5">
    <path d="M 44.3 148.167177 
L 227.882 148.167177 
" style="fill: none; stroke: #000000; stroke-width: 0.75; stroke-linejoin: miter; stroke-linecap: square"/>
   </g>
   <g id="patch_6">
    <path d="M 44.3 10.428047 
L 227.882 10.428047 
" style="fill: none; stroke: #000000; stroke-width: 0.75; stroke-linejoin: miter; stroke-linecap: square"/>
   </g>
   <g id="LineCollection_1">
    <path d="M 52.644636 19.871176 
L 52.644636 13.891061 
" clip-path="url(#p528dbf6d00)" style="fill: none; stroke: #ff7f00; stroke-width: 1.5"/>
    <path d="M 71.188273 27.294133 
L 71.188273 20.682775 
" clip-path="url(#p528dbf6d00)" style="fill: none; stroke: #ff7f00; stroke-width: 1.5"/>
    <path d="M 89.731909 28.971424 
L 89.731909 22.898726 
" clip-path="url(#p528dbf6d00)" style="fill: none; stroke: #ff7f00; stroke-width: 1.5"/>
    <path d="M 108.275545 30.657635 
L 108.275545 22.310217 
" clip-path="url(#p528dbf6d00)" style="fill: none; stroke: #ff7f00; stroke-width: 1.5"/>
    <path d="M 126.819182 36.046841 
L 126.819182 26.188497 
" clip-path="url(#p528dbf6d00)" style="fill: none; stroke: #ff7f00; stroke-width: 1.5"/>
    <path d="M 145.362818 38.865201 
L 145.362818 29.048241 
" clip-path="url(#p528dbf6d00)" style="fill: none; stroke: #ff7f00; stroke-width: 1.5"/>
    <path d="M 163.906455 41.774513 
L 163.906455 32.675701 
" clip-path="url(#p528dbf6d00)" style="fill: none; stroke: #ff7f00; stroke-width: 1.5"/>
    <path d="M 182.450091 49.563247 
L 182.450091 35.491293 
" clip-path="url(#p528dbf6d00)" style="fill: none; stroke: #ff7f00; stroke-width: 1.5"/>
    <path d="M 200.993727 50.230748 
L 200.993727 39.094404 
" clip-path="url(#p528dbf6d00)" style="fill: none; stroke: #ff7f00; stroke-width: 1.5"/>
    <path d="M 219.537364 53.427606 
L 219.537364 42.500402 
" clip-path="url(#p528dbf6d00)" style="fill: none; stroke: #ff7f00; stroke-width: 1.5"/>
   </g>
   <g id="line2d_28">
    <defs>
     <path id="m93948d8a38" d="M 2 0 
L -2 -0 
" style="stroke: #ff7f00; stroke-width: 1.5"/>
    </defs>
    <g clip-path="url(#p528dbf6d00)">
     <use xlink:href="#m93948d8a38" x="52.644636" y="19.871176" style="fill: #ff7f00; stroke: #ff7f00; stroke-width: 1.5"/>
     <use xlink:href="#m93948d8a38" x="71.188273" y="27.294133" style="fill: #ff7f00; stroke: #ff7f00; stroke-width: 1.5"/>
     <use xlink:href="#m93948d8a38" x="89.731909" y="28.971424" style="fill: #ff7f00; stroke: #ff7f00; stroke-width: 1.5"/>
     <use xlink:href="#m93948d8a38" x="108.275545" y="30.657635" style="fill: #ff7f00; stroke: #ff7f00; stroke-width: 1.5"/>
     <use xlink:href="#m93948d8a38" x="126.819182" y="36.046841" style="fill: #ff7f00; stroke: #ff7f00; stroke-width: 1.5"/>
     <use xlink:href="#m93948d8a38" x="145.362818" y="38.865201" style="fill: #ff7f00; stroke: #ff7f00; stroke-width: 1.5"/>
     <use xlink:href="#m93948d8a38" x="163.906455" y="41.774513" style="fill: #ff7f00; stroke: #ff7f00; stroke-width: 1.5"/>
     <use xlink:href="#m93948d8a38" x="182.450091" y="49.563247" style="fill: #ff7f00; stroke: #ff7f00; stroke-width: 1.5"/>
     <use xlink:href="#m93948d8a38" x="200.993727" y="50.230748" style="fill: #ff7f00; stroke: #ff7f00; stroke-width: 1.5"/>
     <use xlink:href="#m93948d8a38" x="219.537364" y="53.427606" style="fill: #ff7f00; stroke: #ff7f00; stroke-width: 1.5"/>
    </g>
   </g>
   <g id="line2d_29">
    <g clip-path="url(#p528dbf6d00)">
     <use xlink:href="#m93948d8a38" x="52.644636" y="13.891061" style="fill: #ff7f00; stroke: #ff7f00; stroke-width: 1.5"/>
     <use xlink:href="#m93948d8a38" x="71.188273" y="20.682775" style="fill: #ff7f00; stroke: #ff7f00; stroke-width: 1.5"/>
     <use xlink:href="#m93948d8a38" x="89.731909" y="22.898726" style="fill: #ff7f00; stroke: #ff7f00; stroke-width: 1.5"/>
     <use xlink:href="#m93948d8a38" x="108.275545" y="22.310217" style="fill: #ff7f00; stroke: #ff7f00; stroke-width: 1.5"/>
     <use xlink:href="#m93948d8a38" x="126.819182" y="26.188497" style="fill: #ff7f00; stroke: #ff7f00; stroke-width: 1.5"/>
     <use xlink:href="#m93948d8a38" x="145.362818" y="29.048241" style="fill: #ff7f00; stroke: #ff7f00; stroke-width: 1.5"/>
     <use xlink:href="#m93948d8a38" x="163.906455" y="32.675701" style="fill: #ff7f00; stroke: #ff7f00; stroke-width: 1.5"/>
     <use xlink:href="#m93948d8a38" x="182.450091" y="35.491293" style="fill: #ff7f00; stroke: #ff7f00; stroke-width: 1.5"/>
     <use xlink:href="#m93948d8a38" x="200.993727" y="39.094404" style="fill: #ff7f00; stroke: #ff7f00; stroke-width: 1.5"/>
     <use xlink:href="#m93948d8a38" x="219.537364" y="42.500402" style="fill: #ff7f00; stroke: #ff7f00; stroke-width: 1.5"/>
    </g>
   </g>
   <g id="LineCollection_2">
    <path d="M 52.644636 28.657346 
L 52.644636 23.814297 
" clip-path="url(#p528dbf6d00)" style="fill: none; stroke: #696969; stroke-width: 1.5"/>
    <path d="M 71.188273 37.230564 
L 71.188273 31.0938 
" clip-path="url(#p528dbf6d00)" style="fill: none; stroke: #696969; stroke-width: 1.5"/>
    <path d="M 89.731909 45.409802 
L 89.731909 40.169853 
" clip-path="url(#p528dbf6d00)" style="fill: none; stroke: #696969; stroke-width: 1.5"/>
    <path d="M 108.275545 54.146131 
L 108.275545 46.724548 
" clip-path="url(#p528dbf6d00)" style="fill: none; stroke: #696969; stroke-width: 1.5"/>
    <path d="M 126.819182 62.787491 
L 126.819182 53.612955 
" clip-path="url(#p528dbf6d00)" style="fill: none; stroke: #696969; stroke-width: 1.5"/>
    <path d="M 145.362818 70.35019 
L 145.362818 63.450517 
" clip-path="url(#p528dbf6d00)" style="fill: none; stroke: #696969; stroke-width: 1.5"/>
    <path d="M 163.906455 78.448477 
L 163.906455 71.11856 
" clip-path="url(#p528dbf6d00)" style="fill: none; stroke: #696969; stroke-width: 1.5"/>
    <path d="M 182.450091 87.165733 
L 182.450091 79.811473 
" clip-path="url(#p528dbf6d00)" style="fill: none; stroke: #696969; stroke-width: 1.5"/>
    <path d="M 200.993727 96.213427 
L 200.993727 86.372872 
" clip-path="url(#p528dbf6d00)" style="fill: none; stroke: #696969; stroke-width: 1.5"/>
    <path d="M 219.537364 103.057062 
L 219.537364 96.232984 
" clip-path="url(#p528dbf6d00)" style="fill: none; stroke: #696969; stroke-width: 1.5"/>
   </g>
   <g id="line2d_30">
    <defs>
     <path id="m0328aa62f7" d="M 2 0 
L -2 -0 
" style="stroke: #696969; stroke-width: 1.5"/>
    </defs>
    <g clip-path="url(#p528dbf6d00)">
     <use xlink:href="#m0328aa62f7" x="52.644636" y="28.657346" style="fill: #696969; stroke: #696969; stroke-width: 1.5"/>
     <use xlink:href="#m0328aa62f7" x="71.188273" y="37.230564" style="fill: #696969; stroke: #696969; stroke-width: 1.5"/>
     <use xlink:href="#m0328aa62f7" x="89.731909" y="45.409802" style="fill: #696969; stroke: #696969; stroke-width: 1.5"/>
     <use xlink:href="#m0328aa62f7" x="108.275545" y="54.146131" style="fill: #696969; stroke: #696969; stroke-width: 1.5"/>
     <use xlink:href="#m0328aa62f7" x="126.819182" y="62.787491" style="fill: #696969; stroke: #696969; stroke-width: 1.5"/>
     <use xlink:href="#m0328aa62f7" x="145.362818" y="70.35019" style="fill: #696969; stroke: #696969; stroke-width: 1.5"/>
     <use xlink:href="#m0328aa62f7" x="163.906455" y="78.448477" style="fill: #696969; stroke: #696969; stroke-width: 1.5"/>
     <use xlink:href="#m0328aa62f7" x="182.450091" y="87.165733" style="fill: #696969; stroke: #696969; stroke-width: 1.5"/>
     <use xlink:href="#m0328aa62f7" x="200.993727" y="96.213427" style="fill: #696969; stroke: #696969; stroke-width: 1.5"/>
     <use xlink:href="#m0328aa62f7" x="219.537364" y="103.057062" style="fill: #696969; stroke: #696969; stroke-width: 1.5"/>
    </g>
   </g>
   <g id="line2d_31">
    <g clip-path="url(#p528dbf6d00)">
     <use xlink:href="#m0328aa62f7" x="52.644636" y="23.814297" style="fill: #696969; stroke: #696969; stroke-width: 1.5"/>
     <use xlink:href="#m0328aa62f7" x="71.188273" y="31.0938" style="fill: #696969; stroke: #696969; stroke-width: 1.5"/>
     <use xlink:href="#m0328aa62f7" x="89.731909" y="40.169853" style="fill: #696969; stroke: #696969; stroke-width: 1.5"/>
     <use xlink:href="#m0328aa62f7" x="108.275545" y="46.724548" style="fill: #696969; stroke: #696969; stroke-width: 1.5"/>
     <use xlink:href="#m0328aa62f7" x="126.819182" y="53.612955" style="fill: #696969; stroke: #696969; stroke-width: 1.5"/>
     <use xlink:href="#m0328aa62f7" x="145.362818" y="63.450517" style="fill: #696969; stroke: #696969; stroke-width: 1.5"/>
     <use xlink:href="#m0328aa62f7" x="163.906455" y="71.11856" style="fill: #696969; stroke: #696969; stroke-width: 1.5"/>
     <use xlink:href="#m0328aa62f7" x="182.450091" y="79.811473" style="fill: #696969; stroke: #696969; stroke-width: 1.5"/>
     <use xlink:href="#m0328aa62f7" x="200.993727" y="86.372872" style="fill: #696969; stroke: #696969; stroke-width: 1.5"/>
     <use xlink:href="#m0328aa62f7" x="219.537364" y="96.232984" style="fill: #696969; stroke: #696969; stroke-width: 1.5"/>
    </g>
   </g>
   <g id="LineCollection_3">
    <path d="M 52.644636 240.388047 
L 52.644636 64.882504 
" clip-path="url(#p528dbf6d00)" style="fill: none; stroke: #1f78b4; stroke-width: 1.5"/>
    <path d="M 71.188273 240.388047 
L 71.188273 106.386765 
" clip-path="url(#p528dbf6d00)" style="fill: none; stroke: #1f78b4; stroke-width: 1.5"/>
    <path d="M 89.731909 240.388047 
L 89.731909 100.134253 
" clip-path="url(#p528dbf6d00)" style="fill: none; stroke: #1f78b4; stroke-width: 1.5"/>
    <path d="M 108.275545 240.388047 
L 108.275545 123.351359 
" clip-path="url(#p528dbf6d00)" style="fill: none; stroke: #1f78b4; stroke-width: 1.5"/>
    <path d="M 126.819182 240.388047 
L 126.819182 126.948543 
" clip-path="url(#p528dbf6d00)" style="fill: none; stroke: #1f78b4; stroke-width: 1.5"/>
    <path d="M 145.362818 240.388047 
L 145.362818 148.295782 
" clip-path="url(#p528dbf6d00)" style="fill: none; stroke: #1f78b4; stroke-width: 1.5"/>
    <path d="M 163.906455 240.388047 
L 163.906455 189.971632 
" clip-path="url(#p528dbf6d00)" style="fill: none; stroke: #1f78b4; stroke-width: 1.5"/>
    <path d="M 182.450091 240.388047 
L 182.450091 195.842951 
" clip-path="url(#p528dbf6d00)" style="fill: none; stroke: #1f78b4; stroke-width: 1.5"/>
    <path d="M 200.993727 240.388047 
L 200.993727 217.341681 
" clip-path="url(#p528dbf6d00)" style="fill: none; stroke: #1f78b4; stroke-width: 1.5"/>
    <path d="M 219.537364 240.388047 
L 219.537364 227.761702 
" clip-path="url(#p528dbf6d00)" style="fill: none; stroke: #1f78b4; stroke-width: 1.5"/>
   </g>
   <g id="line2d_32">
    <defs>
     <path id="mec82775526" d="M 2 0 
L -2 -0 
" style="stroke: #1f78b4; stroke-width: 1.5"/>
    </defs>
    <g clip-path="url(#p528dbf6d00)"/>
   </g>
   <g id="line2d_33">
    <g clip-path="url(#p528dbf6d00)">
     <use xlink:href="#mec82775526" x="52.644636" y="64.882504" style="fill: #1f78b4; stroke: #1f78b4; stroke-width: 1.5"/>
     <use xlink:href="#mec82775526" x="71.188273" y="106.386765" style="fill: #1f78b4; stroke: #1f78b4; stroke-width: 1.5"/>
     <use xlink:href="#mec82775526" x="89.731909" y="100.134253" style="fill: #1f78b4; stroke: #1f78b4; stroke-width: 1.5"/>
     <use xlink:href="#mec82775526" x="108.275545" y="123.351359" style="fill: #1f78b4; stroke: #1f78b4; stroke-width: 1.5"/>
     <use xlink:href="#mec82775526" x="126.819182" y="126.948543" style="fill: #1f78b4; stroke: #1f78b4; stroke-width: 1.5"/>
     <use xlink:href="#mec82775526" x="145.362818" y="148.295782" style="fill: #1f78b4; stroke: #1f78b4; stroke-width: 1.5"/>
     <use xlink:href="#mec82775526" x="163.906455" y="189.971632" style="fill: #1f78b4; stroke: #1f78b4; stroke-width: 1.5"/>
     <use xlink:href="#mec82775526" x="182.450091" y="195.842951" style="fill: #1f78b4; stroke: #1f78b4; stroke-width: 1.5"/>
     <use xlink:href="#mec82775526" x="200.993727" y="217.341681" style="fill: #1f78b4; stroke: #1f78b4; stroke-width: 1.5"/>
     <use xlink:href="#mec82775526" x="219.537364" y="227.761702" style="fill: #1f78b4; stroke: #1f78b4; stroke-width: 1.5"/>
    </g>
   </g>
   <g id="LineCollection_4">
    <path d="M 52.644636 33.494835 
L 52.644636 24.326491 
" clip-path="url(#p528dbf6d00)" style="fill: none; stroke: #33a02c; stroke-width: 1.5"/>
    <path d="M 71.188273 38.221934 
L 71.188273 29.248039 
" clip-path="url(#p528dbf6d00)" style="fill: none; stroke: #33a02c; stroke-width: 1.5"/>
    <path d="M 89.731909 48.804479 
L 89.731909 35.956766 
" clip-path="url(#p528dbf6d00)" style="fill: none; stroke: #33a02c; stroke-width: 1.5"/>
    <path d="M 108.275545 53.247556 
L 108.275545 40.501499 
" clip-path="url(#p528dbf6d00)" style="fill: none; stroke: #33a02c; stroke-width: 1.5"/>
    <path d="M 126.819182 59.14899 
L 126.819182 44.164384 
" clip-path="url(#p528dbf6d00)" style="fill: none; stroke: #33a02c; stroke-width: 1.5"/>
    <path d="M 145.362818 67.219995 
L 145.362818 50.768244 
" clip-path="url(#p528dbf6d00)" style="fill: none; stroke: #33a02c; stroke-width: 1.5"/>
    <path d="M 163.906455 74.101696 
L 163.906455 55.382018 
" clip-path="url(#p528dbf6d00)" style="fill: none; stroke: #33a02c; stroke-width: 1.5"/>
    <path d="M 182.450091 82.260049 
L 182.450091 61.952188 
" clip-path="url(#p528dbf6d00)" style="fill: none; stroke: #33a02c; stroke-width: 1.5"/>
    <path d="M 200.993727 89.291074 
L 200.993727 67.70534 
" clip-path="url(#p528dbf6d00)" style="fill: none; stroke: #33a02c; stroke-width: 1.5"/>
    <path d="M 219.537364 101.21745 
L 219.537364 72.222827 
" clip-path="url(#p528dbf6d00)" style="fill: none; stroke: #33a02c; stroke-width: 1.5"/>
   </g>
   <g id="line2d_34">
    <defs>
     <path id="m0c78abf966" d="M 2 0 
L -2 -0 
" style="stroke: #33a02c; stroke-width: 1.5"/>
    </defs>
    <g clip-path="url(#p528dbf6d00)">
     <use xlink:href="#m0c78abf966" x="52.644636" y="33.494835" style="fill: #33a02c; stroke: #33a02c; stroke-width: 1.5"/>
     <use xlink:href="#m0c78abf966" x="71.188273" y="38.221934" style="fill: #33a02c; stroke: #33a02c; stroke-width: 1.5"/>
     <use xlink:href="#m0c78abf966" x="89.731909" y="48.804479" style="fill: #33a02c; stroke: #33a02c; stroke-width: 1.5"/>
     <use xlink:href="#m0c78abf966" x="108.275545" y="53.247556" style="fill: #33a02c; stroke: #33a02c; stroke-width: 1.5"/>
     <use xlink:href="#m0c78abf966" x="126.819182" y="59.14899" style="fill: #33a02c; stroke: #33a02c; stroke-width: 1.5"/>
     <use xlink:href="#m0c78abf966" x="145.362818" y="67.219995" style="fill: #33a02c; stroke: #33a02c; stroke-width: 1.5"/>
     <use xlink:href="#m0c78abf966" x="163.906455" y="74.101696" style="fill: #33a02c; stroke: #33a02c; stroke-width: 1.5"/>
     <use xlink:href="#m0c78abf966" x="182.450091" y="82.260049" style="fill: #33a02c; stroke: #33a02c; stroke-width: 1.5"/>
     <use xlink:href="#m0c78abf966" x="200.993727" y="89.291074" style="fill: #33a02c; stroke: #33a02c; stroke-width: 1.5"/>
     <use xlink:href="#m0c78abf966" x="219.537364" y="101.21745" style="fill: #33a02c; stroke: #33a02c; stroke-width: 1.5"/>
    </g>
   </g>
   <g id="line2d_35">
    <g clip-path="url(#p528dbf6d00)">
     <use xlink:href="#m0c78abf966" x="52.644636" y="24.326491" style="fill: #33a02c; stroke: #33a02c; stroke-width: 1.5"/>
     <use xlink:href="#m0c78abf966" x="71.188273" y="29.248039" style="fill: #33a02c; stroke: #33a02c; stroke-width: 1.5"/>
     <use xlink:href="#m0c78abf966" x="89.731909" y="35.956766" style="fill: #33a02c; stroke: #33a02c; stroke-width: 1.5"/>
     <use xlink:href="#m0c78abf966" x="108.275545" y="40.501499" style="fill: #33a02c; stroke: #33a02c; stroke-width: 1.5"/>
     <use xlink:href="#m0c78abf966" x="126.819182" y="44.164384" style="fill: #33a02c; stroke: #33a02c; stroke-width: 1.5"/>
     <use xlink:href="#m0c78abf966" x="145.362818" y="50.768244" style="fill: #33a02c; stroke: #33a02c; stroke-width: 1.5"/>
     <use xlink:href="#m0c78abf966" x="163.906455" y="55.382018" style="fill: #33a02c; stroke: #33a02c; stroke-width: 1.5"/>
     <use xlink:href="#m0c78abf966" x="182.450091" y="61.952188" style="fill: #33a02c; stroke: #33a02c; stroke-width: 1.5"/>
     <use xlink:href="#m0c78abf966" x="200.993727" y="67.70534" style="fill: #33a02c; stroke: #33a02c; stroke-width: 1.5"/>
     <use xlink:href="#m0c78abf966" x="219.537364" y="72.222827" style="fill: #33a02c; stroke: #33a02c; stroke-width: 1.5"/>
    </g>
   </g>
   <g id="line2d_36">
    <defs>
     <path id="me79f020877" d="M 0 2 
C 0.530406 2 1.03916 1.789267 1.414214 1.414214 
C 1.789267 1.03916 2 0.530406 2 0 
C 2 -0.530406 1.789267 -1.03916 1.414214 -1.414214 
C 1.03916 -1.789267 0.530406 -2 0 -2 
C -0.530406 -2 -1.03916 -1.789267 -1.414214 -1.414214 
C -1.789267 -1.03916 -2 -0.530406 -2 0 
C -2 0.530406 -1.789267 1.03916 -1.414214 1.414214 
C -1.03916 1.789267 -0.530406 2 0 2 
z
" style="stroke: #ff7f00"/>
    </defs>
    <g clip-path="url(#p528dbf6d00)">
     <use xlink:href="#me79f020877" x="52.644636" y="16.511301" style="fill: #ff7f00; stroke: #ff7f00"/>
     <use xlink:href="#me79f020877" x="71.188273" y="23.537461" style="fill: #ff7f00; stroke: #ff7f00"/>
     <use xlink:href="#me79f020877" x="89.731909" y="25.553839" style="fill: #ff7f00; stroke: #ff7f00"/>
     <use xlink:href="#me79f020877" x="108.275545" y="25.770212" style="fill: #ff7f00; stroke: #ff7f00"/>
     <use xlink:href="#me79f020877" x="126.819182" y="30.129738" style="fill: #ff7f00; stroke: #ff7f00"/>
     <use xlink:href="#me79f020877" x="145.362818" y="32.976849" style="fill: #ff7f00; stroke: #ff7f00"/>
     <use xlink:href="#me79f020877" x="163.906455" y="36.3802" style="fill: #ff7f00; stroke: #ff7f00"/>
     <use xlink:href="#me79f020877" x="182.450091" y="40.567635" style="fill: #ff7f00; stroke: #ff7f00"/>
     <use xlink:href="#me79f020877" x="200.993727" y="43.411062" style="fill: #ff7f00; stroke: #ff7f00"/>
     <use xlink:href="#me79f020877" x="219.537364" y="46.757553" style="fill: #ff7f00; stroke: #ff7f00"/>
    </g>
   </g>
   <g id="line2d_37">
    <defs>
     <path id="m41022731d2" d="M 0 2 
C 0.530406 2 1.03916 1.789267 1.414214 1.414214 
C 1.789267 1.03916 2 0.530406 2 0 
C 2 -0.530406 1.789267 -1.03916 1.414214 -1.414214 
C 1.03916 -1.789267 0.530406 -2 0 -2 
C -0.530406 -2 -1.03916 -1.789267 -1.414214 -1.414214 
C -1.789267 -1.03916 -2 -0.530406 -2 0 
C -2 0.530406 -1.789267 1.03916 -1.414214 1.414214 
C -1.03916 1.789267 -0.530406 2 0 2 
z
" style="stroke: #696969"/>
    </defs>
    <g clip-path="url(#p528dbf6d00)">
     <use xlink:href="#m41022731d2" x="52.644636" y="25.992414" style="fill: #696969; stroke: #696969"/>
     <use xlink:href="#m41022731d2" x="71.188273" y="33.772947" style="fill: #696969; stroke: #696969"/>
     <use xlink:href="#m41022731d2" x="89.731909" y="42.505217" style="fill: #696969; stroke: #696969"/>
     <use xlink:href="#m41022731d2" x="108.275545" y="49.868855" style="fill: #696969; stroke: #696969"/>
     <use xlink:href="#m41022731d2" x="126.819182" y="57.341522" style="fill: #696969; stroke: #696969"/>
     <use xlink:href="#m41022731d2" x="145.362818" y="66.409709" style="fill: #696969; stroke: #696969"/>
     <use xlink:href="#m41022731d2" x="163.906455" y="74.230731" style="fill: #696969; stroke: #696969"/>
     <use xlink:href="#m41022731d2" x="182.450091" y="82.932194" style="fill: #696969; stroke: #696969"/>
     <use xlink:href="#m41022731d2" x="200.993727" y="90.308687" style="fill: #696969; stroke: #696969"/>
     <use xlink:href="#m41022731d2" x="219.537364" y="99.16493" style="fill: #696969; stroke: #696969"/>
    </g>
   </g>
   <g id="line2d_38">
    <defs>
     <path id="m2306cc9dcd" d="M 0 2 
C 0.530406 2 1.03916 1.789267 1.414214 1.414214 
C 1.789267 1.03916 2 0.530406 2 0 
C 2 -0.530406 1.789267 -1.03916 1.414214 -1.414214 
C 1.03916 -1.789267 0.530406 -2 0 -2 
C -0.530406 -2 -1.03916 -1.789267 -1.414214 -1.414214 
C -1.789267 -1.03916 -2 -0.530406 -2 0 
C -2 0.530406 -1.789267 1.03916 -1.414214 1.414214 
C -1.03916 1.789267 -0.530406 2 0 2 
z
" style="stroke: #1f78b4"/>
    </defs>
    <g clip-path="url(#p528dbf6d00)">
     <use xlink:href="#m2306cc9dcd" x="52.644636" y="83.869" style="fill: #1f78b4; stroke: #1f78b4"/>
     <use xlink:href="#m2306cc9dcd" x="71.188273" y="124.484924" style="fill: #1f78b4; stroke: #1f78b4"/>
     <use xlink:href="#m2306cc9dcd" x="89.731909" y="126.041644" style="fill: #1f78b4; stroke: #1f78b4"/>
     <use xlink:href="#m2306cc9dcd" x="108.275545" y="147.031843" style="fill: #1f78b4; stroke: #1f78b4"/>
     <use xlink:href="#m2306cc9dcd" x="126.819182" y="153.667894" style="fill: #1f78b4; stroke: #1f78b4"/>
     <use xlink:href="#m2306cc9dcd" x="145.362818" y="173.063321" style="fill: #1f78b4; stroke: #1f78b4"/>
     <use xlink:href="#m2306cc9dcd" x="163.906455" y="212.550476" style="fill: #1f78b4; stroke: #1f78b4"/>
     <use xlink:href="#m2306cc9dcd" x="182.450091" y="220.813689" style="fill: #1f78b4; stroke: #1f78b4"/>
     <use xlink:href="#m2306cc9dcd" x="200.993727" y="236.378961" style="fill: #1f78b4; stroke: #1f78b4"/>
     <use xlink:href="#m2306cc9dcd" x="219.537364" y="247.381397" style="fill: #1f78b4; stroke: #1f78b4"/>
    </g>
   </g>
   <g id="line2d_39">
    <defs>
     <path id="me80ba0ce0a" d="M 0 2 
C 0.530406 2 1.03916 1.789267 1.414214 1.414214 
C 1.789267 1.03916 2 0.530406 2 0 
C 2 -0.530406 1.789267 -1.03916 1.414214 -1.414214 
C 1.03916 -1.789267 0.530406 -2 0 -2 
C -0.530406 -2 -1.03916 -1.789267 -1.414214 -1.414214 
C -1.789267 -1.03916 -2 -0.530406 -2 0 
C -2 0.530406 -1.789267 1.03916 -1.414214 1.414214 
C -1.03916 1.789267 -0.530406 2 0 2 
z
" style="stroke: #33a02c"/>
    </defs>
    <g clip-path="url(#p528dbf6d00)">
     <use xlink:href="#me80ba0ce0a" x="52.644636" y="28.053094" style="fill: #33a02c; stroke: #33a02c"/>
     <use xlink:href="#me80ba0ce0a" x="71.188273" y="32.912605" style="fill: #33a02c; stroke: #33a02c"/>
     <use xlink:href="#me80ba0ce0a" x="89.731909" y="40.733024" style="fill: #33a02c; stroke: #33a02c"/>
     <use xlink:href="#me80ba0ce0a" x="108.275545" y="45.251785" style="fill: #33a02c; stroke: #33a02c"/>
     <use xlink:href="#me80ba0ce0a" x="126.819182" y="49.449683" style="fill: #33a02c; stroke: #33a02c"/>
     <use xlink:href="#me80ba0ce0a" x="145.362818" y="56.364447" style="fill: #33a02c; stroke: #33a02c"/>
     <use xlink:href="#me80ba0ce0a" x="163.906455" y="61.40255" style="fill: #33a02c; stroke: #33a02c"/>
     <use xlink:href="#me80ba0ce0a" x="182.450091" y="68.23279" style="fill: #33a02c; stroke: #33a02c"/>
     <use xlink:href="#me80ba0ce0a" x="200.993727" y="74.175046" style="fill: #33a02c; stroke: #33a02c"/>
     <use xlink:href="#me80ba0ce0a" x="219.537364" y="79.499802" style="fill: #33a02c; stroke: #33a02c"/>
    </g>
   </g>
   <g id="LineCollection_5">
    <path d="M 52.644636 240.388047 
L 52.644636 13.973502 
" clip-path="url(#p528dbf6d00)" style="fill: none; stroke: #e31a1c; stroke-width: 1.5"/>
    <path d="M 71.188273 30.341278 
L 71.188273 17.13414 
" clip-path="url(#p528dbf6d00)" style="fill: none; stroke: #e31a1c; stroke-width: 1.5"/>
    <path d="M 89.731909 23.589377 
L 89.731909 18.110696 
" clip-path="url(#p528dbf6d00)" style="fill: none; stroke: #e31a1c; stroke-width: 1.5"/>
    <path d="M 108.275545 19.869778 
L 108.275545 12.154127 
" clip-path="url(#p528dbf6d00)" style="fill: none; stroke: #e31a1c; stroke-width: 1.5"/>
    <path d="M 126.819182 22.616899 
L 126.819182 13.761992 
" clip-path="url(#p528dbf6d00)" style="fill: none; stroke: #e31a1c; stroke-width: 1.5"/>
    <path d="M 145.362818 25.246325 
L 145.362818 15.811898 
" clip-path="url(#p528dbf6d00)" style="fill: none; stroke: #e31a1c; stroke-width: 1.5"/>
    <path d="M 163.906455 28.972735 
L 163.906455 18.29748 
" clip-path="url(#p528dbf6d00)" style="fill: none; stroke: #e31a1c; stroke-width: 1.5"/>
    <path d="M 182.450091 31.412401 
L 182.450091 18.990805 
" clip-path="url(#p528dbf6d00)" style="fill: none; stroke: #e31a1c; stroke-width: 1.5"/>
    <path d="M 200.993727 35.190295 
L 200.993727 22.244701 
" clip-path="url(#p528dbf6d00)" style="fill: none; stroke: #e31a1c; stroke-width: 1.5"/>
    <path d="M 219.537364 35.686111 
L 219.537364 24.279332 
" clip-path="url(#p528dbf6d00)" style="fill: none; stroke: #e31a1c; stroke-width: 1.5"/>
   </g>
   <g id="line2d_40">
    <defs>
     <path id="m2b4184488b" d="M 2 0 
L -2 -0 
" style="stroke: #e31a1c; stroke-width: 1.5"/>
    </defs>
    <g clip-path="url(#p528dbf6d00)">
     <use xlink:href="#m2b4184488b" x="59.597387" y="17236.939375" style="fill: #e31a1c; stroke: #e31a1c; stroke-width: 1.5"/>
     <use xlink:href="#m2b4184488b" x="71.188273" y="30.341278" style="fill: #e31a1c; stroke: #e31a1c; stroke-width: 1.5"/>
     <use xlink:href="#m2b4184488b" x="89.731909" y="23.589377" style="fill: #e31a1c; stroke: #e31a1c; stroke-width: 1.5"/>
     <use xlink:href="#m2b4184488b" x="108.275545" y="19.869778" style="fill: #e31a1c; stroke: #e31a1c; stroke-width: 1.5"/>
     <use xlink:href="#m2b4184488b" x="126.819182" y="22.616899" style="fill: #e31a1c; stroke: #e31a1c; stroke-width: 1.5"/>
     <use xlink:href="#m2b4184488b" x="145.362818" y="25.246325" style="fill: #e31a1c; stroke: #e31a1c; stroke-width: 1.5"/>
     <use xlink:href="#m2b4184488b" x="163.906455" y="28.972735" style="fill: #e31a1c; stroke: #e31a1c; stroke-width: 1.5"/>
     <use xlink:href="#m2b4184488b" x="182.450091" y="31.412401" style="fill: #e31a1c; stroke: #e31a1c; stroke-width: 1.5"/>
     <use xlink:href="#m2b4184488b" x="200.993727" y="35.190295" style="fill: #e31a1c; stroke: #e31a1c; stroke-width: 1.5"/>
     <use xlink:href="#m2b4184488b" x="219.537364" y="35.686111" style="fill: #e31a1c; stroke: #e31a1c; stroke-width: 1.5"/>
    </g>
   </g>
   <g id="line2d_41">
    <g clip-path="url(#p528dbf6d00)">
     <use xlink:href="#m2b4184488b" x="52.644636" y="13.973502" style="fill: #e31a1c; stroke: #e31a1c; stroke-width: 1.5"/>
     <use xlink:href="#m2b4184488b" x="71.188273" y="17.13414" style="fill: #e31a1c; stroke: #e31a1c; stroke-width: 1.5"/>
     <use xlink:href="#m2b4184488b" x="89.731909" y="18.110696" style="fill: #e31a1c; stroke: #e31a1c; stroke-width: 1.5"/>
     <use xlink:href="#m2b4184488b" x="108.275545" y="12.154127" style="fill: #e31a1c; stroke: #e31a1c; stroke-width: 1.5"/>
     <use xlink:href="#m2b4184488b" x="126.819182" y="13.761992" style="fill: #e31a1c; stroke: #e31a1c; stroke-width: 1.5"/>
     <use xlink:href="#m2b4184488b" x="145.362818" y="15.811898" style="fill: #e31a1c; stroke: #e31a1c; stroke-width: 1.5"/>
     <use xlink:href="#m2b4184488b" x="163.906455" y="18.29748" style="fill: #e31a1c; stroke: #e31a1c; stroke-width: 1.5"/>
     <use xlink:href="#m2b4184488b" x="182.450091" y="18.990805" style="fill: #e31a1c; stroke: #e31a1c; stroke-width: 1.5"/>
     <use xlink:href="#m2b4184488b" x="200.993727" y="22.244701" style="fill: #e31a1c; stroke: #e31a1c; stroke-width: 1.5"/>
     <use xlink:href="#m2b4184488b" x="219.537364" y="24.279332" style="fill: #e31a1c; stroke: #e31a1c; stroke-width: 1.5"/>
    </g>
   </g>
   <g id="line2d_42">
    <defs>
     <path id="mab34c6c553" d="M 0 2 
C 0.530406 2 1.03916 1.789267 1.414214 1.414214 
C 1.789267 1.03916 2 0.530406 2 0 
C 2 -0.530406 1.789267 -1.03916 1.414214 -1.414214 
C 1.03916 -1.789267 0.530406 -2 0 -2 
C -0.530406 -2 -1.03916 -1.789267 -1.414214 -1.414214 
C -1.789267 -1.03916 -2 -0.530406 -2 0 
C -2 0.530406 -1.789267 1.03916 -1.414214 1.414214 
C -1.03916 1.789267 -0.530406 2 0 2 
z
" style="stroke: #e31a1c"/>
    </defs>
    <g clip-path="url(#p528dbf6d00)">
     <use xlink:href="#mab34c6c553" x="52.644636" y="24.359897" style="fill: #e31a1c; stroke: #e31a1c"/>
     <use xlink:href="#mab34c6c553" x="71.188273" y="22.000911" style="fill: #e31a1c; stroke: #e31a1c"/>
     <use xlink:href="#mab34c6c553" x="89.731909" y="20.539128" style="fill: #e31a1c; stroke: #e31a1c"/>
     <use xlink:href="#mab34c6c553" x="108.275545" y="15.400451" style="fill: #e31a1c; stroke: #e31a1c"/>
     <use xlink:href="#mab34c6c553" x="126.819182" y="17.388258" style="fill: #e31a1c; stroke: #e31a1c"/>
     <use xlink:href="#mab34c6c553" x="145.362818" y="19.622282" style="fill: #e31a1c; stroke: #e31a1c"/>
     <use xlink:href="#mab34c6c553" x="163.906455" y="22.48195" style="fill: #e31a1c; stroke: #e31a1c"/>
     <use xlink:href="#mab34c6c553" x="182.450091" y="23.657096" style="fill: #e31a1c; stroke: #e31a1c"/>
     <use xlink:href="#mab34c6c553" x="200.993727" y="27.045809" style="fill: #e31a1c; stroke: #e31a1c"/>
     <use xlink:href="#mab34c6c553" x="219.537364" y="28.67184" style="fill: #e31a1c; stroke: #e31a1c"/>
    </g>
   </g>
  </g>
  <g id="axes_2">
   <g id="patch_7">
    <path d="M 44.3 232.188047 
L 227.882 232.188047 
L 227.882 177.092395 
L 44.3 177.092395 
z
" style="fill: #ffffff"/>
   </g>
   <g id="line2d_43"/>
   <g id="line2d_44"/>
   <g id="line2d_45"/>
   <g id="line2d_46"/>
   <g id="line2d_47"/>
   <g id="legend_1">
    <g id="patch_8">
     <path d="M 23.946078 225.471705 
L 248.235922 225.471705 
Q 250.035922 225.471705 250.035922 223.671705 
L 250.035922 185.608736 
Q 250.035922 183.808736 248.235922 183.808736 
L 23.946078 183.808736 
Q 22.146078 183.808736 22.146078 185.608736 
L 22.146078 223.671705 
Q 22.146078 225.471705 23.946078 225.471705 
z
" style="fill: #ffffff; opacity: 0.8; stroke: #cccccc; stroke-linejoin: miter"/>
    </g>
    <g id="line2d_48">
     <path d="M 25.746078 190.890611 
L 34.746078 190.890611 
L 43.746078 190.890611 
" style="fill: none; stroke: #e31a1c; stroke-width: 1.5; stroke-linecap: square"/>
     <defs>
      <path id="mf321f78787" d="M 0 3 
C 0.795609 3 1.55874 2.683901 2.12132 2.12132 
C 2.683901 1.55874 3 0.795609 3 0 
C 3 -0.795609 2.683901 -1.55874 2.12132 -2.12132 
C 1.55874 -2.683901 0.795609 -3 0 -3 
C -0.795609 -3 -1.55874 -2.683901 -2.12132 -2.12132 
C -2.683901 -1.55874 -3 -0.795609 -3 0 
C -3 0.795609 -2.683901 1.55874 -2.12132 2.12132 
C -1.55874 2.683901 -0.795609 3 0 3 
z
" style="stroke: #e31a1c"/>
     </defs>
     <g>
      <use xlink:href="#mf321f78787" x="34.746078" y="190.890611" style="fill: #e31a1c; stroke: #e31a1c"/>
     </g>
    </g>
    <g id="text_19">
     <!-- MADE+QAOA (optimized) -->
     <g transform="translate(50.946078 194.040611) scale(0.09 -0.09)">
      <defs>
       <path id="Helvetica-4d" d="M 472 4591 
L 1363 4591 
L 2681 709 
L 3991 4591 
L 4872 4591 
L 4872 0 
L 4281 0 
L 4281 2709 
Q 4281 2850 4287 3175 
Q 4294 3500 4294 3872 
L 2984 0 
L 2369 0 
L 1050 3872 
L 1050 3731 
Q 1050 3563 1058 3217 
Q 1066 2872 1066 2709 
L 1066 0 
L 472 0 
L 472 4591 
z
" transform="scale(0.015625)"/>
       <path id="Helvetica-41" d="M 2844 1881 
L 2147 3909 
L 1406 1881 
L 2844 1881 
z
M 1822 4591 
L 2525 4591 
L 4191 0 
L 3509 0 
L 3044 1375 
L 1228 1375 
L 731 0 
L 94 0 
L 1822 4591 
z
" transform="scale(0.015625)"/>
       <path id="Helvetica-44" d="M 2250 531 
Q 2566 531 2769 597 
Q 3131 719 3363 1066 
Q 3547 1344 3628 1778 
Q 3675 2038 3675 2259 
Q 3675 3113 3336 3584 
Q 2997 4056 2244 4056 
L 1141 4056 
L 1141 531 
L 2250 531 
z
M 516 4591 
L 2375 4591 
Q 3322 4591 3844 3919 
Q 4309 3313 4309 2366 
Q 4309 1634 4034 1044 
Q 3550 0 2369 0 
L 516 0 
L 516 4591 
z
" transform="scale(0.015625)"/>
       <path id="Helvetica-45" d="M 547 4591 
L 3894 4591 
L 3894 4028 
L 1153 4028 
L 1153 2634 
L 3688 2634 
L 3688 2103 
L 1153 2103 
L 1153 547 
L 3941 547 
L 3941 0 
L 547 0 
L 547 4591 
z
M 2244 4591 
L 2244 4591 
z
" transform="scale(0.015625)"/>
       <path id="Helvetica-2b" d="M 288 1369 
L 288 1894 
L 1650 1894 
L 1650 3266 
L 2184 3266 
L 2184 1894 
L 3547 1894 
L 3547 1369 
L 2184 1369 
L 2184 0 
L 1650 0 
L 1650 1369 
L 288 1369 
z
" transform="scale(0.015625)"/>
       <path id="Helvetica-51" d="M 4688 13 
L 4375 -366 
L 3666 175 
Q 3409 34 3111 -50 
Q 2813 -134 2459 -134 
Q 1391 -134 784 566 
Q 250 1247 250 2272 
Q 250 3203 713 3866 
Q 1306 4716 2469 4716 
Q 3684 4716 4269 3934 
Q 4725 3325 4725 2375 
Q 4725 1931 4616 1522 
Q 4450 897 4056 503 
L 4688 13 
z
M 2534 422 
Q 2728 422 2897 448 
Q 3066 475 3191 553 
L 2688 947 
L 3000 1331 
L 3600 866 
Q 3884 1191 3986 1594 
Q 4088 1997 4088 2366 
Q 4088 3175 3664 3669 
Q 3241 4163 2506 4163 
Q 1763 4163 1328 3689 
Q 894 3216 894 2231 
Q 894 1403 1311 912 
Q 1728 422 2534 422 
z
" transform="scale(0.015625)"/>
       <path id="Helvetica-4f" d="M 2469 4716 
Q 3684 4716 4269 3934 
Q 4725 3325 4725 2375 
Q 4725 1347 4203 666 
Q 3591 -134 2456 -134 
Q 1397 -134 791 566 
Q 250 1241 250 2272 
Q 250 3203 713 3866 
Q 1306 4716 2469 4716 
z
M 2531 422 
Q 3353 422 3720 1011 
Q 4088 1600 4088 2366 
Q 4088 3175 3664 3669 
Q 3241 4163 2506 4163 
Q 1794 4163 1344 3673 
Q 894 3184 894 2231 
Q 894 1469 1280 945 
Q 1666 422 2531 422 
z
M 2488 4716 
L 2488 4716 
z
" transform="scale(0.015625)"/>
       <path id="Helvetica-28" d="M 1894 4666 
Q 1403 3713 1256 3263 
Q 1034 2578 1034 1681 
Q 1034 775 1288 25 
Q 1444 -438 1903 -1306 
L 1525 -1306 
Q 1069 -594 959 -397 
Q 850 -200 722 138 
Q 547 600 478 1125 
Q 444 1397 444 1644 
Q 444 2569 734 3291 
Q 919 3750 1503 4666 
L 1894 4666 
z
" transform="scale(0.015625)"/>
       <path id="Helvetica-7a" d="M 163 444 
L 2147 2844 
L 309 2844 
L 309 3347 
L 2903 3347 
L 2903 2888 
L 931 503 
L 2963 503 
L 2963 0 
L 163 0 
L 163 444 
z
M 1609 3428 
L 1609 3428 
z
" transform="scale(0.015625)"/>
       <path id="Helvetica-64" d="M 769 1634 
Q 769 1097 997 734 
Q 1225 372 1728 372 
Q 2119 372 2370 708 
Q 2622 1044 2622 1672 
Q 2622 2306 2362 2611 
Q 2103 2916 1722 2916 
Q 1297 2916 1033 2591 
Q 769 2266 769 1634 
z
M 1616 3406 
Q 2000 3406 2259 3244 
Q 2409 3150 2600 2916 
L 2600 4606 
L 3141 4606 
L 3141 0 
L 2634 0 
L 2634 466 
Q 2438 156 2169 18 
Q 1900 -119 1553 -119 
Q 994 -119 584 351 
Q 175 822 175 1603 
Q 175 2334 548 2870 
Q 922 3406 1616 3406 
z
" transform="scale(0.015625)"/>
       <path id="Helvetica-29" d="M 222 -1306 
Q 719 -338 863 106 
Q 1081 778 1081 1681 
Q 1081 2584 828 3334 
Q 672 3797 213 4666 
L 591 4666 
Q 1072 3897 1173 3717 
Q 1275 3538 1394 3222 
Q 1544 2831 1608 2450 
Q 1672 2069 1672 1716 
Q 1672 791 1378 66 
Q 1194 -400 613 -1306 
L 222 -1306 
z
" transform="scale(0.015625)"/>
      </defs>
      <use xlink:href="#Helvetica-4d"/>
      <use xlink:href="#Helvetica-41" x="83.300781"/>
      <use xlink:href="#Helvetica-44" x="150"/>
      <use xlink:href="#Helvetica-45" x="222.216797"/>
      <use xlink:href="#Helvetica-2b" x="288.916016"/>
      <use xlink:href="#Helvetica-51" x="347.314453"/>
      <use xlink:href="#Helvetica-41" x="425.097656"/>
      <use xlink:href="#Helvetica-4f" x="491.796875"/>
      <use xlink:href="#Helvetica-41" x="569.580078"/>
      <use xlink:href="#Helvetica-20" x="636.279297"/>
      <use xlink:href="#Helvetica-28" x="664.0625"/>
      <use xlink:href="#Helvetica-6f" x="697.363281"/>
      <use xlink:href="#Helvetica-70" x="752.978516"/>
      <use xlink:href="#Helvetica-74" x="808.59375"/>
      <use xlink:href="#Helvetica-69" x="836.376953"/>
      <use xlink:href="#Helvetica-6d" x="858.59375"/>
      <use xlink:href="#Helvetica-69" x="941.894531"/>
      <use xlink:href="#Helvetica-7a" x="964.111328"/>
      <use xlink:href="#Helvetica-65" x="1014.111328"/>
      <use xlink:href="#Helvetica-64" x="1069.726562"/>
      <use xlink:href="#Helvetica-29" x="1125.341797"/>
     </g>
    </g>
    <g id="line2d_49">
     <path d="M 25.746078 203.898424 
L 34.746078 203.898424 
L 43.746078 203.898424 
" style="fill: none; stroke: #ff7f00; stroke-width: 1.5; stroke-linecap: square"/>
     <defs>
      <path id="mac1e2edee7" d="M 0 3 
C 0.795609 3 1.55874 2.683901 2.12132 2.12132 
C 2.683901 1.55874 3 0.795609 3 0 
C 3 -0.795609 2.683901 -1.55874 2.12132 -2.12132 
C 1.55874 -2.683901 0.795609 -3 0 -3 
C -0.795609 -3 -1.55874 -2.683901 -2.12132 -2.12132 
C -2.683901 -1.55874 -3 -0.795609 -3 0 
C -3 0.795609 -2.683901 1.55874 -2.12132 2.12132 
C -1.55874 2.683901 -0.795609 3 0 3 
z
" style="stroke: #ff7f00"/>
     </defs>
     <g>
      <use xlink:href="#mac1e2edee7" x="34.746078" y="203.898424" style="fill: #ff7f00; stroke: #ff7f00"/>
     </g>
    </g>
    <g id="text_20">
     <!-- MADE+QAOA (fixed angle) -->
     <g transform="translate(50.946078 207.048424) scale(0.09 -0.09)">
      <defs>
       <path id="Helvetica-78" d="M 94 3347 
L 822 3347 
L 1591 2169 
L 2369 3347 
L 3053 3331 
L 1925 1716 
L 3103 0 
L 2384 0 
L 1553 1256 
L 747 0 
L 34 0 
L 1213 1716 
L 94 3347 
z
" transform="scale(0.015625)"/>
      </defs>
      <use xlink:href="#Helvetica-4d"/>
      <use xlink:href="#Helvetica-41" x="83.300781"/>
      <use xlink:href="#Helvetica-44" x="150"/>
      <use xlink:href="#Helvetica-45" x="222.216797"/>
      <use xlink:href="#Helvetica-2b" x="288.916016"/>
      <use xlink:href="#Helvetica-51" x="347.314453"/>
      <use xlink:href="#Helvetica-41" x="425.097656"/>
      <use xlink:href="#Helvetica-4f" x="491.796875"/>
      <use xlink:href="#Helvetica-41" x="569.580078"/>
      <use xlink:href="#Helvetica-20" x="636.279297"/>
      <use xlink:href="#Helvetica-28" x="664.0625"/>
      <use xlink:href="#Helvetica-66" x="697.363281"/>
      <use xlink:href="#Helvetica-69" x="725.146484"/>
      <use xlink:href="#Helvetica-78" x="747.363281"/>
      <use xlink:href="#Helvetica-65" x="797.363281"/>
      <use xlink:href="#Helvetica-64" x="852.978516"/>
      <use xlink:href="#Helvetica-20" x="908.59375"/>
      <use xlink:href="#Helvetica-61" x="936.376953"/>
      <use xlink:href="#Helvetica-6e" x="991.992188"/>
      <use xlink:href="#Helvetica-67" x="1047.607422"/>
      <use xlink:href="#Helvetica-6c" x="1103.222656"/>
      <use xlink:href="#Helvetica-65" x="1125.439453"/>
      <use xlink:href="#Helvetica-29" x="1181.054688"/>
     </g>
    </g>
    <g id="line2d_50">
     <path d="M 25.746078 216.845768 
L 34.746078 216.845768 
L 43.746078 216.845768 
" style="fill: none; stroke: #696969; stroke-width: 1.5; stroke-linecap: square"/>
     <defs>
      <path id="mc101ef256a" d="M 0 3 
C 0.795609 3 1.55874 2.683901 2.12132 2.12132 
C 2.683901 1.55874 3 0.795609 3 0 
C 3 -0.795609 2.683901 -1.55874 2.12132 -2.12132 
C 1.55874 -2.683901 0.795609 -3 0 -3 
C -0.795609 -3 -1.55874 -2.683901 -2.12132 -2.12132 
C -2.683901 -1.55874 -3 -0.795609 -3 0 
C -3 0.795609 -2.683901 1.55874 -2.12132 2.12132 
C -1.55874 2.683901 -0.795609 3 0 3 
z
" style="stroke: #696969"/>
     </defs>
     <g>
      <use xlink:href="#mc101ef256a" x="34.746078" y="216.845768" style="fill: #696969; stroke: #696969"/>
     </g>
    </g>
    <g id="text_21">
     <!-- Uniform -->
     <g transform="translate(50.946078 219.995768) scale(0.09 -0.09)">
      <defs>
       <path id="Helvetica-55" d="M 1163 4591 
L 1163 1753 
Q 1163 1253 1350 922 
Q 1628 422 2288 422 
Q 3078 422 3363 963 
Q 3516 1256 3516 1753 
L 3516 4591 
L 4147 4591 
L 4147 2013 
Q 4147 1166 3919 709 
Q 3500 -122 2338 -122 
Q 1175 -122 759 709 
Q 531 1166 531 2013 
L 531 4591 
L 1163 4591 
z
M 2341 4591 
L 2341 4591 
z
" transform="scale(0.015625)"/>
      </defs>
      <use xlink:href="#Helvetica-55"/>
      <use xlink:href="#Helvetica-6e" x="72.216797"/>
      <use xlink:href="#Helvetica-69" x="127.832031"/>
      <use xlink:href="#Helvetica-66" x="150.048828"/>
      <use xlink:href="#Helvetica-6f" x="177.832031"/>
      <use xlink:href="#Helvetica-72" x="233.447266"/>
      <use xlink:href="#Helvetica-6d" x="266.748047"/>
     </g>
    </g>
    <g id="line2d_51">
     <path d="M 178.235609 190.890611 
L 187.235609 190.890611 
L 196.235609 190.890611 
" style="fill: none; stroke: #1f78b4; stroke-width: 1.5; stroke-linecap: square"/>
     <defs>
      <path id="m715e50925e" d="M 0 3 
C 0.795609 3 1.55874 2.683901 2.12132 2.12132 
C 2.683901 1.55874 3 0.795609 3 0 
C 3 -0.795609 2.683901 -1.55874 2.12132 -2.12132 
C 1.55874 -2.683901 0.795609 -3 0 -3 
C -0.795609 -3 -1.55874 -2.683901 -2.12132 -2.12132 
C -2.683901 -1.55874 -3 -0.795609 -3 0 
C -3 0.795609 -2.683901 1.55874 -2.12132 2.12132 
C -1.55874 2.683901 -0.795609 3 0 3 
z
" style="stroke: #1f78b4"/>
     </defs>
     <g>
      <use xlink:href="#m715e50925e" x="187.235609" y="190.890611" style="fill: #1f78b4; stroke: #1f78b4"/>
     </g>
    </g>
    <g id="text_22">
     <!-- SSF -->
     <g transform="translate(203.435609 194.040611) scale(0.09 -0.09)">
      <defs>
       <path id="Helvetica-53" d="M 894 1481 
Q 916 1091 1078 847 
Q 1388 391 2169 391 
Q 2519 391 2806 491 
Q 3363 684 3363 1184 
Q 3363 1559 3128 1719 
Q 2891 1875 2384 1991 
L 1763 2131 
Q 1153 2269 900 2434 
Q 463 2722 463 3294 
Q 463 3913 891 4309 
Q 1319 4706 2103 4706 
Q 2825 4706 3329 4357 
Q 3834 4009 3834 3244 
L 3250 3244 
Q 3203 3613 3050 3809 
Q 2766 4169 2084 4169 
Q 1534 4169 1293 3937 
Q 1053 3706 1053 3400 
Q 1053 3063 1334 2906 
Q 1519 2806 2169 2656 
L 2813 2509 
Q 3278 2403 3531 2219 
Q 3969 1897 3969 1284 
Q 3969 522 3414 194 
Q 2859 -134 2125 -134 
Q 1269 -134 784 303 
Q 300 738 309 1481 
L 894 1481 
z
M 2150 4716 
L 2150 4716 
z
" transform="scale(0.015625)"/>
       <path id="Helvetica-46" d="M 547 4591 
L 3731 4591 
L 3731 4028 
L 1169 4028 
L 1169 2634 
L 3422 2634 
L 3422 2088 
L 1169 2088 
L 1169 0 
L 547 0 
L 547 4591 
z
" transform="scale(0.015625)"/>
      </defs>
      <use xlink:href="#Helvetica-53"/>
      <use xlink:href="#Helvetica-53" x="66.699219"/>
      <use xlink:href="#Helvetica-46" x="133.398438"/>
     </g>
    </g>
    <g id="line2d_52">
     <path d="M 178.235609 203.722643 
L 187.235609 203.722643 
L 196.235609 203.722643 
" style="fill: none; stroke: #33a02c; stroke-width: 1.5; stroke-linecap: square"/>
     <defs>
      <path id="m1faa2648c6" d="M 0 3 
C 0.795609 3 1.55874 2.683901 2.12132 2.12132 
C 2.683901 1.55874 3 0.795609 3 0 
C 3 -0.795609 2.683901 -1.55874 2.12132 -2.12132 
C 1.55874 -2.683901 0.795609 -3 0 -3 
C -0.795609 -3 -1.55874 -2.683901 -2.12132 -2.12132 
C -2.683901 -1.55874 -3 -0.795609 -3 0 
C -3 0.795609 -2.683901 1.55874 -2.12132 2.12132 
C -1.55874 2.683901 -0.795609 3 0 3 
z
" style="stroke: #33a02c"/>
     </defs>
     <g>
      <use xlink:href="#m1faa2648c6" x="187.235609" y="203.722643" style="fill: #33a02c; stroke: #33a02c"/>
     </g>
    </g>
    <g id="text_23">
     <!-- QAOA-MC -->
     <g transform="translate(203.435609 206.872643) scale(0.09 -0.09)">
      <defs>
       <path id="Helvetica-2d" d="M 266 2072 
L 1834 2072 
L 1834 1494 
L 266 1494 
L 266 2072 
z
" transform="scale(0.015625)"/>
       <path id="Helvetica-43" d="M 2422 4716 
Q 3294 4716 3775 4256 
Q 4256 3797 4309 3213 
L 3703 3213 
Q 3600 3656 3292 3915 
Q 2984 4175 2428 4175 
Q 1750 4175 1333 3698 
Q 916 3222 916 2238 
Q 916 1431 1292 929 
Q 1669 428 2416 428 
Q 3103 428 3463 956 
Q 3653 1234 3747 1688 
L 4353 1688 
Q 4272 963 3816 472 
Q 3269 -119 2341 -119 
Q 1541 -119 997 366 
Q 281 1006 281 2344 
Q 281 3359 819 4009 
Q 1400 4716 2422 4716 
z
M 2297 4716 
L 2297 4716 
z
" transform="scale(0.015625)"/>
      </defs>
      <use xlink:href="#Helvetica-51"/>
      <use xlink:href="#Helvetica-41" x="77.783203"/>
      <use xlink:href="#Helvetica-4f" x="144.482422"/>
      <use xlink:href="#Helvetica-41" x="222.265625"/>
      <use xlink:href="#Helvetica-2d" x="288.964844"/>
      <use xlink:href="#Helvetica-4d" x="322.265625"/>
      <use xlink:href="#Helvetica-43" x="405.566406"/>
     </g>
    </g>
   </g>
  </g>
 </g>
 <defs>
  <clipPath id="p528dbf6d00">
   <rect x="44.3" y="10.428047" width="183.582" height="137.73913"/>
  </clipPath>
 </defs>
</svg>
